<svg preserveAspectRatio="none" width="100%" height="100%" overflow="visible" style="display: block;" viewBox="0 0 138 153.934" fill="none" xmlns="http://www.w3.org/2000/svg">
<g id="Group 1597882048">
<path id="Vector 1415" d="M19.2947 40.1101C23.0118 42.5967 34.5965 50.6151 42.6651 46.5966C46.6244 52.4739 50.8711 64.5701 36.1832 65.9363C17.8233 67.6439 4.12286 64.3983 2.09488 52.5498C0.472489 43.0709 7.07819 39.7398 9.37395 38.8542C3.38406 22.4722 19.885 19.522 18.8804 27.4579C18.3626 31.5484 15.5775 37.6236 19.2947 40.1101Z" fill="var(--fill-0, #F4D13D)" stroke="var(--stroke-0, #232323)" style="fill:#F4D13D;fill:color(display-p3 0.9569 0.8196 0.2392);fill-opacity:1;stroke:#232323;stroke:color(display-p3 0.1375 0.1375 0.1375);stroke-opacity:1;" stroke-width="2"/>
<g id="Group 1597882039">
<path id="Vector" d="M73.5001 153.934C109.122 153.934 138 152.59 138 150.934C138 149.277 109.122 147.934 73.5001 147.934C37.8778 147.934 9.00012 149.277 9.00012 150.934C9.00012 152.59 37.8778 153.934 73.5001 153.934Z" fill="var(--fill-0, #232323)" style="fill:#232323;fill:color(display-p3 0.1375 0.1375 0.1375);fill-opacity:1;"/>
<path id="Vector_2" d="M47.7312 132.688H47.1713C35.1294 132.688 25.3533 122.911 25.3533 110.869V104.637C25.3533 94.1745 33.846 85.6818 44.3087 85.6818H58.3048L58.3048 122.114C58.3048 127.95 53.5673 132.682 47.7364 132.682L47.7312 132.688Z" fill="var(--fill-0, #6B6B6B)" style="fill:#6B6B6B;fill:color(display-p3 0.4208 0.4208 0.4208);fill-opacity:1;"/>
<path id="Vector_3" d="M47.7327 133.479H47.1729C34.7032 133.479 24.5626 123.334 24.5626 110.869V104.642C24.5626 93.7517 33.4198 84.8945 44.3103 84.8945H58.3064C58.7448 84.8945 59.0986 85.2484 59.0986 85.6868V122.119C59.0986 128.383 54.0019 133.479 47.738 133.479H47.7327ZM44.3103 86.4737C34.2965 86.4737 26.1471 94.6231 26.1471 104.637V110.864C26.1471 122.457 35.5799 131.89 47.1729 131.89H47.7327C53.1252 131.89 57.5089 127.506 57.5089 122.114V86.4737H44.305H44.3103Z" fill="var(--fill-0, #232323)" style="fill:#232323;fill:color(display-p3 0.1375 0.1375 0.1375);fill-opacity:1;"/>
<path id="Vector_4" d="M41.0484 151.313H49.6837L49.6837 120.31H41.0484V151.313Z" fill="var(--fill-0, #9B5D42)" style="fill:#9B5D42;fill:color(display-p3 0.6078 0.3647 0.2588);fill-opacity:1;"/>
<path id="Vector_5" d="M49.6894 152.107H41.0541C40.6157 152.107 40.2618 151.753 40.2618 151.314V120.312C40.2618 119.873 40.6157 119.52 41.0541 119.52H49.6894C50.1278 119.52 50.4816 119.873 50.4816 120.312V151.314C50.4816 151.753 50.1278 152.107 49.6894 152.107ZM41.8463 150.522H48.8972V121.104H41.8463V150.522Z" fill="var(--fill-0, #232323)" style="fill:#232323;fill:color(display-p3 0.1375 0.1375 0.1375);fill-opacity:1;"/>
<path id="Vector_6" d="M49.6862 120.313H41.0509V136.817H49.6862V120.313Z" fill="var(--fill-0, #232323)" style="fill:#232323;fill:color(display-p3 0.1375 0.1375 0.1375);fill-opacity:1;"/>
<path id="Vector_7" d="M49.6894 137.609H41.0541C40.6157 137.609 40.2618 137.255 40.2618 136.817V120.312C40.2618 119.873 40.6157 119.52 41.0541 119.52H49.6894C50.1278 119.52 50.4816 119.873 50.4816 120.312V136.817C50.4816 137.255 50.1278 137.609 49.6894 137.609ZM41.8463 136.024H48.8972V121.104H41.8463V136.024Z" fill="var(--fill-0, #232323)" style="fill:#232323;fill:color(display-p3 0.1375 0.1375 0.1375);fill-opacity:1;"/>
<path id="Vector_8" d="M102.416 151.313H111.051V120.31H102.416V151.313Z" fill="var(--fill-0, #232323)" style="fill:#232323;fill:color(display-p3 0.1375 0.1375 0.1375);fill-opacity:1;"/>
<path id="Vector_9" d="M111.053 152.107H102.417C101.979 152.107 101.625 151.753 101.625 151.314V120.312C101.625 119.873 101.979 119.52 102.417 119.52H111.053C111.491 119.52 111.845 119.873 111.845 120.312V151.314C111.845 151.753 111.491 152.107 111.053 152.107ZM103.204 150.522H110.255V121.104H103.204V150.522Z" fill="var(--fill-0, #232323)" style="fill:#232323;fill:color(display-p3 0.1375 0.1375 0.1375);fill-opacity:1;"/>
<path id="Vector_10" d="M63.0133 151.313H71.6486V120.31H63.0133V151.313Z" fill="var(--fill-0, #232323)" style="fill:#232323;fill:color(display-p3 0.1375 0.1375 0.1375);fill-opacity:1;"/>
<path id="Vector_11" d="M71.6542 152.107H63.0189C62.5805 152.107 62.2267 151.753 62.2267 151.314V120.312C62.2267 119.873 62.5805 119.52 63.0189 119.52H71.6542C72.0926 119.52 72.4464 119.873 72.4464 120.312V151.314C72.4464 151.753 72.0926 152.107 71.6542 152.107ZM63.8111 150.522H70.862V121.104H63.8111V150.522Z" fill="var(--fill-0, #232323)" style="fill:#232323;fill:color(display-p3 0.1375 0.1375 0.1375);fill-opacity:1;"/>
<path id="Vector_12" d="M80.2124 151.313H88.8478V120.31H80.2124V151.313Z" fill="var(--fill-0, #9B5D42)" style="fill:#9B5D42;fill:color(display-p3 0.6078 0.3647 0.2588);fill-opacity:1;"/>
<path id="Vector_13" d="M88.8418 152.107H80.2064C79.768 152.107 79.4142 151.753 79.4142 151.314V120.312C79.4142 119.873 79.768 119.52 80.2064 119.52H88.8418C89.2801 119.52 89.634 119.873 89.634 120.312V151.314C89.634 151.753 89.2801 152.107 88.8418 152.107ZM80.9986 150.522H88.0495V121.104H80.9986V150.522Z" fill="var(--fill-0, #232323)" style="fill:#232323;fill:color(display-p3 0.1375 0.1375 0.1375);fill-opacity:1;"/>
<path id="Vector_14" d="M88.8386 120.313H80.2032V136.817H88.8386V120.313Z" fill="var(--fill-0, #232323)" style="fill:#232323;fill:color(display-p3 0.1375 0.1375 0.1375);fill-opacity:1;"/>
<path id="Vector_15" d="M88.8418 137.609H80.2064C79.768 137.609 79.4142 137.255 79.4142 136.817V120.312C79.4142 119.873 79.768 119.52 80.2064 119.52H88.8418C89.2801 119.52 89.634 119.873 89.634 120.312V136.817C89.634 137.255 89.2801 137.609 88.8418 137.609ZM80.9986 136.024H88.0495V121.104H80.9986V136.024Z" fill="var(--fill-0, #232323)" style="fill:#232323;fill:color(display-p3 0.1375 0.1375 0.1375);fill-opacity:1;"/>
<path id="Vector_16" d="M61.5417 48.6016H98.8663C109.757 48.6016 118.588 59.5977 118.588 73.166V108.119C118.588 121.688 109.757 132.684 98.8663 132.684H61.5417C50.6512 132.684 41.8204 121.688 41.8204 108.119V73.166C41.8204 59.5977 50.6512 48.6016 61.5417 48.6016Z" fill="var(--fill-0, #9B5D42)" style="fill:#9B5D42;fill:color(display-p3 0.6078 0.3647 0.2588);fill-opacity:1;"/>
<path id="Vector_17" d="M98.8695 133.479H61.5449C50.2318 133.479 41.0314 122.103 41.0314 108.122V73.1692C41.0314 59.1889 50.2318 47.8125 61.5449 47.8125H98.8695C110.183 47.8125 119.383 59.1889 119.383 73.1692V108.122C119.383 122.103 110.183 133.479 98.8695 133.479ZM61.5449 49.3917C51.1086 49.3917 42.6158 60.0551 42.6158 73.1639V108.117C42.6158 121.226 51.1086 131.889 61.5449 131.889H98.8695C109.306 131.889 117.799 121.226 117.799 108.117V73.1639C117.799 60.0551 109.306 49.3917 98.8695 49.3917H61.5449Z" fill="var(--fill-0, #232323)" style="fill:#232323;fill:color(display-p3 0.1375 0.1375 0.1375);fill-opacity:1;"/>
<path id="Vector_18" d="M99.5729 104.102H35.0959C28.1157 104.102 22.4571 109.76 22.4571 116.74V120.041C22.4571 127.021 28.1157 132.68 35.0959 132.68H99.5729C106.553 132.68 112.212 127.021 112.212 120.041V116.74C112.212 109.76 106.553 104.102 99.5729 104.102Z" fill="var(--fill-0, #CC7E62)" style="fill:#CC7E62;fill:color(display-p3 0.8000 0.4941 0.3843);fill-opacity:1;"/>
<path id="Vector_19" d="M99.5722 133.479H35.0898C27.6851 133.479 21.6642 127.453 21.6642 120.054V116.747C21.6642 109.343 27.6904 103.316 35.0898 103.316H99.5722C106.977 103.316 113.003 109.343 113.003 116.747V120.054C113.003 127.458 106.977 133.479 99.5722 133.479ZM35.0951 104.896C28.5619 104.896 23.2539 110.209 23.2539 116.742V120.048C23.2539 126.582 28.5672 131.89 35.0951 131.89H99.5774C106.111 131.89 111.424 126.576 111.424 120.048V116.742C111.424 110.209 106.111 104.896 99.5774 104.896H35.0951Z" fill="var(--fill-0, #232323)" style="fill:#232323;fill:color(display-p3 0.1375 0.1375 0.1375);fill-opacity:1;"/>
<path id="Vector_20" d="M22.456 114.549C30.0931 109.352 43.4501 110.181 49.6823 110.044C55.9146 109.907 85.9401 110.044 85.9401 110.044L87.9576 99.6289L43.6297 103.294C43.6297 103.294 33.8694 103.453 33.3941 103.453C32.9187 103.453 28.704 103.3 28.704 103.3L25.8362 108.137L23.5862 111.497L22.4454 114.549H22.456Z" fill="var(--fill-0, #232323)" style="fill:#232323;fill:color(display-p3 0.1375 0.1375 0.1375);fill-opacity:1;"/>
<path id="Vector_21" d="M22.9315 85.3005C18.3946 76.0261 11.6712 79.0419 13.0867 88.3691C14.5021 97.6963 21.8646 109.606 27.3785 107.974C34.0227 106.009 25.905 91.3743 22.9315 85.3005Z" fill="var(--fill-0, #F78426)" style="fill:#F78426;fill:color(display-p3 0.9686 0.5176 0.1490);fill-opacity:1;"/>
<path id="Vector_22" d="M22.2441 85.6443C21.1297 83.5052 19.2547 80.574 16.7249 80.5687C14.0788 80.9437 13.7936 84.4348 13.9045 86.6636C14.5647 93.1546 18.003 101.061 22.8145 105.513C24.5099 107.135 27.6207 108.218 28.7668 105.635C29.184 104.542 29.0995 103.105 28.8619 101.737C27.7052 96.0806 24.8532 90.8096 22.2441 85.6443ZM23.6226 84.9682C24.8954 87.6037 26.2369 90.2498 27.4834 92.9434C28.978 96.3341 30.5889 99.9308 30.7843 103.765C30.9639 109.591 25.2968 110.446 21.5364 107.024C16.2073 102.366 12.4257 93.799 11.9292 86.764C11.7285 83.6743 12.8113 79.0159 16.6509 78.8047C20.142 78.8469 22.2705 82.2218 23.6226 84.9682Z" fill="var(--fill-0, #232323)" style="fill:#232323;fill:color(display-p3 0.1375 0.1375 0.1375);fill-opacity:1;"/>
<path id="Vector_23" d="M104.791 72.3374C105.863 49.0616 101.12 15.8196 75.3096 10.0099C65.4173 7.71772 52.9898 9.81449 45.2048 15.9358C36.0413 23.0025 35.2385 34.1677 31.8214 44.9737C29.5926 52.5369 25.4201 59.2233 22.2354 66.3587C15.0789 82.0079 18.9291 101.845 36.58 107.248C50.7821 111.88 74.8395 110.702 87.6895 104.122C99.3723 98.2961 103.883 85.6891 104.781 72.4747L104.791 72.3374Z" fill="var(--fill-0, #F4D13D)" style="fill:#F4D13D;fill:color(display-p3 0.9569 0.8196 0.2392);fill-opacity:1;"/>
<path id="Vector_24" d="M72.7657 12.5299C86.408 14.1249 93.5486 26.1721 95.8513 31.0734C98.1541 35.9747 100.351 46.3687 102.411 53.689L104.925 55.3843C104.925 55.3843 101.946 42.7298 101.883 42.0379C101.819 41.346 98.0379 29.9484 98.0379 29.9484L93.2264 22.5648L88.473 16.19L83.1598 12.5299L77.4346 10.4648L72.771 12.5299H72.7657Z" fill="var(--fill-0, white)" style="fill:white;fill-opacity:1;"/>
<path id="Vector_25" opacity="0.32" d="M26.5602 57.5018C32.0055 52.5847 40.5088 53.9209 47.5174 56.8364C54.526 59.7518 58.5188 75.4855 54.0031 85.6894C49.4874 95.8934 51.1194 106.985 47.9399 108.717C44.7604 110.449 31.4192 105.49 31.4192 105.49L24.9705 100.647L20.909 93.7385L18.8439 87.5802V80.5769L19.8896 73.1352L26.5655 57.5071L26.5602 57.5018Z" fill="var(--fill-0, #FFF4C5)" style="fill:#FFF4C5;fill:color(display-p3 1.0000 0.9569 0.7725);fill-opacity:1;"/>
<path id="Vector_26" d="M57.1846 111.109C49.595 111.109 42.1797 110.184 36.2591 108.251C28.9442 106.012 23.4514 101.222 20.3828 94.4084C16.6171 86.0318 16.9498 75.379 21.2754 65.9197C22.3528 63.5008 23.5676 61.0977 24.7401 58.7738C27.0111 54.2634 29.3614 49.5998 30.8138 44.6774C31.5744 42.269 32.2135 39.8236 32.8261 37.4575C35.0549 28.8961 37.1622 20.8101 44.567 15.1008C52.2516 9.05868 64.9959 6.53937 75.5537 8.98473C87.4742 11.6677 96.0831 20.1763 101.127 34.2675C106.118 48.2054 106.229 64.1346 105.849 72.3843C105.849 72.3949 105.849 72.4055 105.849 72.416L105.838 72.5533C104.75 88.5987 98.6394 99.8431 88.1661 105.066C80.4814 109.001 68.6349 111.109 57.1846 111.109ZM67.0927 10.1625C59.2338 10.1625 51.227 12.5445 45.8609 16.7697C39.0214 22.046 37.0038 29.794 34.8701 37.9962C34.2468 40.3888 33.6025 42.8552 32.8314 45.3006C31.3314 50.3867 28.9389 55.1348 26.6256 59.7298C25.4636 62.0325 24.2647 64.4145 23.2031 66.7965C19.1205 75.717 18.793 85.7149 22.3105 93.5475C25.115 99.7902 30.1589 104.179 36.8929 106.244C51.3379 110.95 74.8407 109.519 87.2154 103.186C99.5636 97.028 103.012 83.053 103.731 72.4107L103.741 72.284C104.322 59.5396 103.974 17.5514 75.0837 11.0551C72.5169 10.4636 69.818 10.1731 67.098 10.1731L67.0927 10.1625Z" fill="var(--fill-0, #232323)" style="fill:#232323;fill:color(display-p3 0.1375 0.1375 0.1375);fill-opacity:1;"/>
<path id="Vector_27" d="M101.328 132.688H92.9412C89.0804 132.688 85.9431 129.55 85.9431 125.689V111.635C85.9431 97.3118 97.5731 85.6818 111.897 85.6818C115.757 85.6818 118.895 88.819 118.895 92.6798V115.116C118.895 124.813 111.025 132.682 101.328 132.682V132.688Z" fill="var(--fill-0, #CC7E62)" style="fill:#CC7E62;fill:color(display-p3 0.8000 0.4941 0.3843);fill-opacity:1;"/>
<path id="Vector_28" d="M101.326 133.481H92.9388C88.6449 133.481 85.1486 129.984 85.1486 125.691V111.636C85.1486 96.8903 97.1482 84.8906 111.894 84.8906C116.188 84.8906 119.685 88.387 119.685 92.6809V115.117C119.685 125.242 111.451 133.476 101.326 133.476V133.481ZM111.894 86.4751C98.0196 86.4751 86.733 97.7617 86.733 111.636V125.691C86.733 129.113 89.5164 131.896 92.9388 131.896H101.326C110.574 131.896 118.1 124.37 118.1 115.122V92.6862C118.1 89.2637 115.317 86.4804 111.894 86.4804V86.4751Z" fill="var(--fill-0, #232323)" style="fill:#232323;fill:color(display-p3 0.1375 0.1375 0.1375);fill-opacity:1;"/>
<path id="Vector_29" d="M47.6392 41.5514C53.8297 38.1466 56.8418 38.0471 62.8061 42.3226C64.1943 43.3137 63.6786 44.7246 62.4148 45.1703C59.3918 46.2433 50.9633 45.9763 47.683 44.6865C46.1609 44.0766 45.955 42.4786 47.6438 41.5456L47.6392 41.5514Z" fill="var(--fill-0, #F78426)" style="fill:#F78426;fill:color(display-p3 0.9686 0.5176 0.1490);fill-opacity:1;"/>
<path id="Vector_30" d="M47.2703 40.8992C52.6056 38.1294 56.4426 37.4088 61.7422 40.7526C62.5087 41.2535 63.3297 41.621 63.9446 42.3403C65.0825 43.6668 64.1456 45.6017 62.6218 46.0492L61.9599 46.2647C57.4037 47.2602 52.5957 47.1143 48.093 45.8195C47.6757 45.6471 47.1331 45.4937 46.7453 45.2012C44.9736 44.0075 45.4499 41.7456 47.2604 40.9056L47.2703 40.8992ZM47.9977 42.2119C47.0732 42.7482 46.978 43.5821 48.106 43.8896C49.7584 44.3791 51.5113 44.5229 53.2841 44.654C54.8411 44.7554 62.2265 45.1997 62.7784 43.7796C62.8735 43.5301 62.6497 43.1826 62.4063 42.9966C61.9649 42.6515 61.4496 42.2614 60.9744 41.9465C56.1633 38.4539 52.7885 39.273 47.9971 42.2067L47.9977 42.2119Z" fill="var(--fill-0, #232323)" style="fill:#232323;fill:color(display-p3 0.1375 0.1375 0.1375);fill-opacity:1;"/>
<path id="Vector_31" d="M56.9884 15.1467C57.4637 2.98856 61.9372 -0.808867 63.9812 6.37931C63.9812 6.37931 67.8261 0.543212 74.9404 1.25094C82.0493 1.95866 77.6551 14.1168 65.4706 14.703" fill="var(--fill-0, #F4D13D)" style="fill:#F4D13D;fill:color(display-p3 0.9569 0.8196 0.2392);fill-opacity:1;"/>
<path id="Vector_32" d="M65.5665 5.44189C74.186 -1.22869 77.0222 7.08974 74.9571 10.1636C72.892 13.2374 78.3637 7.62844 78.3637 7.62844V3.73068L76.494 2.25184L73.6579 1.17969H69.8182L65.5665 5.43661V5.44189Z" fill="var(--fill-0, white)" style="fill:white;fill-opacity:1;"/>
<path id="Vector_33" d="M56.1808 15.1123C56.0066 13.5278 56.0752 11.9328 56.2918 10.3483C56.6668 7.91352 57.1263 5.38366 58.5681 3.23407C59.6244 1.58095 61.7634 0.85209 63.2898 2.41543C64.2933 3.44004 64.7581 4.78156 65.1119 6.05441L63.0099 5.73223C64.9218 3.03865 67.7527 1.03167 70.9903 0.297539C74.5025 -0.457721 79.277 -0.0193637 79.4777 4.5122C79.52 6.39243 78.7806 7.98217 77.8721 9.3448C75.1627 13.306 70.1505 15.5453 65.4922 15.1281C65.2545 15.107 65.075 14.901 65.0961 14.658C65.1119 14.4573 65.2651 14.3042 65.4499 14.2672C68.3389 13.7443 71.0484 12.7672 73.2983 11.13C75.3264 9.63529 77.3228 7.14768 77.2278 4.62311C77.1274 3.48757 76.5306 2.78514 75.4215 2.52106C74.5923 2.34149 73.4304 2.36789 72.5114 2.46296C69.8389 2.81154 67.3724 4.27981 65.5767 6.28152C65.3602 6.52447 65.1172 6.81495 64.9693 7.02622C64.6155 7.56493 63.8919 7.71809 63.3479 7.36423C63.105 7.2005 62.9412 6.96811 62.862 6.70403C62.5029 5.72695 62.1807 4.47523 61.3092 3.98404C61.2987 3.98404 61.23 3.98404 61.0663 4.09495C60.3902 4.63895 60.0047 5.56322 59.635 6.43996C58.5575 9.19164 58.378 12.2602 57.797 15.1862C57.628 16.0946 56.2812 16.0418 56.1861 15.1228L56.1808 15.1123Z" fill="var(--fill-0, #232323)" style="fill:#232323;fill:color(display-p3 0.1375 0.1375 0.1375);fill-opacity:1;"/>
<path id="Vector_34" d="M54.3828 76.3203C33.2408 76.3203 34.6615 93.5646 43.1647 104.075C51.668 114.585 61.2329 113.286 65.4845 104.191C69.7362 95.0962 69.9739 76.3203 54.3828 76.3203Z" fill="var(--fill-0, #F78426)" style="fill:#F78426;fill:color(display-p3 0.9686 0.5176 0.1490);fill-opacity:1;"/>
<path id="Vector_35" d="M54.3797 77.0634C45.4011 76.8733 37.0774 80.8239 38.3186 91.0542C39.2375 98.591 45.38 107.607 52.753 110.026C64.4463 113.121 68.1012 96.9484 66.7174 88.2814C65.7192 81.5264 61.3989 77.0423 54.3797 77.0634ZM54.3797 75.5846C58.9694 75.4473 63.7597 77.4912 66.1681 81.5686C71.3863 89.718 69.1997 108.114 59.2334 111.885C52.1879 114.43 45.4856 109.048 41.5984 103.645C37.1672 97.4924 34.0405 88.1019 39.021 81.3785C42.5649 76.7307 48.8817 75.6744 54.3797 75.5846Z" fill="var(--fill-0, #232323)" style="fill:#232323;fill:color(display-p3 0.1375 0.1375 0.1375);fill-opacity:1;"/>
<path id="Vector_36" d="M105.896 86.3764C106.878 74.3714 107.116 59.5356 111.631 54.4336L109.476 51.8721L105.896 50.2031H104.163L104.517 58.3103L104.871 68.7044L104.163 75.7288L102.806 81.8131L102.42 86.3764L101.887 87.2478L105.896 86.3764Z" fill="var(--fill-0, #232323)" style="fill:#232323;fill:color(display-p3 0.1375 0.1375 0.1375);fill-opacity:1;"/>
<path id="Vector_37" d="M97.5834 132.51C97.5834 132.51 97.5517 132.51 97.5358 132.51C97.4936 132.504 93.5271 131.707 93.4056 126.943C93.3898 126.314 93.3634 125.665 93.337 124.983C93.168 120.589 92.962 115.117 94.6521 106.926C96.5957 97.4929 108.59 89.8188 118.863 91.4244C119.005 91.4456 119.106 91.5829 119.085 91.7255C119.063 91.8681 118.926 91.9684 118.783 91.9473C108.949 90.4104 97.0341 98.0211 95.175 107.031C93.5007 115.16 93.7067 120.594 93.8757 124.962C93.9021 125.644 93.9285 126.298 93.9444 126.927C94.0553 131.253 97.4988 131.96 97.6467 131.987C97.7893 132.013 97.8844 132.15 97.858 132.293C97.8316 132.42 97.7259 132.51 97.5992 132.51H97.5834Z" fill="var(--fill-0, #232323)" style="fill:#232323;fill:color(display-p3 0.1375 0.1375 0.1375);fill-opacity:1;"/>
<path id="Vector_38" d="M85.4598 125.599H32.9666C25.5407 125.599 22.4616 121.796 22.3296 121.633C22.2398 121.517 22.2609 121.353 22.3718 121.263C22.488 121.173 22.6517 121.194 22.7415 121.305C22.7732 121.342 25.8101 125.071 32.9613 125.071H85.4545C85.6024 125.071 85.7186 125.187 85.7186 125.335C85.7186 125.483 85.6024 125.599 85.4545 125.599H85.4598Z" fill="var(--fill-0, #232323)" style="fill:#232323;fill:color(display-p3 0.1375 0.1375 0.1375);fill-opacity:1;"/>
<path id="Vector_39" d="M101.693 52.6094C107.715 59.9345 111.227 66.2955 113.82 75.5021C116.555 84.3762 113.422 99.9064 104.237 94.9441C98.0368 91.4438 91.3588 84.8809 86.3136 79.4309" fill="var(--fill-0, #F4D13D)" style="fill:#F4D13D;fill:color(display-p3 0.9569 0.8196 0.2392);fill-opacity:1;"/>
<path id="Vector_40" d="M102.09 52.277C107.958 57.9916 111.952 65.4447 114.401 73.2237C116.091 77.9855 116.511 83.1456 115.494 88.115C114.733 92.3726 111.772 97.9503 106.624 97.1289C103.948 96.7089 101.866 95.0098 99.7224 93.5248C97.0709 91.566 94.6175 89.4103 92.2736 87.1592C89.9049 84.9303 87.7369 82.4999 86.0903 79.638C85.9282 79.3685 86.2707 79.0473 86.5298 79.2325C89.2562 81.082 91.5706 83.2675 93.8904 85.444C96.2252 87.6047 98.6466 89.6568 101.207 91.4778C103.414 92.8837 106.112 95.271 108.746 94.3827C111.251 93.4018 112.353 90.1313 112.947 87.5675C113.719 83.8641 113.722 79.8968 112.745 76.2189C111.726 72.4205 110.427 68.6557 108.698 65.1195C106.599 60.8288 103.931 56.9551 101.296 52.9296C100.962 52.4397 101.65 51.8236 102.097 52.275L102.09 52.277Z" fill="var(--fill-0, #232323)" style="fill:#232323;fill:color(display-p3 0.1375 0.1375 0.1375);fill-opacity:1;"/>
</g>
<circle id="Ellipse 17269" cx="47.2049" cy="36.1389" r="2" transform="rotate(-6.21412 47.2049 36.1389)" fill="var(--fill-0, #232323)" style="fill:#232323;fill:color(display-p3 0.1375 0.1375 0.1375);fill-opacity:1;"/>
<circle id="Ellipse 17270" cx="64.4314" cy="37.2796" r="2" transform="rotate(-6.21412 64.4314 37.2796)" fill="var(--fill-0, #232323)" style="fill:#232323;fill:color(display-p3 0.1375 0.1375 0.1375);fill-opacity:1;"/>
<path id="Vector 1416" d="M9.50012 38.9336C19.0001 41.9336 19.5001 50.4336 16.0001 56.9336C12.5001 63.4336 6.50012 62.4336 6.00012 59.4336" stroke="var(--stroke-0, #232323)" style="stroke:#232323;stroke:color(display-p3 0.1375 0.1375 0.1375);stroke-opacity:1;" stroke-width="2"/>
</g>
</svg>
