<svg preserveAspectRatio="none" width="100%" height="100%" overflow="visible" style="display: block;" viewBox="0 0 129 159" fill="none" xmlns="http://www.w3.org/2000/svg">
<g id="Group 1597882039">
<path id="Vector" d="M64.5 159C100.122 159 129 157.657 129 156C129 154.343 100.122 153 64.5 153C28.8776 153 0 154.343 0 156C0 157.657 28.8776 159 64.5 159Z" fill="var(--fill-0, #232323)" style="fill:#232323;fill:color(display-p3 0.1375 0.1375 0.1375);fill-opacity:1;"/>
<path id="Vector_2" d="M38.731 137.754H38.1712C26.1293 137.754 16.3532 127.978 16.3532 115.936V109.704C16.3532 99.2409 24.8459 90.7482 35.3086 90.7482H49.3047L49.3047 127.18C49.3047 133.016 44.5671 137.749 38.7363 137.749L38.731 137.754Z" fill="var(--fill-0, #6B6B6B)" style="fill:#6B6B6B;fill:color(display-p3 0.4208 0.4208 0.4208);fill-opacity:1;"/>
<path id="Vector_3" d="M38.7326 138.546H38.1728C25.7031 138.546 15.5625 128.4 15.5625 115.936V109.709C15.5625 98.8181 24.4197 89.9609 35.3102 89.9609H49.3063C49.7446 89.9609 50.0985 90.3148 50.0985 90.7532V127.185C50.0985 133.449 45.0018 138.546 38.7379 138.546H38.7326ZM35.3102 91.5401C25.2964 91.5401 17.147 99.6895 17.147 109.703V115.93C17.147 127.523 26.5798 136.956 38.1728 136.956H38.7326C44.1251 136.956 48.5088 132.572 48.5088 127.18V91.5401H35.3049H35.3102Z" fill="var(--fill-0, #232323)" style="fill:#232323;fill:color(display-p3 0.1375 0.1375 0.1375);fill-opacity:1;"/>
<path id="Vector_4" d="M32.0483 156.379H40.6836L40.6836 125.376H32.0483V156.379Z" fill="var(--fill-0, #9B5D42)" style="fill:#9B5D42;fill:color(display-p3 0.6078 0.3647 0.2588);fill-opacity:1;"/>
<path id="Vector_5" d="M40.6893 157.173H32.0539C31.6156 157.173 31.2617 156.819 31.2617 156.381V125.378C31.2617 124.94 31.6156 124.586 32.0539 124.586H40.6893C41.1277 124.586 41.4815 124.94 41.4815 125.378V156.381C41.4815 156.819 41.1277 157.173 40.6893 157.173ZM32.8462 155.589H39.8971V126.17H32.8462V155.589Z" fill="var(--fill-0, #232323)" style="fill:#232323;fill:color(display-p3 0.1375 0.1375 0.1375);fill-opacity:1;"/>
<path id="Vector_6" d="M40.6861 125.379H32.0508V141.884H40.6861V125.379Z" fill="var(--fill-0, #232323)" style="fill:#232323;fill:color(display-p3 0.1375 0.1375 0.1375);fill-opacity:1;"/>
<path id="Vector_7" d="M40.6893 142.675H32.0539C31.6156 142.675 31.2617 142.321 31.2617 141.883V125.378C31.2617 124.94 31.6156 124.586 32.0539 124.586H40.6893C41.1277 124.586 41.4815 124.94 41.4815 125.378V141.883C41.4815 142.321 41.1277 142.675 40.6893 142.675ZM32.8462 141.091H39.8971V126.17H32.8462V141.091Z" fill="var(--fill-0, #232323)" style="fill:#232323;fill:color(display-p3 0.1375 0.1375 0.1375);fill-opacity:1;"/>
<path id="Vector_8" d="M93.4154 156.379H102.051V125.376H93.4154V156.379Z" fill="var(--fill-0, #232323)" style="fill:#232323;fill:color(display-p3 0.1375 0.1375 0.1375);fill-opacity:1;"/>
<path id="Vector_9" d="M102.053 157.173H93.4172C92.9789 157.173 92.625 156.819 92.625 156.381V125.378C92.625 124.94 92.9789 124.586 93.4172 124.586H102.053C102.491 124.586 102.845 124.94 102.845 125.378V156.381C102.845 156.819 102.491 157.173 102.053 157.173ZM94.2042 155.589H101.255V126.17H94.2042V155.589Z" fill="var(--fill-0, #232323)" style="fill:#232323;fill:color(display-p3 0.1375 0.1375 0.1375);fill-opacity:1;"/>
<path id="Vector_10" d="M54.0131 156.379H62.6484L62.6484 125.376H54.0131V156.379Z" fill="var(--fill-0, #232323)" style="fill:#232323;fill:color(display-p3 0.1375 0.1375 0.1375);fill-opacity:1;"/>
<path id="Vector_11" d="M62.6541 157.173H54.0188C53.5804 157.173 53.2266 156.819 53.2266 156.381V125.378C53.2266 124.94 53.5804 124.586 54.0188 124.586H62.6541C63.0925 124.586 63.4463 124.94 63.4463 125.378V156.381C63.4463 156.819 63.0925 157.173 62.6541 157.173ZM54.811 155.589H61.8619V126.17H54.811V155.589Z" fill="var(--fill-0, #232323)" style="fill:#232323;fill:color(display-p3 0.1375 0.1375 0.1375);fill-opacity:1;"/>
<path id="Vector_12" d="M71.2123 156.379H79.8477V125.376H71.2123V156.379Z" fill="var(--fill-0, #9B5D42)" style="fill:#9B5D42;fill:color(display-p3 0.6078 0.3647 0.2588);fill-opacity:1;"/>
<path id="Vector_13" d="M79.8416 157.173H71.2063C70.7679 157.173 70.4141 156.819 70.4141 156.381V125.378C70.4141 124.94 70.7679 124.586 71.2063 124.586H79.8416C80.28 124.586 80.6339 124.94 80.6339 125.378V156.381C80.6339 156.819 80.28 157.173 79.8416 157.173ZM71.9985 155.589H79.0494V126.17H71.9985V155.589Z" fill="var(--fill-0, #232323)" style="fill:#232323;fill:color(display-p3 0.1375 0.1375 0.1375);fill-opacity:1;"/>
<path id="Vector_14" d="M79.8385 125.379H71.2031V141.884H79.8385V125.379Z" fill="var(--fill-0, #232323)" style="fill:#232323;fill:color(display-p3 0.1375 0.1375 0.1375);fill-opacity:1;"/>
<path id="Vector_15" d="M79.8416 142.675H71.2063C70.7679 142.675 70.4141 142.321 70.4141 141.883V125.378C70.4141 124.94 70.7679 124.586 71.2063 124.586H79.8416C80.28 124.586 80.6339 124.94 80.6339 125.378V141.883C80.6339 142.321 80.28 142.675 79.8416 142.675ZM71.9985 141.091H79.0494V126.17H71.9985V141.091Z" fill="var(--fill-0, #232323)" style="fill:#232323;fill:color(display-p3 0.1375 0.1375 0.1375);fill-opacity:1;"/>
<path id="Vector_16" d="M52.5416 53.668H89.8662C100.757 53.668 109.587 64.6641 109.587 78.2324V113.186C109.587 126.754 100.757 137.75 89.8662 137.75H52.5416C41.6511 137.75 32.8203 126.754 32.8203 113.186V78.2324C32.8203 64.6641 41.6511 53.668 52.5416 53.668Z" fill="var(--fill-0, #9B5D42)" style="fill:#9B5D42;fill:color(display-p3 0.6078 0.3647 0.2588);fill-opacity:1;"/>
<path id="Vector_17" d="M89.8694 138.545H52.5448C41.2317 138.545 32.0312 127.169 32.0312 113.189V78.2356C32.0312 64.2553 41.2317 52.8789 52.5448 52.8789H89.8694C101.182 52.8789 110.383 64.2553 110.383 78.2356V113.189C110.383 127.169 101.182 138.545 89.8694 138.545ZM52.5448 54.4581C42.1084 54.4581 33.6157 65.1215 33.6157 78.2303V113.184C33.6157 126.292 42.1084 136.956 52.5448 136.956H89.8694C100.306 136.956 108.798 126.292 108.798 113.184V78.2303C108.798 65.1215 100.306 54.4581 89.8694 54.4581H52.5448Z" fill="var(--fill-0, #232323)" style="fill:#232323;fill:color(display-p3 0.1375 0.1375 0.1375);fill-opacity:1;"/>
<path id="Vector_18" d="M90.5728 109.168H26.0958C19.1156 109.168 13.457 114.827 13.457 121.807V125.108C13.457 132.088 19.1156 137.746 26.0958 137.746H90.5728C97.553 137.746 103.212 132.088 103.212 125.108V121.807C103.212 114.827 97.553 109.168 90.5728 109.168Z" fill="var(--fill-0, #CC7E62)" style="fill:#CC7E62;fill:color(display-p3 0.8000 0.4941 0.3843);fill-opacity:1;"/>
<path id="Vector_19" d="M90.5721 138.546H26.0897C18.685 138.546 12.6641 132.519 12.6641 125.12V121.814C12.6641 114.409 18.6903 108.383 26.0897 108.383H90.5721C97.9768 108.383 104.003 114.409 104.003 121.814V125.12C104.003 132.525 97.9768 138.546 90.5721 138.546ZM26.095 109.962C19.5618 109.962 14.2538 115.275 14.2538 121.808V125.115C14.2538 131.648 19.567 136.956 26.095 136.956H90.5773C97.1106 136.956 102.424 131.643 102.424 125.115V121.808C102.424 115.275 97.1106 109.962 90.5773 109.962H26.095Z" fill="var(--fill-0, #232323)" style="fill:#232323;fill:color(display-p3 0.1375 0.1375 0.1375);fill-opacity:1;"/>
<path id="Vector_20" d="M13.4559 119.616C21.093 114.419 34.45 115.248 40.6822 115.11C46.9144 114.973 76.94 115.11 76.94 115.11L78.9575 104.695L34.6296 108.361C34.6296 108.361 24.8693 108.519 24.3939 108.519C23.9186 108.519 19.7039 108.366 19.7039 108.366L16.8361 113.204L14.5861 116.563L13.4453 119.616H13.4559Z" fill="var(--fill-0, #232323)" style="fill:#232323;fill:color(display-p3 0.1375 0.1375 0.1375);fill-opacity:1;"/>
<path id="Vector_21" d="M13.9313 90.3669C9.3945 81.0925 2.67113 84.1083 4.08658 93.4355C5.50203 102.763 12.8645 114.673 18.3784 113.041C25.0226 111.076 16.9049 96.4407 13.9313 90.3669Z" fill="var(--fill-0, #F78426)" style="fill:#F78426;fill:color(display-p3 0.9686 0.5176 0.1490);fill-opacity:1;"/>
<path id="Vector_22" d="M13.244 90.7107C12.1296 88.5717 10.2546 85.6404 7.72474 85.6351C5.07869 86.0101 4.79351 89.5012 4.90442 91.73C5.56461 98.221 9.00289 106.127 13.8144 110.58C15.5097 112.201 18.6206 113.284 19.7667 110.701C20.1839 109.608 20.0994 108.171 19.8617 106.804C18.7051 101.147 15.853 95.876 13.244 90.7107ZM14.6224 90.0346C15.8953 92.6701 17.2368 95.3162 18.4832 98.0098C19.9779 101.401 21.5888 104.997 21.7842 108.832C21.9638 114.657 16.2967 115.513 12.5363 112.09C7.20718 107.432 3.42559 98.8654 2.92913 91.8304C2.72843 88.7407 3.81115 84.0824 7.65083 83.8711C11.1419 83.9133 13.2704 87.2882 14.6224 90.0346Z" fill="var(--fill-0, #232323)" style="fill:#232323;fill:color(display-p3 0.1375 0.1375 0.1375);fill-opacity:1;"/>
<path id="Vector_23" d="M95.791 77.4038C96.8632 54.128 92.1204 20.886 66.3095 15.0763C56.4171 12.7841 43.9897 14.8809 36.2047 21.0022C27.0412 28.0689 26.2384 39.2341 22.8213 50.0401C20.5924 57.6033 16.42 64.2897 13.2352 71.4251C6.07876 87.0743 9.92902 106.912 27.5799 112.315C41.782 116.947 65.8394 115.769 78.6894 109.188C90.3722 103.363 94.8826 90.7555 95.7805 77.5411L95.791 77.4038Z" fill="var(--fill-0, #F4D13D)" style="fill:#F4D13D;fill:color(display-p3 0.9569 0.8196 0.2392);fill-opacity:1;"/>
<path id="Vector_24" d="M63.7656 17.5963C77.4078 19.1913 84.5485 31.2385 86.8512 36.1398C89.154 41.0411 91.3511 51.4352 93.4109 58.7554L95.9249 60.4507C95.9249 60.4507 92.9461 47.7962 92.8827 47.1043C92.8193 46.4124 89.0378 35.0148 89.0378 35.0148L84.2263 27.6312L79.4729 21.2564L74.1597 17.5963L68.4345 15.5312L63.7709 17.5963H63.7656Z" fill="var(--fill-0, white)" style="fill:white;fill-opacity:1;"/>
<path id="Vector_25" opacity="0.32" d="M17.5601 62.5682C23.0053 57.6511 31.5086 58.9874 38.5172 61.9028C45.5259 64.8182 49.5187 80.5519 45.003 90.7558C40.4872 100.96 42.1193 112.051 38.9398 113.783C35.7603 115.516 22.4191 110.556 22.4191 110.556L15.9704 105.713L11.9089 98.8049L9.84375 92.6466V85.6433L10.8895 78.2016L17.5654 62.5735L17.5601 62.5682Z" fill="var(--fill-0, #FFF4C5)" style="fill:#FFF4C5;fill:color(display-p3 1.0000 0.9569 0.7725);fill-opacity:1;"/>
<path id="Vector_26" d="M48.1844 116.175C40.5949 116.175 33.1796 115.251 27.259 113.318C19.9441 111.078 14.4513 106.288 11.3827 99.4748C7.61695 91.0982 7.94969 80.4454 12.2753 70.9861C13.3527 68.5672 14.5675 66.1641 15.74 63.8402C18.011 59.3298 20.3613 54.6662 21.8137 49.7438C22.5743 47.3354 23.2133 44.89 23.826 42.5239C26.0548 33.9625 28.1621 25.8765 35.5668 20.1672C43.2515 14.1251 55.9958 11.6058 66.5536 14.0511C78.4741 16.7342 87.083 25.2427 92.1269 39.3339C97.1179 53.2718 97.2288 69.201 96.8485 77.4507C96.8485 77.4613 96.8485 77.4719 96.8485 77.4824L96.838 77.6197C95.75 93.6651 89.6392 104.909 79.1659 110.133C71.4813 114.068 59.6348 116.175 48.1844 116.175ZM58.0926 15.2289C50.2337 15.2289 42.2269 17.6109 36.8608 21.8361C30.0212 27.1124 28.0037 34.8604 25.8699 43.0626C25.2467 45.4552 24.6024 47.9216 23.8312 50.367C22.3313 55.4531 19.9388 60.2012 17.6254 64.7962C16.4635 67.0989 15.2646 69.4809 14.203 71.8629C10.1204 80.7834 9.79293 90.7813 13.3104 98.6139C16.1149 104.857 21.1588 109.246 27.8928 111.311C42.3378 116.017 65.8406 114.585 78.2153 108.253C90.5635 102.094 94.0124 88.1194 94.7307 77.4771L94.7412 77.3504C95.3222 64.606 94.9736 22.6178 66.0836 16.1215C63.5167 15.53 60.8179 15.2395 58.0979 15.2395L58.0926 15.2289Z" fill="var(--fill-0, #232323)" style="fill:#232323;fill:color(display-p3 0.1375 0.1375 0.1375);fill-opacity:1;"/>
<path id="Vector_27" d="M92.3282 137.754H83.9411C80.0803 137.754 76.943 134.617 76.943 130.756V116.702C76.943 102.378 88.573 90.7482 102.896 90.7482C106.757 90.7482 109.895 93.8854 109.895 97.7462V120.182C109.895 129.879 102.025 137.749 92.3282 137.749V137.754Z" fill="var(--fill-0, #CC7E62)" style="fill:#CC7E62;fill:color(display-p3 0.8000 0.4941 0.3843);fill-opacity:1;"/>
<path id="Vector_28" d="M92.3258 138.547H83.9387C79.6448 138.547 76.1484 135.051 76.1484 130.757V116.703C76.1484 101.957 88.1481 89.957 102.894 89.957C107.188 89.957 110.684 93.4534 110.684 97.7473V120.183C110.684 130.308 102.45 138.542 92.3258 138.542V138.547ZM102.894 91.5415C89.0195 91.5415 77.7329 102.828 77.7329 116.703V130.757C77.7329 134.179 80.5163 136.963 83.9387 136.963H92.3258C101.574 136.963 109.1 129.437 109.1 120.189V97.7526C109.1 94.3302 106.317 91.5468 102.894 91.5468V91.5415Z" fill="var(--fill-0, #232323)" style="fill:#232323;fill:color(display-p3 0.1375 0.1375 0.1375);fill-opacity:1;"/>
<path id="Vector_29" d="M32.8458 45.4318C39.3685 42.7171 42.3737 42.9442 47.8401 47.8402C49.1129 48.9758 48.4474 50.3226 47.1429 50.6289C44.0215 51.3683 35.6714 50.1905 32.55 48.5532C31.1029 47.7821 31.0712 46.1713 32.8511 45.4266L32.8458 45.4318Z" fill="var(--fill-0, #F78426)" style="fill:#F78426;fill:color(display-p3 0.9686 0.5176 0.1490);fill-opacity:1;"/>
<path id="Vector_30" d="M32.551 44.7431C38.1547 42.5671 42.0472 42.2661 46.9537 46.1639C47.6615 46.7448 48.4378 47.199 48.9713 47.9807C49.9589 49.4226 48.8181 51.2447 47.2548 51.5246L46.5734 51.6672C41.9362 52.1637 37.1723 51.4982 32.8362 49.7236C32.4401 49.5071 31.9172 49.2958 31.5633 48.9631C29.9313 47.5846 30.6496 45.3875 32.5404 44.7484L32.551 44.7431ZM33.1319 46.1269C32.1549 46.56 31.97 47.3786 33.058 47.8064C34.6477 48.4719 36.3748 48.8046 38.123 49.1268C39.6599 49.3962 46.9537 50.6373 47.6562 49.2852C47.7777 49.0476 47.5928 48.6779 47.371 48.4666C46.9696 48.0758 46.4995 47.6321 46.0611 47.2677C41.6563 43.2749 38.2128 43.7238 33.1319 46.1216V46.1269Z" fill="var(--fill-0, #232323)" style="fill:#232323;fill:color(display-p3 0.1375 0.1375 0.1375);fill-opacity:1;"/>
<path id="Vector_31" d="M47.9883 20.2131C48.4636 8.05497 52.9371 4.25754 54.9811 11.4457C54.9811 11.4457 58.826 5.60962 65.9403 6.31734C73.0492 7.02507 68.655 19.1832 56.4705 19.7694" fill="var(--fill-0, #F4D13D)" style="fill:#F4D13D;fill:color(display-p3 0.9569 0.8196 0.2392);fill-opacity:1;"/>
<path id="Vector_32" d="M56.5664 10.5083C65.1859 3.83772 68.022 12.1561 65.957 15.23C63.8919 18.3039 69.3636 12.6948 69.3636 12.6948V8.79709L67.4939 7.31825L64.6577 6.24609H60.818L56.5664 10.503V10.5083Z" fill="var(--fill-0, white)" style="fill:white;fill-opacity:1;"/>
<path id="Vector_33" d="M47.1807 20.1787C47.0064 18.5942 47.0751 16.9992 47.2917 15.4147C47.6666 12.9799 48.1261 10.4501 49.568 8.30048C50.6243 6.64736 52.7633 5.9185 54.2897 7.48183C55.2932 8.50645 55.7579 9.84797 56.1118 11.1208L54.0098 10.7986C55.9217 8.10505 58.7526 6.09808 61.9902 5.36395C65.5024 4.60869 70.2769 5.04704 70.4776 9.5786C70.5198 11.4588 69.7804 13.0486 68.872 14.4112C66.1626 18.3724 61.1504 20.6117 56.4921 20.1945C56.2544 20.1734 56.0748 19.9674 56.096 19.7244C56.1118 19.5237 56.265 19.3706 56.4498 19.3336C59.3388 18.8107 62.0483 17.8337 64.2982 16.1964C66.3263 14.7017 68.3227 12.2141 68.2277 9.68951C68.1273 8.55398 67.5305 7.85155 66.4214 7.58747C65.5922 7.4079 64.4302 7.4343 63.5112 7.52936C60.8388 7.87795 58.3723 9.34622 56.5766 11.3479C56.36 11.5909 56.1171 11.8814 55.9692 12.0926C55.6154 12.6313 54.8918 12.7845 54.3478 12.4306C54.1048 12.2669 53.9411 12.0345 53.8619 11.7704C53.5027 10.7934 53.1806 9.54163 52.3091 9.05045C52.2986 9.05045 52.2299 9.05045 52.0662 9.16136C51.3901 9.70536 51.0046 10.6296 50.6348 11.5064C49.5574 14.258 49.3779 17.3266 48.7969 20.2526C48.6279 21.161 47.2811 21.1082 47.186 20.1892L47.1807 20.1787Z" fill="var(--fill-0, #232323)" style="fill:#232323;fill:color(display-p3 0.1375 0.1375 0.1375);fill-opacity:1;"/>
<path id="Vector_34" d="M45.3826 81.3867C24.2406 81.3867 25.6613 98.631 34.1646 109.141C42.6679 119.651 52.2328 118.352 56.4844 109.257C60.7361 100.163 60.9737 81.3867 45.3826 81.3867Z" fill="var(--fill-0, #F78426)" style="fill:#F78426;fill:color(display-p3 0.9686 0.5176 0.1490);fill-opacity:1;"/>
<path id="Vector_35" d="M45.3796 82.1298C36.401 81.9397 28.0773 85.8903 29.3184 96.1206C30.2374 103.657 36.3799 112.673 43.7529 115.092C55.4462 118.187 59.1011 102.015 57.7173 93.3478C56.7191 86.5928 52.3988 82.1087 45.3796 82.1298ZM45.3796 80.651C49.9693 80.5137 54.7596 82.5576 57.168 86.635C62.3862 94.7844 60.1996 113.18 50.2333 116.951C43.1878 119.497 36.4855 114.115 32.5983 108.712C28.1671 102.559 25.0404 93.1683 30.0209 86.4449C33.5648 81.7971 39.8815 80.7408 45.3796 80.651Z" fill="var(--fill-0, #232323)" style="fill:#232323;fill:color(display-p3 0.1375 0.1375 0.1375);fill-opacity:1;"/>
<path id="Vector_36" d="M96.8954 91.4428C97.8778 79.4379 98.1154 64.602 102.631 59.5L100.476 56.9385L96.8954 55.2695H95.1631L95.5169 63.3767L95.8708 73.7708L95.1631 80.7952L93.8057 86.8795L93.4202 91.4428L92.8867 92.3142L96.8954 91.4428Z" fill="var(--fill-0, #232323)" style="fill:#232323;fill:color(display-p3 0.1375 0.1375 0.1375);fill-opacity:1;"/>
<path id="Vector_37" d="M88.5859 57.2461C97.4536 60.6052 103.665 64.3762 110.494 71.0732C117.281 77.411 122.287 92.4423 111.851 92.7063C104.732 92.7539 95.6738 90.3825 88.5859 88.1642" fill="var(--fill-0, #F4D13D)" style="fill:#F4D13D;fill:color(display-p3 0.9569 0.8196 0.2392);fill-opacity:1;"/>
<path id="Vector_38" d="M88.7647 56.7611C96.6976 58.7998 103.87 63.2785 109.864 68.8083C113.699 72.0987 116.63 76.3662 118.22 81.183C119.678 85.255 119.884 91.5664 115.009 93.415C112.479 94.3815 109.828 93.9432 107.229 93.7213C103.954 93.3411 100.754 92.6914 97.6008 91.9045C94.4371 91.1492 91.3474 90.1193 88.4954 88.4556C88.2207 88.3025 88.3581 87.8535 88.675 87.8852C91.9601 88.1335 95.0551 88.8782 98.15 89.6123C101.25 90.3253 104.372 90.901 107.498 91.2073C110.113 91.3288 113.641 92.0576 115.484 89.9767C117.169 87.8799 116.498 84.4945 115.738 81.9752C114.565 78.3785 112.595 74.9349 109.917 72.2307C107.144 69.4421 104.145 66.8224 100.886 64.6148C96.93 61.937 92.6889 59.9036 88.4003 57.7224C87.8669 57.4636 88.1574 56.5868 88.77 56.7558L88.7647 56.7611Z" fill="var(--fill-0, #232323)" style="fill:#232323;fill:color(display-p3 0.1375 0.1375 0.1375);fill-opacity:1;"/>
<path id="Vector_39" d="M47.6864 41.9405C47.7604 42.12 47.8501 42.289 47.9452 42.4633C48.0297 42.6323 48.1406 42.7961 48.241 42.9651C48.3519 43.1235 48.4734 43.2873 48.5948 43.451C48.7322 43.6041 48.8536 43.7626 49.0015 43.9052C49.1494 44.0478 49.2973 44.201 49.4769 44.3224C49.6353 44.4545 49.8307 44.5759 50.0156 44.6869C50.4117 44.8981 50.8448 45.0566 51.3096 45.1252C51.7743 45.1939 52.2497 45.1622 52.688 45.0407C53.1264 44.9192 53.5384 44.7344 53.8922 44.502C54.2514 44.2696 54.563 43.9897 54.8482 43.6992C54.9908 43.5513 55.1228 43.3929 55.239 43.2292C55.2918 43.1446 55.3605 43.0707 55.4133 42.9809L55.4925 42.8489C55.5189 42.8066 55.5454 42.7644 55.577 42.7063C55.7302 42.4422 55.6351 42.1042 55.3605 41.9616C55.1651 41.8507 54.9432 41.8771 54.769 41.9933L54.6686 42.0619C54.6686 42.0619 54.6158 42.1147 54.5788 42.1359L54.489 42.2204C54.4257 42.2732 54.3623 42.3366 54.2989 42.3841C54.1721 42.4845 54.0348 42.5901 53.9133 42.6904C53.7919 42.7908 53.6546 42.8859 53.5172 42.9651C53.4539 43.0073 53.3799 43.0549 53.3218 43.0866L53.2215 43.1446L53.1264 43.1922C52.5824 43.4721 52.0384 43.6147 51.5103 43.5619C51.2462 43.5355 50.9768 43.4615 50.7127 43.3453C50.5807 43.2767 50.4487 43.2133 50.3166 43.1341C50.2532 43.0918 50.1846 43.0654 50.1212 43.0126L49.9258 42.8647C49.8624 42.8225 49.799 42.7591 49.7357 42.7063C49.6723 42.6535 49.6089 42.6006 49.5455 42.5478L49.1758 42.1993L48.8219 41.8295C48.7057 41.7028 48.5948 41.5655 48.4681 41.4387L48.447 41.4123C48.2674 41.2222 47.9716 41.2169 47.7921 41.3965C47.6283 41.5391 47.5966 41.7556 47.6706 41.9352L47.6864 41.9405Z" fill="var(--fill-0, #232323)" style="fill:#232323;fill:color(display-p3 0.1375 0.1375 0.1375);fill-opacity:1;"/>
<path id="Vector_40" d="M29.6747 39.1436C29.7486 39.3232 29.8384 39.4922 29.9335 39.6664C30.018 39.8355 30.1289 39.9992 30.2293 40.1682C30.3402 40.3266 30.4616 40.4904 30.5831 40.6541C30.7204 40.8073 30.8419 40.9657 30.9898 41.1083C31.1377 41.2509 31.2856 41.4041 31.4651 41.5255C31.6236 41.6576 31.819 41.7791 32.0039 41.89C32.4 42.1012 32.8331 42.2597 33.2978 42.3283C33.7626 42.397 34.2379 42.3653 34.6763 42.2438C35.1147 42.1224 35.5266 41.9375 35.8805 41.7051C36.2396 41.4727 36.5512 41.1928 36.8364 40.9023C36.979 40.7544 37.1111 40.596 37.2273 40.4323C37.2801 40.3478 37.3488 40.2738 37.4016 40.184L37.4808 40.052C37.5072 40.0098 37.5336 39.9675 37.5653 39.9094C37.7185 39.6453 37.6234 39.3073 37.3488 39.1647C37.1534 39.0538 36.9315 39.0802 36.7572 39.1964L36.6569 39.265C36.6569 39.265 36.6041 39.3179 36.5671 39.339L36.4773 39.4235C36.4139 39.4763 36.3506 39.5397 36.2872 39.5872C36.1604 39.6876 36.0231 39.7932 35.9016 39.8935C35.7802 39.9939 35.6428 40.089 35.5055 40.1682C35.4421 40.2105 35.3682 40.258 35.3101 40.2897L35.2098 40.3478L35.1147 40.3953C34.5707 40.6752 34.0267 40.8178 33.4985 40.765C33.2345 40.7386 32.9651 40.6647 32.701 40.5485C32.569 40.4798 32.4369 40.4164 32.3049 40.3372C32.2415 40.2949 32.1729 40.2685 32.1095 40.2157L31.9141 40.0678C31.8507 40.0256 31.7873 39.9622 31.7239 39.9094C31.6605 39.8566 31.5972 39.8038 31.5338 39.751L31.1641 39.4024L30.8102 39.0327C30.694 38.9059 30.5831 38.7686 30.4564 38.6418L30.4352 38.6154C30.2557 38.4253 29.9599 38.42 29.7803 38.5996C29.6166 38.7422 29.5849 38.9587 29.6589 39.1383L29.6747 39.1436Z" fill="var(--fill-0, #232323)" style="fill:#232323;fill:color(display-p3 0.1375 0.1375 0.1375);fill-opacity:1;"/>
<path id="Vector_41" d="M88.5832 137.576C88.5832 137.576 88.5515 137.576 88.5357 137.576C88.4934 137.571 84.527 136.773 84.4055 132.009C84.3897 131.381 84.3633 130.731 84.3369 130.05C84.1678 125.655 83.9619 120.184 85.652 111.992C87.5956 102.559 99.59 94.8853 109.863 96.4908C110.005 96.512 110.106 96.6493 110.084 96.7919C110.063 96.9345 109.926 97.0348 109.783 97.0137C99.9491 95.4768 88.034 103.087 86.1749 112.098C84.5006 120.226 84.7066 125.661 84.8756 130.029C84.902 130.71 84.9284 131.365 84.9442 131.993C85.0552 136.319 88.4987 137.027 88.6466 137.053C88.7892 137.079 88.8843 137.217 88.8579 137.359C88.8314 137.486 88.7258 137.576 88.5991 137.576H88.5832Z" fill="var(--fill-0, #232323)" style="fill:#232323;fill:color(display-p3 0.1375 0.1375 0.1375);fill-opacity:1;"/>
<path id="Vector_42" d="M76.4597 130.666H23.9664C16.5406 130.666 13.4615 126.863 13.3294 126.699C13.2397 126.583 13.2608 126.419 13.3717 126.329C13.4879 126.24 13.6516 126.261 13.7414 126.372C13.7731 126.409 16.81 130.137 23.9612 130.137H76.4544C76.6023 130.137 76.7185 130.254 76.7185 130.402C76.7185 130.549 76.6023 130.666 76.4544 130.666H76.4597Z" fill="var(--fill-0, #232323)" style="fill:#232323;fill:color(display-p3 0.1375 0.1375 0.1375);fill-opacity:1;"/>
<path id="Vector_43" d="M16.4978 32.7297C16.1809 32.7297 15.8904 32.5395 15.769 32.2438C15.6369 31.9321 15.7162 31.573 15.9644 31.3512L18.1774 29.3389L15.8323 28.7104C15.4098 28.5995 15.1616 28.1611 15.2725 27.7386C15.3834 27.3161 15.8218 27.0678 16.2443 27.1788L19.9836 28.1822C20.2636 28.2562 20.4801 28.478 20.5488 28.7579C20.6174 29.0379 20.5276 29.3336 20.3111 29.529L18.7002 30.9973L20.0153 30.9128C20.459 30.8917 20.8287 31.2191 20.8551 31.6522C20.8815 32.0853 20.5488 32.4656 20.1157 32.492L16.5506 32.7191C16.5506 32.7191 16.5189 32.7191 16.5031 32.7191L16.4978 32.7297Z" fill="var(--fill-0, #232323)" style="fill:#232323;fill:color(display-p3 0.1375 0.1375 0.1375);fill-opacity:1;"/>
<path id="Vector_44" d="M21.6703 22.4075C21.5119 22.4075 21.3534 22.36 21.2108 22.2596L17.8887 19.8988C17.6405 19.7192 17.5137 19.4182 17.5665 19.1171C17.6193 18.8161 17.8412 18.5731 18.1369 18.4886L24.9184 16.6137L20.7777 12.6578C20.4608 12.3568 20.4503 11.855 20.7513 11.5381C21.0524 11.2212 21.5541 11.2107 21.871 11.5117L27.0205 16.4341C27.2265 16.6295 27.311 16.9253 27.2423 17.1999C27.1737 17.4746 26.9571 17.6964 26.6825 17.7703L20.165 19.5713L22.1298 20.9657C22.4837 21.2192 22.5681 21.7156 22.3146 22.0695C22.1615 22.286 21.9185 22.4022 21.6703 22.4022V22.4075Z" fill="var(--fill-0, #232323)" style="fill:#232323;fill:color(display-p3 0.1375 0.1375 0.1375);fill-opacity:1;"/>
<path id="Vector_45" d="M30.2894 12.5C30.0147 12.5 29.7454 12.3574 29.5975 12.0986L26.7085 7.00191C26.5711 6.75896 26.5711 6.45792 26.7085 6.21497C26.8511 5.97202 27.1098 5.81885 27.3951 5.81885H34.1132L31.1872 1.21863C30.9548 0.848926 31.0604 0.357739 31.4302 0.125351C31.7999 -0.112318 32.2858 -0.00141013 32.5234 0.368298L36.2258 6.18857C36.379 6.43152 36.3895 6.74313 36.2522 6.99664C36.1149 7.25015 35.8455 7.4086 35.5603 7.4086H28.7577L30.976 11.3222C31.1925 11.7025 31.0605 12.1884 30.6749 12.3996C30.5534 12.4683 30.4161 12.5053 30.2841 12.5053L30.2894 12.5Z" fill="var(--fill-0, #232323)" style="fill:#232323;fill:color(display-p3 0.1375 0.1375 0.1375);fill-opacity:1;"/>
</g>
</svg>
