<svg width="1357" height="715" viewBox="0 0 1357 715" fill="none" xmlns="http://www.w3.org/2000/svg">
<path d="M170.065 -10.9783C252.3 109.821 131.817 230.62 68.0684 324.18C4.32028 417.74 -36.4785 570.516 47.0315 558.673C130.542 546.83 263.138 -33.4801 602.278 -51.2447C941.418 -69.0093 367.685 49.4213 455.657 242.463C543.63 435.505 778.223 133.51 999.429 4.42031C1220.63 -124.669 833.684 276.811 539.805 546.832C245.926 816.854 404.021 1065.56 608.015 812.117C812.009 558.673 1136.49 390.504 1281.2 728.031C1425.9 1065.56 1567.42 1109.38 1434.83 861.858C1302.23 614.338 1081.66 -18.0815 1272.27 -41.7676C1462.88 -65.4537 1509.41 -103.351 1571.25 480.511C1633.09 1064.37 1484.55 908.045 1420.17 655.788C1355.78 403.531 1490.93 139.431 1523.44 728.031C1555.95 1316.63 10.0578 1117.67 200.027 896.202C389.997 674.737 261.225 273.258 73.8059 728.031" stroke="#54db83" style="stroke:#54db83;stroke-opacity:1;"/>
</svg>
