<svg width="20" height="20" viewBox="0 0 20 20" fill="none" xmlns="http://www.w3.org/2000/svg">
<path d="M12.4006 14.2004L13.4353 15.6168C13.5324 15.7705 13.7191 15.8392 13.8895 15.7783C14.5325 15.5486 16.1264 14.9261 17.4387 13.9784C17.541 13.9045 17.6001 13.7813 17.5993 13.6542C17.5993 6.60039 15.6006 4.60039 15.6006 4.60039C15.6006 4.60039 14.0006 3.68209 12.2837 3.40521C12.1148 3.37796 11.9494 3.46846 11.8743 3.62352L11.5183 4.35781C11.5183 4.35781 10.6282 4.17157 9.59995 4.17157C8.57171 4.17157 7.68163 4.35781 7.68163 4.35781L7.32564 3.62352C7.25047 3.46846 7.08511 3.37796 6.91619 3.40521C5.20059 3.68189 3.60059 4.60039 3.60059 4.60039C3.60059 4.60039 1.60059 6.60039 1.60059 13.6542C1.59979 13.7813 1.65887 13.9045 1.76123 13.9784C3.07352 14.9261 4.66739 15.5486 5.3104 15.7783C5.48079 15.8392 5.66745 15.7705 5.76461 15.6168L6.80059 14.2004" stroke="#979797" stroke-width="1.2" stroke-linecap="round" stroke-linejoin="round"/>
<path d="M14.0007 13.4004C14.0007 13.4004 12.1646 14.6004 9.60069 14.6004C7.03675 14.6004 5.20068 13.4004 5.20068 13.4004" stroke="#979797" stroke-width="1.2" stroke-linecap="round" stroke-linejoin="round"/>
<path d="M13.8005 9.8002C13.8005 10.6839 13.1737 11.4002 12.4005 11.4002C11.6273 11.4002 11.0005 10.6839 11.0005 9.8002C11.0005 8.91652 11.6273 8.2002 12.4005 8.2002C13.1737 8.2002 13.8005 8.91652 13.8005 9.8002Z" stroke="#979797" stroke-width="1.2"/>
<path d="M8.2004 9.8002C8.2004 10.6839 7.57359 11.4002 6.80039 11.4002C6.0272 11.4002 5.40039 10.6839 5.40039 9.8002C5.40039 8.91652 6.0272 8.2002 6.80039 8.2002C7.57359 8.2002 8.2004 8.91652 8.2004 9.8002Z" stroke="#979797" stroke-width="1.2"/>
</svg>
