<svg width="20" height="20" viewBox="0 0 20 20" fill="none" xmlns="http://www.w3.org/2000/svg">
<path d="M9.6001 16.3998C11.0479 16.3998 12.4362 16.2568 13.7228 15.9945C15.3299 15.6669 16.1335 15.5031 16.8668 14.5603C17.6001 13.6175 17.6001 12.5352 17.6001 10.3706V8.829C17.6001 6.66439 17.6001 5.5821 16.8668 4.6393C16.1335 3.69651 15.3299 3.53271 13.7228 3.2051C12.4362 2.94282 11.0479 2.7998 9.6001 2.7998C8.15234 2.7998 6.76401 2.94282 5.47735 3.2051C3.87023 3.53271 3.06667 3.69651 2.33338 4.6393C1.6001 5.5821 1.6001 6.66439 1.6001 8.829V10.3706C1.6001 12.5352 1.6001 13.6175 2.33338 14.5603C3.06667 15.5031 3.87023 15.6669 5.47735 15.9945C6.76401 16.2568 8.15234 16.3998 9.6001 16.3998Z" stroke="#979797" stroke-width="1.2"/>
<path d="M12.7699 9.85012C12.6512 10.3348 12.0195 10.6828 10.7561 11.3791C9.38195 12.1362 8.69492 12.5148 8.13844 12.369C7.94996 12.3196 7.77636 12.2327 7.63059 12.1148C7.2002 11.7669 7.2002 11.0445 7.2002 9.5998C7.2002 8.15508 7.2002 7.4327 7.63059 7.08475C7.77636 6.96689 7.94996 6.88004 8.13844 6.83064C8.69492 6.68477 9.38195 7.06336 10.7561 7.82055C12.0195 8.51676 12.6512 8.86484 12.7699 9.34948C12.8103 9.51444 12.8103 9.68516 12.7699 9.85012Z" stroke="#979797" stroke-width="1.2" stroke-linejoin="round"/>
</svg>
