<svg xmlns="http://www.w3.org/2000/svg" width="2048" height="2048" viewBox="0 0 2048 2048" version="1.1"><path d="M 990 500.057 C 945.697 503.945, 904.145 514.211, 865.500 530.816 C 852.867 536.245, 826.965 550.020, 814.574 557.900 C 802.055 565.861, 786.872 577.022, 774.500 587.358 C 767.475 593.226, 743.499 617.057, 736.628 625 C 699.246 668.212, 671.770 724.050, 660.114 780.500 C 653.198 813.989, 652.009 829.627, 652.004 887.144 C 651.999 940.246, 651.261 951.426, 646.421 971.673 C 641.225 993.408, 628.186 1016.375, 613.277 1030.048 C 606.587 1036.185, 594.615 1045.048, 586.584 1049.812 L 581 1053.123 581 1149.562 L 581 1246 1024 1246 L 1467 1246 1467 1149.595 L 1467 1053.191 1461.250 1049.890 C 1458.088 1048.075, 1454.267 1045.894, 1452.759 1045.045 C 1440.159 1037.944, 1422.799 1021.407, 1414.292 1008.400 C 1408.162 999.026, 1401.216 983.181, 1398.480 972.326 C 1394.038 954.707, 1393.890 952.442, 1393.042 889 C 1392.316 834.774, 1391.968 825.667, 1390.093 812 C 1381.879 752.125, 1364.338 703.979, 1333.986 658 C 1328.430 649.583, 1316.620 633.347, 1315.074 632 C 1314.758 631.725, 1312.059 628.575, 1309.076 625 C 1301.148 615.499, 1279.943 594.515, 1269 585.340 C 1226.158 549.422, 1175.829 524.193, 1120 510.650 C 1086.806 502.598, 1065.404 499.991, 1028.500 499.505 C 1013.100 499.302, 995.775 499.550, 990 500.057 M 839.325 1366.595 C 838.542 1368.635, 839.739 1390.464, 841.101 1399 C 844.080 1417.664, 849.841 1435.922, 857.983 1452.500 C 862.938 1462.589, 870.900 1476.149, 872.956 1478 C 873.261 1478.275, 874.832 1480.300, 876.445 1482.500 C 878.058 1484.700, 883.006 1490.250, 887.439 1494.834 C 913.814 1522.102, 945.445 1538.487, 986.500 1546.149 C 1002.811 1549.194, 1038.767 1549.465, 1055.368 1546.670 C 1069.861 1544.229, 1090.298 1538.707, 1098.500 1535.016 C 1099.600 1534.521, 1104.056 1532.512, 1108.403 1530.552 C 1156.205 1508.998, 1191.113 1466.029, 1203.903 1413 C 1207.032 1400.026, 1208.171 1390.958, 1208.343 1377.646 L 1208.500 1365.500 1024.220 1365.247 C 856.051 1365.017, 839.886 1365.135, 839.325 1366.595" stroke="none" fill="#fbfbfb" fill-rule="evenodd"/><path d="M 0 1024 L 0 2048.001 1024.250 2047.750 L 2048.500 2047.500 2048.750 1023.750 L 2049.001 0 1024.500 0 L 0 0 0 1024 M 0.498 1024.500 C 0.498 1587.700, 0.611 1817.950, 0.750 1536.167 C 0.889 1254.384, 0.889 793.584, 0.750 512.167 C 0.611 230.750, 0.498 461.300, 0.498 1024.500 M 990 500.057 C 945.697 503.945, 904.145 514.211, 865.500 530.816 C 852.867 536.245, 826.965 550.020, 814.574 557.900 C 802.055 565.861, 786.872 577.022, 774.500 587.358 C 767.475 593.226, 743.499 617.057, 736.628 625 C 699.246 668.212, 671.770 724.050, 660.114 780.500 C 653.198 813.989, 652.009 829.627, 652.004 887.144 C 651.999 940.246, 651.261 951.426, 646.421 971.673 C 641.225 993.408, 628.186 1016.375, 613.277 1030.048 C 606.587 1036.185, 594.615 1045.048, 586.584 1049.812 L 581 1053.123 581 1149.562 L 581 1246 1024 1246 L 1467 1246 1467 1149.595 L 1467 1053.191 1461.250 1049.890 C 1458.088 1048.075, 1454.267 1045.894, 1452.759 1045.045 C 1440.159 1037.944, 1422.799 1021.407, 1414.292 1008.400 C 1408.162 999.026, 1401.216 983.181, 1398.480 972.326 C 1394.038 954.707, 1393.890 952.442, 1393.042 889 C 1392.316 834.774, 1391.968 825.667, 1390.093 812 C 1381.879 752.125, 1364.338 703.979, 1333.986 658 C 1328.430 649.583, 1316.620 633.347, 1315.074 632 C 1314.758 631.725, 1312.059 628.575, 1309.076 625 C 1301.148 615.499, 1279.943 594.515, 1269 585.340 C 1226.158 549.422, 1175.829 524.193, 1120 510.650 C 1086.806 502.598, 1065.404 499.991, 1028.500 499.505 C 1013.100 499.302, 995.775 499.550, 990 500.057 M 839.325 1366.595 C 838.542 1368.635, 839.739 1390.464, 841.101 1399 C 844.080 1417.664, 849.841 1435.922, 857.983 1452.500 C 862.938 1462.589, 870.900 1476.149, 872.956 1478 C 873.261 1478.275, 874.832 1480.300, 876.445 1482.500 C 878.058 1484.700, 883.006 1490.250, 887.439 1494.834 C 913.814 1522.102, 945.445 1538.487, 986.500 1546.149 C 1002.811 1549.194, 1038.767 1549.465, 1055.368 1546.670 C 1069.861 1544.229, 1090.298 1538.707, 1098.500 1535.016 C 1099.600 1534.521, 1104.056 1532.512, 1108.403 1530.552 C 1156.205 1508.998, 1191.113 1466.029, 1203.903 1413 C 1207.032 1400.026, 1208.171 1390.958, 1208.343 1377.646 L 1208.500 1365.500 1024.220 1365.247 C 856.051 1365.017, 839.886 1365.135, 839.325 1366.595" stroke="none" fill="#e31c44" fill-rule="evenodd"/></svg>