<svg viewBox="0 0 90 90" xmlns="http://www.w3.org/2000/svg"><path d="M68.806 36.483V16.116a5.86 5.86 0 0 0-.787-2.947 6.07 6.07 0 0 0-2.091-2.158L48.194.853A5.48 5.48 0 0 0 45.251 0a5.351 5.351 0 0 0-2.904.853L24.665 11.011a5.94 5.94 0 0 0-2.09 2.08h-.078a6.08 6.08 0 0 0-.736 2.947v20.445c.013.39.052.779.116 1.163a4.695 4.695 0 0 0-1.29.569L2.942 48.399a6.16 6.16 0 0 0-2.13 2.171A5.628 5.628 0 0 0 0 53.517v20.315a5.628 5.628 0 0 0 .813 2.947v.116a6.07 6.07 0 0 0 2.13 2.107l17.643 10.21c.895.518 1.91.79 2.943.788a5.765 5.765 0 0 0 2.943-.789l17.695-10.21c.296-.183.577-.39.839-.62.31.233.607.44.903.62l17.644 10.21a5.84 5.84 0 0 0 2.943.789 5.906 5.906 0 0 0 2.942-.789l17.696-10.21a5.386 5.386 0 0 0 2.078-2.157 5.73 5.73 0 0 0 .787-3.012V53.517a5.744 5.744 0 0 0-.787-2.947 6.032 6.032 0 0 0-2.078-2.158L69.438 38.254a2.128 2.128 0 0 0-.787-.388c.103-.454.155-.917.155-1.383M85.714 52.6c.15.282.225.598.22.918v20.315a1.88 1.88 0 0 1-.22.905c-.133.294-.36.535-.645.685l-17.67 10.274a1.535 1.535 0 0 1-.632.22V65.38a3.554 3.554 0 0 0-2.04-3.347l-17.566-9.266a.155.155 0 0 0 .117-.168 2.82 2.82 0 0 1 .67-.737.916.916 0 0 0 .246-.103l17.398-10.042c.244-.154.525-.239.813-.245.298 0 .589.085.84.245L85.12 51.862c.263.178.483.412.646.685M26.769 14.513 44.386 4.368a1.87 1.87 0 0 1 .865-.323c.294-.006.583.08.826.246l17.747 10.222c.253.19.468.427.632.698.184.265.28.582.272.905v20.367c.007.323-.088.64-.272.905-.164.27-.379.508-.632.698L46.154 48.23a2.825 2.825 0 0 1-.593.297V27.98a3.622 3.622 0 0 0-.555-1.939 3.474 3.474 0 0 0-1.471-1.422l-17.58-9.24a.44.44 0 0 0 .13-.168c.187-.27.418-.505.684-.698m-3.24 27.01c.305.001.605.086.865.246l17.734 10.093a2.4 2.4 0 0 1 .62.685c.149.283.224.598.219.918v20.484a1.737 1.737 0 0 1-.22.84 1.537 1.537 0 0 1-.62.685L24.459 85.696a1.535 1.535 0 0 1-.632.22V65.38a4.036 4.036 0 0 0-.49-1.938 3.796 3.796 0 0 0-1.55-1.409L4.196 52.767a.18.18 0 0 0 .129-.168c.179-.287.411-.537.684-.737h.09l17.566-10.145c.263-.149.564-.216.865-.194Z" fill="#00AD9F"/></svg>