<svg xmlns="http://www.w3.org/2000/svg" xmlns:xlink="http://www.w3.org/1999/xlink" width="462" height="404" version="1.1" viewBox="0 0 462 404"><defs><linearGradient id="linear0" x1="464.53" x2="1224.15" y1="-2595.19" y2="-2986.92" gradientTransform="matrix(0.249968,0,0,-0.249968,150.980393,-561.725816)" gradientUnits="userSpaceOnUse"><stop offset="0" style="stop-color:#ffeb2e;stop-opacity:1"/><stop offset=".92" style="stop-color:#fe9030;stop-opacity:1"/></linearGradient><linearGradient id="linear1" x1="-580.88" x2="121.11" y1="-2987.18" y2="-2623.18" gradientTransform="matrix(0.249968,0,0,-0.249968,150.980393,-561.725816)" gradientUnits="userSpaceOnUse"><stop offset=".06" style="stop-color:#0068e5;stop-opacity:1"/><stop offset="1" style="stop-color:#0ad9ff;stop-opacity:1"/></linearGradient><linearGradient id="linear2" x1="1063.69" x2="436.27" y1="-3644.95" y2="-3207.53" gradientTransform="matrix(0.249968,0,0,-0.249968,150.980393,-561.725816)" gradientUnits="userSpaceOnUse"><stop offset="0" style="stop-color:#ef0a36;stop-opacity:1"/><stop offset="1" style="stop-color:#ff978a;stop-opacity:1"/></linearGradient><linearGradient id="linear3" x1="-389.76" x2="266.37" y1="-3622.02" y2="-3164.64" gradientTransform="matrix(0.249968,0,0,-0.249968,150.980393,-561.725816)" gradientUnits="userSpaceOnUse"><stop offset="0" style="stop-color:#7914ef;stop-opacity:1"/><stop offset="1" style="stop-color:#db69ff;stop-opacity:1"/></linearGradient></defs><g id="surface1"><path style="stroke:none;fill-rule:nonzero;fill:url(#linear0)" d="M 437.566406 160.457031 C 437.566406 192.628906 411.488281 218.730469 379.324219 218.730469 L 239.71875 218.730469 C 239.71875 116.257812 317.625 31.976562 417.445312 21.886719 C 428.53125 20.769531 437.585938 29.886719 437.585938 41.027344 Z M 437.566406 160.457031"/><path style="stroke:none;fill-rule:nonzero;fill:url(#linear1)" d="M 24.640625 160.457031 C 24.640625 192.628906 50.722656 218.730469 82.882812 218.730469 L 222.492188 218.730469 C 222.492188 116.257812 144.589844 31.976562 44.777344 21.886719 C 33.695312 20.769531 24.640625 29.886719 24.640625 41.027344 Z M 24.640625 160.457031"/><path style="stroke:none;fill-rule:nonzero;fill:url(#linear2)" d="M 269.425781 338.792969 C 249.960938 308.039062 239.65625 272.375 239.71875 235.976562 L 381.667969 235.976562 C 412.507812 235.976562 437.574219 260.675781 437.574219 291.0625 C 437.566406 380.972656 317.730469 415.246094 269.425781 338.792969 Z M 269.425781 338.792969"/><path style="stroke:none;fill-rule:nonzero;fill:url(#linear3)" d="M 192.78125 338.792969 C 212.25 308.039062 222.554688 272.375 222.492188 235.976562 L 80.546875 235.976562 C 49.707031 235.976562 24.640625 260.675781 24.640625 291.0625 C 24.640625 380.972656 144.480469 415.246094 192.78125 338.792969 Z M 192.78125 338.792969"/></g></svg>