<?xml version="1.0" encoding="utf-8"?>
<svg version="1.1" id="Layer_1" xmlns="http://www.w3.org/2000/svg" xmlns:xlink="http://www.w3.org/1999/xlink" x="0px" y="0px" viewBox="0 0 21.5 22.2" style="enable-background:new 0 0 21.5 22.2;" xml:space="preserve">
<path fill="#004097" d="M13.1,15.4c-2.2,0-4.2-1.8-4.3-5.1C8.7,7.5,11.2,6.1,12,6.8c1.1,0.9-0.1,2-0.1,2l3.8,2.6l5.7-6.1 c-2-3.4-5.8-5.5-9.7-5.4C4.4,0,0,5.2,0,11.3c0,6.1,5.7,10.9,12.7,10.9h7.6v-4.6v-3.8h-4.6C15.3,14.8,14.3,15.5,13.1,15.4z"/>
<path fill="#FCCF00" d="M13.4,17.4c-5.1,0-6.7-4.7-6.7-7.2s1.5-5.6,4.8-5.6s3.4,2.1,3.4,2.7c0,0.3-0.1,0.6-0.3,0.9c0,0.1,0,0.1,0.1,0.1 L15,8.6c0.1,0.1,0.2,0.1,0.3,0.1c0.1,0,0.2,0,0.3-0.1l3.1-3.2c-1.8-2.1-4.4-3.3-7.1-3.3C7,2.1,2,5.3,2,11.1c0,3.8,3.7,9,10.4,9H18 v-4.4h-1C17,15.7,16.4,17.4,13.4,17.4z"/>
</svg>
