<svg xmlns="http://www.w3.org/2000/svg" xmlns:svg="http://www.w3.org/2000/svg" id="svg4575" width="1000" height="196.721" class="o-icon o-icon--logo" preserveAspectRatio="xMidYMid meet" version="1.1" viewBox="0 0 1000 196.721"><metadata id="metadata4581"/><defs id="defs4579"><clipPath id="clipPath4959" clipPathUnits="userSpaceOnUse"><path id="path4957" d="M 288.661,0 H 409.606 V 90.708 H 288.661 Z"/></clipPath><clipPath id="clipPath4947" clipPathUnits="userSpaceOnUse"><path id="path4945" d="m 304.78,27.566 h 88.707 V 63.142 H 304.78 Z"/></clipPath><clipPath id="clipPath4927" clipPathUnits="userSpaceOnUse"><path id="path4925" d="m 304.78,27.566 h 88.707 V 63.142 H 304.78 Z"/></clipPath><clipPath id="clipPath16191" clipPathUnits="userSpaceOnUse"><path id="path16189" d="m 393.951,734.87 h 143.753 v 37.583 H 393.951 Z"/></clipPath><clipPath id="clipPath16167" clipPathUnits="userSpaceOnUse"><path id="path16165" d="m 357.165,716.457 h 217.323 v 74.409 H 357.165 Z"/></clipPath></defs><style id="style4856"/><g id="g16372" transform="scale(8.1967213)" style="fill:#686058;fill-opacity:1"><path style="fill-rule:evenodd;fill:#686058;fill-opacity:1" id="path16361" d="m 9.838,5.834 c 2.773,0 4.863,0.701 6.27,2.104 1.407,1.403 2.11,3.497 2.11,6.282 v 1.575 H 1.852 c 0.04,2.2 0.597,3.82 1.67,4.86 1.073,1.04 2.712,1.559 4.92,1.559 h 1.335 c 1.64,0 2.955,-0.252 3.947,-0.757 0.992,-0.505 1.68,-1.252 2.065,-2.24 h 1.943 c -0.405,1.554 -1.275,2.74 -2.611,3.557 C 13.785,23.59 12.024,24 9.838,24 H 8.38 C 5.607,24 3.517,23.299 2.11,21.896 0.703,20.493 0,18.399 0,15.613 V 14.22 C 0,11.435 0.703,9.341 2.11,7.938 3.517,6.535 5.607,5.834 8.38,5.834 Z m 20.741,0 c 2.47,0 4.403,0.56 5.8,1.68 1.396,1.12 2.226,2.79 2.49,5.01 H 37.016 C 36.753,10.85 36.09,9.614 35.027,8.816 33.965,8.019 32.462,7.62 30.518,7.62 h -1.336 c -2.247,0 -3.907,0.545 -4.98,1.635 -1.072,1.09 -1.609,2.776 -1.609,5.056 v 1.211 c 0,2.282 0.537,3.967 1.61,5.057 1.072,1.09 2.732,1.635 4.98,1.635 h 1.335 c 1.944,0 3.447,-0.399 4.51,-1.196 1.062,-0.797 1.725,-2.034 1.988,-3.71 h 1.852 c -0.263,2.221 -1.093,3.891 -2.49,5.012 -1.396,1.12 -3.33,1.68 -5.799,1.68 h -1.457 c -2.774,0 -4.864,-0.701 -6.27,-2.104 -1.408,-1.403 -2.11,-3.497 -2.11,-6.283 V 14.22 c 0,-2.785 0.702,-4.879 2.11,-6.282 1.406,-1.403 3.496,-2.104 6.27,-2.104 z m 20.51,0 c 2.773,0 4.863,0.701 6.27,2.104 1.407,1.403 2.11,3.497 2.11,6.282 v 1.393 c 0,2.786 -0.703,4.88 -2.11,6.283 C 55.953,23.299 53.863,24 51.09,24 h -1.457 c -2.774,0 -4.864,-0.701 -6.27,-2.104 -1.407,-1.403 -2.11,-3.497 -2.11,-6.283 V 14.22 c 0,-2.785 0.703,-4.879 2.11,-6.282 1.406,-1.403 3.496,-2.104 6.27,-2.104 H 51.09 Z M 64.137,0 v 8.62 c 0.627,-0.929 1.482,-1.625 2.565,-2.09 1.083,-0.464 2.404,-0.696 3.962,-0.696 h 1.458 c 2.773,0 4.863,0.701 6.27,2.104 1.407,1.403 2.11,3.497 2.11,6.282 v 1.393 c 0,2.786 -0.703,4.88 -2.11,6.283 C 76.985,23.299 74.895,24 72.122,24 h -1.458 c -2.773,0 -4.863,-0.701 -6.27,-2.104 -1.407,-1.403 -2.11,-3.497 -2.11,-6.283 V 0 Z m 28.741,5.834 c 2.773,0 4.863,0.701 6.27,2.104 1.407,1.403 2.11,3.497 2.11,6.282 v 1.575 H 84.894 c 0.04,2.2 0.596,3.82 1.67,4.86 1.072,1.04 2.712,1.559 4.919,1.559 h 1.336 c 1.64,0 2.955,-0.252 3.947,-0.757 0.992,-0.505 1.68,-1.252 2.065,-2.24 h 1.943 c -0.405,1.554 -1.275,2.74 -2.611,3.557 C 96.826,23.59 95.064,24 92.878,24 h -1.457 c -2.774,0 -4.864,-0.701 -6.27,-2.104 -1.407,-1.403 -2.11,-3.497 -2.11,-6.283 V 14.22 c 0,-2.785 0.703,-4.879 2.11,-6.282 1.406,-1.403 3.496,-2.104 6.27,-2.104 z m 20.742,0 c 2.772,0 4.863,0.701 6.27,2.104 1.406,1.403 2.11,3.497 2.11,6.282 v 1.575 h -16.366 c 0.04,2.2 0.597,3.82 1.67,4.86 1.073,1.04 2.712,1.559 4.919,1.559 h 1.336 c 1.64,0 2.955,-0.252 3.947,-0.757 0.992,-0.505 1.68,-1.252 2.065,-2.24 h 1.943 c -0.405,1.554 -1.275,2.74 -2.611,3.557 C 117.567,23.591 115.806,24 113.62,24 h -1.458 c -2.774,0 -4.863,-0.701 -6.27,-2.104 -1.407,-1.403 -2.11,-3.497 -2.11,-6.283 V 14.22 c 0,-2.785 0.703,-4.879 2.11,-6.282 1.407,-1.403 3.496,-2.104 6.27,-2.104 z M 51.029,7.62 h -1.336 c -2.247,0 -3.907,0.545 -4.98,1.635 -1.073,1.09 -1.61,2.776 -1.61,5.056 v 1.211 c 0,2.282 0.537,3.967 1.61,5.057 1.073,1.09 2.733,1.635 4.98,1.635 h 1.336 c 2.246,0 3.906,-0.545 4.98,-1.635 1.072,-1.09 1.608,-2.775 1.608,-5.057 v -1.21 c 0,-2.281 -0.536,-3.967 -1.609,-5.057 C 54.935,8.165 53.275,7.62 51.028,7.62 Z m 21.032,0 h -1.336 c -2.246,0 -3.907,0.545 -4.98,1.635 -1.072,1.09 -1.608,2.776 -1.608,5.056 v 1.211 c 0,2.282 0.536,3.967 1.609,5.057 1.072,1.09 2.733,1.635 4.98,1.635 h 1.335 c 2.247,0 3.907,-0.545 4.98,-1.635 1.073,-1.09 1.61,-2.775 1.61,-5.057 v -1.21 c 0,-2.281 -0.537,-3.967 -1.61,-5.057 C 75.968,8.165 74.308,7.62 72.061,7.62 Z m -62.284,0 H 8.441 c -2.207,0 -3.846,0.52 -4.919,1.56 -1.073,1.04 -1.63,2.649 -1.67,4.829 h 14.514 c -0.04,-2.18 -0.597,-3.79 -1.67,-4.83 C 13.623,8.14 11.983,7.62 9.777,7.62 Z m 83.04,0 h -1.335 c -2.207,0 -3.847,0.52 -4.92,1.56 -1.073,1.04 -1.629,2.649 -1.67,4.829 h 14.514 c -0.04,-2.18 -0.597,-3.79 -1.67,-4.83 C 96.663,8.14 95.024,7.62 92.818,7.62 Z m 20.742,0 h -1.336 c -2.207,0 -3.846,0.52 -4.92,1.56 -1.072,1.04 -1.629,2.649 -1.669,4.829 h 14.514 c -0.041,-2.18 -0.597,-3.79 -1.67,-4.83 -1.073,-1.039 -2.713,-1.559 -4.92,-1.559 z"/></g></svg>