<svg xmlns="http://www.w3.org/2000/svg" xmlns:svg="http://www.w3.org/2000/svg" id="svg2" width="399.764" height="400" aria-labelledby="navbar-fanatical-logo" preserveAspectRatio="xMinYMid" version="1.1" viewBox="0 0 399.764 400"><g id="g2" fill="none"><path id="path1" fill="#ff9800" d="m 2.8756,166.0056 h 284.671 a 2.9981,2.9981 0 0 0 2.7221,-1.7424 l 25.8632,-56.0452 c 0.6946,-1.504 0.0391,-3.2867 -1.464,-3.9817 a 2.9968,2.9968 0 0 0 -1.258,-0.2767 L 24.4917,103.9952 C 58.4482,42.0187 124.261,0 199.882,0 c 110.3917,0 199.882,89.543 199.882,200 0,110.457 -89.4903,200 -199.882,200 C 89.4902,400 0,310.457 0,200 0,188.412 0.985,177.054 2.8756,166.0056 Z M 125.9256,328 c 0,2.2091 1.7898,4 3.9977,4 h 5.1722 l 62.8312,-79.0111 h 49.4291 a 2.9981,2.9981 0 0 0 2.722,-1.7422 l 25.835,-55.976 a 3.0015,3.0015 0 0 0 0.2761,-1.2577 c 0,-1.6569 -1.3423,-3 -2.9982,-3 H 125.9257 V 328 Z"/></g></svg>