<svg xmlns="http://www.w3.org/2000/svg" xmlns:svg="http://www.w3.org/2000/svg" id="svg14" width="203.556" height="203.555" version="1.1" viewBox="0 0 203.556 203.555"><metadata id="metadata20"/><desc id="desc2">Fastmail</desc><path id="path6" fill="#69b3e7" d="M 168.6788,57.190848 A 80.391313,80.391313 0 0 1 34.908803,146.39084 l -17.81,11.86 A 101.78194,101.78194 0 0 0 186.4788,45.340848 Z"/><path id="path8" fill="#0067b9" d="M 21.158803,101.42084 A 80.39,80.39 0 0 1 168.6788,57.190848 l 17.8,-11.86 A 101.78471,101.78471 0 1 0 17.098803,158.25084 l 17.81,-11.86 a 80,80 0 0 1 -13.75,-44.97 z"/><path id="path10" fill="#333e48" d="M 53.158803,133.68084 H 146.5288 a 3.41,3.41 0 0 0 3.41,-3.41 V 69.190848 Z"/><path id="path12" fill="#ffc107" d="M 101.5488,101.42084 53.158803,69.190848 v 64.519992 z" class="opacity"/></svg>