<?xml version="1.0" encoding="UTF-8"?>
<svg xmlns="http://www.w3.org/2000/svg" width="38" height="38" viewBox="0 0 38 38" fill="none">
  <g id="Logo">
    <path id="Vector" d="M37.5923 0V25.3333C37.5923 28.6933 36.2718 31.9139 33.9223 34.2902C31.5727 36.6652 28.3854 38 25.0614 38H20.0488V12.6667C20.0488 9.30669 21.3693 6.0861 23.7188 3.70979C26.0697 1.33479 29.2557 0 32.5797 0H37.5923Z" fill="#7D5FE6"/>
    <path id="Vector_2" d="M0 20.2666H5.0126C8.33655 20.2666 11.5226 21.6014 13.8734 23.9764C16.223 26.3514 17.5434 29.5733 17.5434 32.9333V38.0002H12.5308C9.20689 38.0002 6.02084 36.6654 3.67001 34.2904C1.32047 31.9141 0 28.6922 0 25.3335V20.2666Z" fill="#7D5FE6"/>
  </g>
</svg>
