<svg xmlns="http://www.w3.org/2000/svg" xmlns:xlink="http://www.w3.org/1999/xlink" id="Layer_1" x="0" y="0" enable-background="new 0 183 500 127" version="1.1" viewBox="4.4 197.87 81.3 99.27" xml:space="preserve"><g><linearGradient id="SVGID_1_" x1="35.9" x2="35.9" y1="490.1" y2="404" gradientTransform="matrix(0.5128 0 0 -0.5128 -1.525879e-005 449.2308)" gradientUnits="userSpaceOnUse"><stop offset="0" style="stop-color:#09f"/><stop offset="1" style="stop-color:#03f"/></linearGradient><path fill="url(#SVGID_1_)" d="M19.1,242.1l13.3-5.6v-24.5c0-7.7-6.3-14-14-14l0,0c-7.7,0-14,6.3-14,14V235 c0.3,0.1,0.6,0.3,0.9,0.4L19.1,242.1z"/><linearGradient id="SVGID_2_" x1="35.9" x2="35.9" y1="344.1" y2="296.667" gradientTransform="matrix(0.5128 0 0 -0.5128 -1.525879e-005 449.2308)" gradientUnits="userSpaceOnUse"><stop offset="0" style="stop-color:#09f"/><stop offset="1" style="stop-color:#03f"/></linearGradient><path fill="url(#SVGID_2_)" d="M4.4,278.7v4.4c0,7.7,6.3,14,14,14l0,0c7.7,0,14-6.3,14-14v-3.6l-14-6.8L4.4,278.7z"/><linearGradient id="SVGID_3_" x1="63.2" x2="166.969" y1="408.483" y2="408.483" gradientTransform="matrix(0.5128 0 0 -0.5128 -1.525879e-005 449.2308)" gradientUnits="userSpaceOnUse"><stop offset="0" style="stop-color:#09f"/><stop offset="1" style="stop-color:#03f"/></linearGradient><path fill="url(#SVGID_3_)" d="M52.7,258.2l23-9.7c8-3.4,12-11.9,9-19l0,0c-3-7.1-11.9-10.2-19.9-6.7l-32.3,13.7v12.1L52.7,258.2z"/><linearGradient id="SVGID_4_" x1="37.3" x2="63.171" y1="403.2" y2="403.2" gradientTransform="matrix(0.5128 0 0 -0.5128 -1.525879e-005 449.2308)" gradientUnits="userSpaceOnUse"><stop offset="0" style="stop-color:#09f"/><stop offset="1" style="stop-color:#03f"/></linearGradient><polygon fill="url(#SVGID_4_)" points="32.4 248.5 32.4 236.5 19.1 242.1"/><linearGradient id="SVGID_5_" x1="8.6" x2="35.863" y1="344.85" y2="344.85" gradientTransform="matrix(0.5128 0 0 -0.5128 -1.525879e-005 449.2308)" gradientUnits="userSpaceOnUse"><stop offset="0" style="stop-color:#09f"/><stop offset="1" style="stop-color:#03f"/></linearGradient><polygon fill="url(#SVGID_5_)" points="4.4 266.1 4.4 278.7 18.4 272.8"/><linearGradient id="SVGID_6_" x1="63.2" x2="167.046" y1="335.095" y2="335.095" gradientTransform="matrix(0.5128 0 0 -0.5128 -1.525879e-005 449.2308)" gradientUnits="userSpaceOnUse"><stop offset="0" style="stop-color:#09f"/><stop offset="1" style="stop-color:#03f"/></linearGradient><path fill="url(#SVGID_6_)" d="M76.5,269.7l-23.8-11.5l-20.3,8.6v12.7l31.9,15.4c7.7,3.7,16.7,1.1,20.1-5.8l0,0 C87.7,282.1,84.2,273.4,76.5,269.7z"/><linearGradient id="SVGID_7_" x1="35.9" x2="63.2" y1="343.3" y2="343.3" gradientTransform="matrix(0.5128 0 0 -0.5128 -1.525879e-005 449.2308)" gradientUnits="userSpaceOnUse"><stop offset="0" style="stop-color:#09f"/><stop offset="1" style="stop-color:#03f"/></linearGradient><polygon fill="url(#SVGID_7_)" points="18.4 272.8 32.4 279.5 32.4 266.8"/><linearGradient id="SVGID_8_" x1="8.6" x2="37.3" y1="404.75" y2="404.75" gradientTransform="matrix(0.5128 0 0 -0.5128 -1.525879e-005 449.2308)" gradientUnits="userSpaceOnUse"><stop offset="0" style="stop-color:#09f"/><stop offset="1" style="stop-color:#03f"/></linearGradient><path fill="url(#SVGID_8_)" d="M19.1,242.1l-13.8-6.7c-0.3-0.2-0.6-0.3-0.9-0.4v13.3L19.1,242.1z"/><linearGradient id="SVGID_9_" x1="63.2" x2="102.7" y1="373.6" y2="373.6" gradientTransform="matrix(0.5128 0 0 -0.5128 -1.525879e-005 449.2308)" gradientUnits="userSpaceOnUse"><stop offset="0" style="stop-color:#09f"/><stop offset="1" style="stop-color:#03f"/></linearGradient><polygon fill="url(#SVGID_9_)" points="32.4 266.8 52.7 258.2 32.4 248.5"/><linearGradient id="SVGID_10_" x1="35.9" x2="35.9" y1="404" y2="344.1" gradientTransform="matrix(0.5128 0 0 -0.5128 -1.525879e-005 449.2308)" gradientUnits="userSpaceOnUse"><stop offset="0" style="stop-color:#09f"/><stop offset="1" style="stop-color:#03f"/></linearGradient><polygon fill="url(#SVGID_10_)" points="19.1 242.1 4.4 248.3 4.4 266.1 18.4 272.8 32.4 266.8 32.4 248.5"/><linearGradient id="SVGID_11_" x1="35.9" x2="35.9" y1="490.1" y2="296.6" gradientTransform="matrix(0.5128 0 0 -0.5128 -1.525879e-005 449.2308)" gradientUnits="userSpaceOnUse"><stop offset="0" style="stop-color:#09f"/><stop offset="1" style="stop-color:#03f"/></linearGradient><path fill="url(#SVGID_11_)" d="M4.4,211.9v71.2c0,7.7,6.3,14,14,14l0,0 c7.7,0,14-6.3,14-14v-71.2c0-7.7-6.3-14-14-14l0,0C10.7,197.9,4.4,204.2,4.4,211.9z" enable-background="new" opacity=".8"/></g></svg>