<svg xmlns="http://www.w3.org/2000/svg" xmlns:svg="http://www.w3.org/2000/svg" width="320" height="280" version="1.1"><g class="layer"><title>Layer 1</title><g id="Layer1000"><g id="Layer1002"><g id="Layer1003"><path id="path7" fill="#2a5e00" fill-rule="evenodd" d="m123.08,34.29c-66.43,0 -120.27,53.85 -120.27,120.27c0,66.43 53.85,120.27 120.27,120.27c66.47,0 120.32,-53.85 120.32,-120.27c0,-66.43 -53.85,-120.27 -120.32,-120.27zm0,215.67c-52.67,0 -95.36,-42.73 -95.36,-95.4c0,-52.67 42.68,-95.4 95.36,-95.4c52.72,0 95.4,42.73 95.4,95.4c0,52.67 -42.68,95.4 -95.4,95.4z"/><g id="Layer1004"><g id="Layer1005"><path id="path8" fill="#2a5e00" fill-rule="evenodd" d="m138.72,146.29l59.61,-41.47l7.78,33.7l-67.39,7.78z"/><path id="path9" fill="#2a5e00" fill-rule="evenodd" d="m110.88,146.29l-59.61,-41.47l-7.78,33.7l67.39,7.78z"/></g><path id="path10" fill="#2a5e00" fill-rule="evenodd" d="m43.95,192.02l74.62,49.75l87.12,-78.8l-161.75,29.05z"/></g><path id="path11" fill="#2a5e00" fill-rule="evenodd" d="m94.24,59.29l-30.48,-55.1l54.26,33.24l-23.79,21.86z"/><path id="path12" fill="#2a5e00" fill-rule="evenodd" d="m202.64,78.1l30.43,-55.1l-54.22,33.24l23.79,21.86z"/></g><path id="path13" fill="#2a5e00" fill-rule="evenodd" d="m275.63,274.67l29.35,0l0,-240.76l-29.35,0l0,240.76z"/><path id="path14" fill="#2a5e00" fill-rule="evenodd" d="m317.94,125.93c0,15.3 -12.33,27.63 -27.63,27.63c-15.26,0 -27.63,-12.33 -27.63,-27.63c0,-15.26 12.37,-27.63 27.63,-27.63c15.3,0 27.63,12.37 27.63,27.63z"/><path id="path15" fill="#2a5e00" fill-rule="evenodd" d="m288.84,33.91l-41.76,0l16.76,45.99l23.58,0l1.42,-45.99z"/></g></g></g></svg>