<?xml version="1.0" encoding="utf-8"?>
<!--Generator: Adobe Illustrator 26.0.2, SVG Export Plug-In . SVG Version: 6.00 Build 0)-->
<svg version="1.1" id="Ebene_1" xmlns="http://www.w3.org/2000/svg" xmlns:xlink="http://www.w3.org/1999/xlink" x="0px" y="0px" viewBox="0 0 229.2 229.2" style="enable-background:new 0 0 229.2 229.2;" xml:space="preserve">
  <style type="text/css">
    .st0{fill-rule:evenodd;clip-rule:evenodd;fill:#1E1F1D;}
	.st1{fill-rule:evenodd;clip-rule:evenodd;fill:#FBDE2A;}
  </style>
  <g>
    <path class="st1" d="M224.9,114.6c0,60.8-49.5,110.3-110.3,110.3c-60.8,0-110.3-49.5-110.3-110.3C4.3,53.7,53.7,4.3,114.6,4.3
		c16.8,0,32.8,3.8,47,10.5l-18.3,23.6c-8.9-3.4-18.6-5.2-28.7-5.2c-42.9,0-78.2,33.3-81.2,75.5c-0.1,0.9-0.1,1.7-0.1,2.6
		c0,1.1-0.1,2.2-0.1,3.4c0,44.9,36.5,81.4,81.4,81.4c44.9,0,81.4-36.5,81.4-81.4c0-6-0.7-11.9-1.9-17.5l21.3-27.4
		C221.5,83.4,224.9,98.6,224.9,114.6"/>
    <path class="st0" d="M202.4,47.9l-83.8,108l-53.2-47.6l19.3-21.6l30.1,26.9l67.1-86.4C189.6,33.2,196.5,40.1,202.4,47.9"/>
  </g>
</svg>
