<svg version="1.1" id="Layer_1" xmlns="http://www.w3.org/2000/svg" xmlns:xlink="http://www.w3.org/1999/xlink" x="0px" y="0px" viewBox="-371.5 104.6 120.4 114.3" style="enable-background:new -371.5 104.6 120.4 114.3;" xml:space="preserve">
 <style type="text/css">
  .st0{fill:#283576;}
	.st1{fill:#14ACE4;}
 </style>
 <title>
  Pentagon FCU_Bank
 </title>
 <desc>
  Created with Sketch.
 </desc>
 <g id="Page-1">
  <g id="FI-logos-51-100">
   <g id="Pentagon-FCU_Bank">
    <path id="Shape" class="st0" d="M-371.5,146.6l23.8,72h36.8c0,0,1.8-1.3,6.3-14.9c4.6-13.6,6-18.5,6-18.5H-324l-8.9-26.7
				l20.4-14.8l-15.5-11.4c0,0-10.3-8.7-14-7.1C-345.6,126.8-371.5,146.6-371.5,146.6L-371.5,146.6z">
    </path>
    <path id="Shape_1_" class="st0" d="M-338.9,122.7c0,0,1.9-1.5,14.9,7.9s39.8,29.2,39.8,29.2l3.1-8.7l-42.4-30.6
				C-323.5,120.6-330.4,114.5-338.9,122.7L-338.9,122.7z">
    </path>
    <path id="Shape_2_" class="st0" d="M-329,115.4c0,0,1.9-1.5,14.9,7.9c9.1,6.6,24.7,18.1,33.5,24.6c3.9,2.8,3.6-8.2,3.6-8.2
				l-36.4-26.4C-313.4,113.3-320.4,107.3-329,115.4L-329,115.4z">
    </path>
    <path id="Shape_3_" class="st0" d="M-319.8,108.8c0,0,1.9-1.5,14.9,7.9c7.5,5.4,19.3,14.1,28.3,20.7c6.7,4.9,2.1-9.2,2.1-9.2
				l-29.7-21.5C-304.2,106.8-311.2,100.7-319.8,108.8L-319.8,108.8z">
    </path>
    <path id="Shape_4_" class="st1" d="M-277.9,125.7c0,0,2,1.4-3,16.7c-1.3,3.9-2.8,8.7-4.5,13.9l-10.8,33c-1.6,5.1-3.1,10-4.3,13.8
				c-4.9,15.4-7.3,15.3-7.3,15.3c11,1.3,14.6-10.2,14.6-10.2l22.1-68.5C-271.1,139.8-267.5,131.2-277.9,125.7L-277.9,125.7z">
    </path>
    <path id="Shape_5_" class="st1" d="M-267.8,133.1c0,0,2,1.4-3,16.7c-1.3,3.9-2.8,8.7-4.5,13.9l-9,27.6c-1.6,5.1-2.7,8.6-3.9,12.4
				c-4.9,15.4-8.7,14.8-8.7,14.8c11.8,1.4,15.7-9.6,15.7-9.6l19.3-58.9C-261.8,150.1-257.3,138.7-267.8,133.1L-267.8,133.1z">
    </path>
    <path id="Shape_6_" class="st1" d="M-257.7,140c0,0,2.2,1.4-1.5,12.6c-1.3,3.9-1.9,5.9-3.6,11.2l-9,27.6
				c-1.6,5.1-2.7,8.6-3.9,12.4c-4.9,15.4-8.7,14.8-8.7,14.8c11.8,1.4,14.7-6.3,14.7-6.3l17.7-54.1
				C-252.2,158.2-247.3,145.6-257.7,140L-257.7,140z">
    </path>
   </g>
  </g>
 </g>
</svg>