<svg xmlns="http://www.w3.org/2000/svg" width="918" height="833" fill="none" viewBox="0 0 918 833"><g clip-path="url(#clip0_11864_192591)"><g clip-path="url(#clip1_11864_192591)"><path fill="url(#paint0_linear_11864_192591)" fill-rule="evenodd" d="M369.025 783.591C403.919 846.321 493.528 849.718 533.145 789.813L902.547 231.232C941.721 171.996 904.24 92.5773 833.301 84.5058L107.232 1.89232C29.8225 -6.91551 -25.2938 74.7083 12.3576 142.396L369.025 783.591Z" clip-rule="evenodd"/><path fill="url(#paint1_linear_11864_192591)" d="M389.854 725.08L422.638 676.182L671.66 300.021C693.433 267.133 672.652 223.014 633.259 218.491L15.25 147.539L335.396 723.082C347.08 743.681 376.623 744.814 389.854 725.08Z"/></g></g><defs><linearGradient id="paint0_linear_11864_192591" x1="830.496" x2="239.715" y1="783.548" y2="-235.266" gradientUnits="userSpaceOnUse"><stop offset=".066" stop-color="#8EFFEE"/><stop offset=".45" stop-color="#C9C7FF"/><stop offset="1" stop-color="#7341FF"/></linearGradient><linearGradient id="paint1_linear_11864_192591" x1="884.537" x2="57.242" y1="-908.44" y2="861.083" gradientUnits="userSpaceOnUse"><stop offset=".48" stop-color="#6D4AFF"/><stop offset=".994" stop-color="#00F0C3"/></linearGradient><clipPath id="clip0_11864_192591"><rect width="918" height="833" fill="#fff"/></clipPath><clipPath id="clip1_11864_192591"><rect width="918.147" height="831.529" fill="#fff" transform="translate(0.226562 1.23438)"/></clipPath></defs></svg>