<svg xmlns="http://www.w3.org/2000/svg" aria-label="Racket Coach" role="img" viewBox="0 0 24 24"><title>Racket Coach</title><g fill="#16a34a"><path fill-rule="evenodd" d="M9 1.5a7 7 0 1 0 0 14A7 7 0 0 0 9 1.5Zm0 2a5 5 0 1 1 0 10A5 5 0 0 1 9 3.5Z"/><rect width="9.6" height=".5" x="4.2" y="8.4" rx=".25"/><rect width="9.6" height=".5" x="4.2" y="9.6" rx=".25"/><rect width=".5" height="9.6" x="8.4" y="4.2" rx=".25"/><rect width=".5" height="9.6" x="9.6" y="4.2" rx=".25"/><path d="M13.05 13.05 L14.5 11.6 L21.4 18.5 L18.5 21.4 L11.6 14.5 Z"/></g></svg>