<svg xmlns="http://www.w3.org/2000/svg" xmlns:graph="ns_graphs;" xmlns:i="ns_ai;" xmlns:x="ns_extend;" xmlns:xlink="http://www.w3.org/1999/xlink" id="Layer_1" x="0" style="enable-background:new 0 0 70.5 33.5" y="0" version="1.1" viewBox="0 0 70.5 33.5" xml:space="preserve"><style type="text/css">.st0{fill:#007dc5}</style><metadata><sfw xmlns="ns_sfw;"><slices/><sliceSourceBounds width="70.5" height="33.5" x="-228.2" y="-213.4" bottomLeftOrigin="true"/></sfw></metadata><g><path d="M26,33.5h7.4V14.8c0-1-0.4-2-1.1-2.6l-11-11C20.7,0.4,19.7,0,18.7,0H0v7.4h20.4c3.1,0,5.6,2.5,5.6,5.6V33.5z" class="st0"/><path d="M44.5,33.5h-7.4V14.8c0-1,0.4-2,1.1-2.6l11-11C49.9,0.4,50.8,0,51.8,0h18.7v7.4H50.1c-3.1,0-5.6,2.5-5.6,5.6 V33.5z" class="st0"/></g></svg>