<svg viewBox="0 0 512 512" xmlns="http://www.w3.org/2000/svg">
<circle cx="256" cy="256" r="256" fill="black"/>
<polygon points="329.2,191.3 451.6,191.3 451.6,157.8 285.7,157.8 285.7,354.2 453.4,354.2 453.4,317.3 329.2,317.3" fill="white"/>
<rect x="365.1" y="235.1" width="70.4" height="36.9" fill="#ED1C24"/>
<path d="M58.4,317.3c0,28.9,14.4,36.9,46.3,36.9h116.6c35.2,0,46.7-9.5,46.7-46.4v-27c0-36.9-11.6-46.4-46.7-46.4H104.7v-42.8h122.5v18h38.4v-8.8c0-33.9-13-43-46.4-43H113c-35.2,0-46.4,9.5-46.4,46.4v21.7c0,36.9,11.2,46.4,46.4,46.4h116.7v44.9H58.4z" fill="white"/>
</svg>
