<svg xmlns="http://www.w3.org/2000/svg" viewBox="0 0 720 720" style="enable-background:new 0 0 720 720"><defs><style type="text/css">.st0{fill:#e20074}</style></defs><g><g><g><polygon points="96.62 469.28 223.57 469.28 223.57 342.31 96.62 342.31 96.62 469.28" class="st0"/><path d="M402.16,82.88c103.43,1.82,165.08,70.76,174.17,196.81l33.57-5.44l-6.41-221.3H102.88l-6.31,221.3 l33.53,5.44c9.09-126.05,69.86-194.99,174.17-196.81v463.44c0,84.34-14.53,97.97-105.21,98.87v35.35h308.34v-35.35 c-90.68-0.9-105.23-14.53-105.23-98.87V82.88L402.16,82.88z" class="st0"/><polygon points="481.85 469.28 608.78 469.28 608.78 342.31 481.85 342.31 481.85 469.28" class="st0"/></g></g></g></svg>