<svg xmlns="http://www.w3.org/2000/svg" xmlns:graph="ns_graphs;" xmlns:i="ns_ai;" xmlns:x="ns_extend;" xmlns:xlink="http://www.w3.org/1999/xlink" id="Layer_1" x="0" style="enable-background:new 0 0 76.8 65" y="0" version="1.1" viewBox="0 0 76.8 65" xml:space="preserve"><style type="text/css">.st0{fill-rule:evenodd;clip-rule:evenodd}</style><metadata><sfw xmlns="ns_sfw;"><slices/><sliceSourceBounds width="76.8" height="65" x="248.9" y="-138.9" bottomLeftOrigin="true"/></sfw></metadata><path d="M25.3,4.8L0,13v23.5l25.3-8.2c2-0.6,4.1-0.6,6.1,0.1l9.3,3.2c2,0.7,4.1,0.7,6.1,0.1l29.9-8.2V0L46.8,8.2	c-2,0.6-4.1,0.6-6.1-0.1l-9.3-3.2C29.5,4.3,27.3,4.2,25.3,4.8z M25.3,33.3L0,41.5V65l25.3-8.2c2-0.6,4.1-0.6,6.1,0.1l9.3,3.2	c2,0.7,4.1,0.7,6.1,0.1L76.8,52V28.5l-29.9,8.2c-2,0.6-4.1,0.6-6.1-0.1l-9.3-3.2C29.5,32.8,27.3,32.7,25.3,33.3z" class="st0"/></svg>