<svg width="24" height="24" viewBox="0 0 24 24" fill="none" xmlns="http://www.w3.org/2000/svg">
<g transform="translate(0.75 2) scale(1.25)">
<path d="M14.2822 0.763148C13.4966 0.279911 12.596 0.0174457 11.6751 0.000753683C10.7532 -0.0150137 9.84335 0.216861 9.04194 0.673182L8.3797 1.04325L7.71746 0.673182C6.87529 0.200155 5.91812 -0.0280005 4.95248 0.0137414C3.98788 0.0564068 3.05389 0.366196 2.25635 0.910621C1.46521 1.43002 0.837275 2.16366 0.446806 3.0253C0.0554108 3.88787 -0.0828028 4.84226 0.0479788 5.78007C0.522857 9.41954 3.22468 12.7511 8.07818 15.6839C8.26739 15.798 8.50391 15.798 8.6931 15.6839C10.1623 14.8121 11.5376 13.7909 12.7963 12.6352C12.9187 12.5304 12.9938 12.3792 13.0031 12.2169C13.0124 12.0555 12.9549 11.8969 12.8445 11.7782C12.7332 11.6604 12.5792 11.5917 12.4169 11.5899C12.2555 11.588 12.0997 11.653 11.9866 11.7689C10.8754 12.7882 9.66784 13.6962 8.37963 14.48C4.04352 11.7922 1.63683 8.81491 1.21846 5.628C1.12015 4.9092 1.22681 4.17554 1.52825 3.51517C1.82875 2.85386 2.31107 2.29182 2.91858 1.89391C3.53537 1.47377 4.25788 1.23447 5.00358 1.20199C5.74928 1.17046 6.48943 1.34761 7.14053 1.71303L8.09029 2.24449C8.27023 2.34652 8.49097 2.34652 8.67183 2.24449L9.62158 1.71303C10.2393 1.36336 10.9396 1.18528 11.6491 1.19826C12.3596 1.21032 13.0524 1.41252 13.6581 1.78445C14.2526 2.13321 14.7423 2.63589 15.0762 3.23877C15.411 3.84165 15.5771 4.52336 15.5576 5.21248C15.5529 5.37016 15.6114 5.5232 15.7199 5.63729C15.8275 5.7523 15.9768 5.81908 16.1345 5.82279C16.4619 5.83206 16.7355 5.57421 16.7448 5.24588C16.7726 4.34713 16.5593 3.45673 16.1261 2.66848C15.693 1.88011 15.0558 1.22252 14.2823 0.763406L14.2822 0.763148Z" fill="black" style="fill:black;fill-opacity:1;"/>
<path d="M16.6507 7.15128H12.1059C11.9195 7.15221 11.7433 7.23939 11.631 7.38872L10.8566 8.40247L9.61742 5.19718C9.55157 4.96809 9.354 4.80113 9.11656 4.7733C8.87912 4.74641 8.64817 4.86512 8.53225 5.07381L6.78949 7.16052H4.47446C4.14705 7.16052 3.88086 7.42671 3.88086 7.75411C3.88086 8.08245 4.14705 8.34771 4.47446 8.34771H7.13639C7.34972 8.34864 7.54635 8.23456 7.65116 8.04906L8.87359 6.88613L10.0497 9.85849C10.1136 10.0718 10.2908 10.2323 10.5106 10.274C10.7295 10.313 10.953 10.2267 11.0894 10.0505L12.4027 8.33833H16.6507C16.9781 8.33833 17.2443 8.07306 17.2443 7.74473C17.2443 7.41733 16.9781 7.15128 16.6507 7.15128Z" fill="black" style="fill:black;fill-opacity:1;"/>
</g>
</svg>
