<svg width="198" height="115" viewBox="138 32 198 115" fill="none" xmlns="http://www.w3.org/2000/svg">
<g transform="translate(138.102, 132.769)">
<path fill-rule="evenodd" clip-rule="evenodd" d="M7.02192 4.81651L7.02277 4.81366C7.02347 4.81153 7.02408 4.80938 7.02461 4.80721C7.02922 4.78805 7.02719 4.76789 7.01886 4.75004C7.01052 4.73218 6.99637 4.71768 6.97872 4.70892C5.25608 3.65717 4.46695 2.18986 4.87068 0.110311C4.87559 0.0925098 4.8747 0.0736106 4.86815 0.0563476C4.8616 0.0390846 4.84973 0.0243527 4.83426 0.0142811L4.83348 0.0138335C4.83135 0.0124701 4.82915 0.011201 4.82691 0.0100287L4.8251 0.00915217C4.8233 0.00825667 4.82148 0.00742321 4.81962 0.00665415L4.81588 0.00525781L4.81183 0.00388159C4.8099 0.00331301 4.80795 0.0028113 4.80599 0.00237799L4.80401 0.00193539C4.80135 0.00138937 4.79865 0.000969308 4.79594 0.000675972C4.77786 -0.00128849 4.75961 0.00246414 4.74377 0.0114058C4.72793 0.0203475 4.71529 0.0340285 4.70763 0.0505262C3.65562 1.88826 2.10031 2.48416 0.10963 2.15624C0.0900908 2.15098 0.0693291 2.1527 0.0509197 2.16109C0.0325103 2.16949 0.0176059 2.18404 0.00876371 2.20224L0.0081855 2.20307L0.00646983 2.20789L0.00500132 2.2118L0.00435027 2.21351C-0.00221733 2.2334 -0.00138656 2.25498 0.00667707 2.27431C0.0147407 2.29363 0.0295023 2.3094 0.0482549 2.31872C1.77056 3.37125 2.55999 4.83768 2.1564 6.91709C2.15144 6.93492 2.15228 6.95386 2.15882 6.97118C2.16536 6.98849 2.17724 7.00327 2.19275 7.01336L2.19385 7.01366C2.19597 7.01503 2.19815 7.01631 2.20038 7.01749L2.20221 7.01835C2.204 7.01925 2.20583 7.02008 2.20767 7.02086L2.21146 7.02224L2.21546 7.02364C2.21739 7.02421 2.21934 7.02471 2.22131 7.02514L2.22332 7.02556C2.22598 7.02611 2.22867 7.02654 2.23137 7.02683C2.24942 7.0288 2.26764 7.02507 2.28347 7.01616C2.29929 7.00725 2.31193 6.99361 2.31962 6.97716C3.37164 5.1393 4.92665 4.54414 6.91773 4.87128C6.93726 4.87653 6.95802 4.8748 6.97642 4.86641C6.99482 4.85801 7.00972 4.84347 7.01856 4.82527L7.01902 4.82439L7.02093 4.81976L7.02192 4.81651Z" fill="#F4D93B"/>
</g>
<g transform="translate(234.822, 33.1562)">
<path fill-rule="evenodd" clip-rule="evenodd" d="M14.4378 9.90279C14.4379 9.90238 14.4381 9.90197 14.4382 9.90155C14.4387 9.90002 14.4391 9.89848 14.4395 9.89693C14.441 9.89255 14.4422 9.88813 14.4433 9.88366C14.4528 9.84427 14.4486 9.80282 14.4315 9.76611C14.4144 9.7294 14.3853 9.69959 14.349 9.68157C10.8071 7.51909 9.18457 4.50218 10.0147 0.226443C10.0247 0.189843 10.0229 0.150985 10.0095 0.115491C9.996 0.0799965 9.97159 0.0497064 9.93977 0.0289984C9.93924 0.0286893 9.93871 0.0283816 9.93817 0.028078C9.93379 0.0252748 9.92928 0.0226655 9.92467 0.020255C9.92344 0.0196398 9.9222 0.0190395 9.92095 0.0184529C9.91725 0.0166116 9.9135 0.014898 9.90968 0.0133167C9.90714 0.0123015 9.90457 0.0113428 9.90198 0.0104457C9.89923 0.00943365 9.89646 0.00849242 9.89367 0.00761609C9.8897 0.00644704 9.88569 0.00541548 9.88165 0.00452456C9.8803 0.0042056 9.87895 0.00390207 9.87759 0.00361454C9.8721 0.00249187 9.86656 0.00162819 9.861 0.00102507C9.82381 -0.00301403 9.7863 0.0047017 9.75373 0.0230866C9.72116 0.0414714 9.69517 0.0696007 9.67941 0.103521C7.5164 3.88207 4.31854 5.10727 0.225538 4.43304C0.185363 4.42223 0.142676 4.42577 0.104824 4.44303C0.066973 4.46029 0.0363276 4.4902 0.0181479 4.52762C0.0177485 4.52819 0.0173514 4.52876 0.0169592 4.52933L0.0170562 4.52954C0.0157556 4.53274 0.0145449 4.53598 0.0134316 4.53925C0.0123644 4.5419 0.0113516 4.54458 0.0104124 4.54728C0.0099544 4.54845 0.00950646 4.54963 0.00907364 4.55081C-0.00442969 4.59169 -0.00272134 4.63607 0.0138576 4.67581C0.0304373 4.71554 0.0607875 4.74797 0.0993451 4.76713C3.64055 6.93122 5.26369 9.94632 4.43388 14.2218C4.42367 14.2584 4.42541 14.2974 4.43885 14.333C4.45229 14.3686 4.47673 14.3989 4.50862 14.4197C4.50937 14.4199 4.51012 14.4201 4.51087 14.4203C4.51524 14.4231 4.51971 14.4258 4.5243 14.4282C4.52555 14.4288 4.5268 14.4294 4.52807 14.43C4.53175 14.4318 4.5355 14.4335 4.53929 14.4351C4.54187 14.4361 4.54446 14.4371 4.54708 14.438C4.54979 14.439 4.55253 14.4399 4.55529 14.4408C4.55927 14.442 4.56328 14.443 4.56732 14.4439C4.5687 14.4442 4.57009 14.4445 4.57147 14.4448C4.57694 14.4459 4.58246 14.4468 4.58801 14.4474C4.62513 14.4514 4.66259 14.4438 4.69513 14.4255C4.72767 14.4071 4.75366 14.3791 4.76946 14.3453C6.9325 10.5665 10.1297 9.34278 14.2236 10.0154C14.2637 10.0262 14.3064 10.0226 14.3442 10.0054C14.3821 9.98811 14.4127 9.95821 14.4309 9.9208C14.4311 9.92034 14.4314 9.91987 14.4316 9.9194L14.4318 9.91899C14.4332 9.91586 14.4345 9.91268 14.4357 9.90947C14.4367 9.90728 14.4377 9.90507 14.4386 9.90283L14.4378 9.90279Z" fill="#F4D93B"/>
</g>
</svg>
