<svg preserveAspectRatio="none" width="62.0002" height="18.4299" viewBox="0 0 62.0002 18.4299" fill="none" xmlns="http://www.w3.org/2000/svg">
<g id="ente">
<path d="M15.7749 12.2355H5.24814C5.75668 13.4764 6.89581 14.0968 8.66553 14.0968C9.74363 14.0968 10.6692 13.7408 11.4422 13.0289L15.1036 15.5919C13.6187 17.4837 11.432 18.4296 8.54348 18.4296C5.96009 18.4296 3.88525 17.6769 2.31894 16.1716C0.772981 14.646 0 12.7237 0 10.4048C0 8.10619 0.76281 6.18391 2.28843 4.63794C3.81405 3.09198 5.75668 2.319 8.1163 2.319C10.3946 2.319 12.2762 3.08181 13.7611 4.60743C15.246 6.11271 15.9885 8.02482 15.9885 10.3438C15.9885 11.0557 15.9173 11.6863 15.7749 12.2355ZM5.18711 8.72661H11.0455C10.659 7.30269 9.70295 6.59074 8.17733 6.59074C6.61102 6.59074 5.61428 7.30269 5.18711 8.72661Z" fill="#212121"/>
<path d="M26.8703 2.319C28.5587 2.319 29.9114 2.89874 30.9285 4.05821C31.9659 5.19734 32.4846 6.80432 32.4846 8.87917V18.0024H27.4195V9.51993C27.4195 8.74695 27.2161 8.15704 26.8093 7.75021C26.4024 7.32304 25.8431 7.10945 25.1311 7.10945C24.3378 7.10945 23.7174 7.35355 23.2698 7.84175C22.8427 8.3096 22.6291 8.99105 22.6291 9.88608V18.0024H17.564V2.74618H22.6291V4.2718C23.5445 2.96993 24.9582 2.319 26.8703 2.319Z" fill="#212121"/>
<path d="M44.5233 2.74618V7.59765H41.35V12.0219C41.35 12.6729 41.5738 13.0899 42.0213 13.273C42.4892 13.4357 43.3232 13.4865 44.5233 13.4255V18.0024C41.5127 18.3685 39.3769 18.0939 38.1157 17.1785C36.8952 16.2225 36.285 14.5443 36.285 12.144V7.59765H33.9965V2.74618H36.285V5.65885e-05L41.35 0V2.74618H44.5233Z" fill="#212121"/>
<path d="M61.7866 12.2359H51.2598C51.7684 13.4768 52.9075 14.0972 54.6772 14.0972C55.7553 14.0972 56.6809 13.7412 57.4539 13.0292L61.1154 15.5923C59.6304 17.4841 57.4437 18.4299 54.5552 18.4299C51.9718 18.4299 49.897 17.6773 48.3306 16.172C46.7847 14.6464 46.0117 12.7241 46.0117 10.4052C46.0117 8.10657 46.7745 6.18429 48.3001 4.63833C49.8258 3.09237 51.7684 2.31938 54.128 2.31938C56.4063 2.31938 58.2879 3.0822 59.7728 4.60782C61.2577 6.1131 62.0002 8.0252 62.0002 10.3441C62.0002 11.0561 61.929 11.6867 61.7866 12.2359ZM51.1988 8.72699H57.0572C56.6707 7.30308 55.7147 6.59112 54.189 6.59112C52.6227 6.59112 51.626 7.30308 51.1988 8.72699Z" fill="#212121"/>
</g>
</svg>
