<svg width="324" height="114" viewBox="0 0 324 114" fill="none" xmlns="http://www.w3.org/2000/svg">
  <defs>
    <clipPath id="legacyKitAllSetClip">
      <rect width="324" height="114" rx="20" />
    </clipPath>
  </defs>
  <path
    d="M-14.375 62.5002C13.125 59.0002 15.125 77.0002 48.125 94.5002C81.125 112 2.125 21.0001 31.125 -2.99991C60.125 -26.9999 69.625 69.0001 149.125 39.0001C228.625 9.00009 132.625 -39 159.625 -48C186.625 -57 213.625 33 209.125 91.5C204.625 150 224.125 207 231.625 102C239.125 -2.99991 247.125 -27 284.625 -37.5C322.125 -48 386.625 -26.5002 349.625 34C312.625 94.5002 269.125 70 262.625 107.5C256.125 145 173.625 124.5 159.625 94.5002C145.625 64.5 80.625 48.5 83.125 102M129.125 11.5C100.125 13.5 91.625 22 115.625 26C139.625 30 175.125 11.5 129.125 11.5Z"
    clip-path="url(#legacyKitAllSetClip)"
    stroke="#207AFF"
  />
</svg>
