<svg preserveAspectRatio="none" width="100%" height="100%" overflow="visible" style="display: block;" viewBox="0 0 110.98 110.98" fill="none" xmlns="http://www.w3.org/2000/svg">
<path id="Vector" opacity="0.11" d="M11.098 44.3918H33.2939C36.2362 44.3886 39.0572 43.2183 41.1377 41.1377C43.2183 39.0572 44.3886 36.2362 44.3918 33.2939V11.098C44.3886 8.15558 43.2183 5.33464 41.1377 3.25406C39.0572 1.17349 36.2362 0.00321173 33.2939 0H11.098C8.15558 0.00321173 5.33464 1.17349 3.25406 3.25406C1.17349 5.33464 0.00321186 8.15558 1.25114e-07 11.098V33.2939C0.00321186 36.2362 1.17349 39.0572 3.25406 41.1377C5.33464 43.2183 8.15558 44.3886 11.098 44.3918ZM7.39864 11.098C7.39961 10.1171 7.78968 9.17677 8.48322 8.48322C9.17677 7.78968 10.1171 7.39961 11.098 7.39864H33.2939C34.2747 7.39961 35.215 7.78968 35.9086 8.48322C36.6021 9.17677 36.9922 10.1171 36.9932 11.098V33.2939C36.9922 34.2747 36.6021 35.215 35.9086 35.9086C35.215 36.6021 34.2747 36.9922 33.2939 36.9932H11.098C10.1171 36.9922 9.17677 36.6021 8.48322 35.9086C7.78968 35.215 7.39961 34.2747 7.39864 33.2939V11.098ZM14.7973 25.8952V18.4966C14.7973 17.5155 15.187 16.5745 15.8808 15.8808C16.5745 15.187 17.5155 14.7973 18.4966 14.7973H25.8952C26.8763 14.7973 27.8173 15.187 28.511 15.8808C29.2048 16.5745 29.5945 17.5155 29.5945 18.4966V25.8952C29.5945 26.8763 29.2048 27.8173 28.511 28.511C27.8173 29.2048 26.8763 29.5945 25.8952 29.5945H18.4966C17.5155 29.5945 16.5745 29.2048 15.8808 28.511C15.187 27.8173 14.7973 26.8763 14.7973 25.8952ZM33.2939 66.5877H11.098C8.15558 66.5909 5.33464 67.7612 3.25406 69.8418C1.17349 71.9224 0.00321186 74.7433 1.25114e-07 77.6857V99.8816C0.00321186 102.824 1.17349 105.645 3.25406 107.725C5.33464 109.806 8.15558 110.976 11.098 110.98H33.2939C36.2362 110.976 39.0572 109.806 41.1377 107.725C43.2183 105.645 44.3886 102.824 44.3918 99.8816V77.6857C44.3886 74.7433 43.2183 71.9224 41.1377 69.8418C39.0572 67.7612 36.2362 66.5909 33.2939 66.5877ZM36.9932 99.8816C36.9922 100.862 36.6021 101.803 35.9086 102.496C35.215 103.19 34.2747 103.58 33.2939 103.581H11.098C10.1171 103.58 9.17677 103.19 8.48322 102.496C7.78968 101.803 7.39961 100.862 7.39864 99.8816V77.6857C7.39961 76.7049 7.78968 75.7645 8.48322 75.0709C9.17677 74.3774 10.1171 73.9873 11.098 73.9863H33.2939C34.2747 73.9873 35.215 74.3774 35.9086 75.0709C36.6021 75.7645 36.9922 76.7049 36.9932 77.6857V99.8816ZM29.5945 85.0843V92.4829C29.5945 93.4641 29.2048 94.405 28.511 95.0988C27.8173 95.7925 26.8763 96.1823 25.8952 96.1823H18.4966C17.5155 96.1823 16.5745 95.7925 15.8808 95.0988C15.187 94.405 14.7973 93.4641 14.7973 92.4829V85.0843C14.7973 84.1032 15.187 83.1622 15.8808 82.4685C16.5745 81.7747 17.5155 81.385 18.4966 81.385H25.8952C26.8763 81.385 27.8173 81.7747 28.511 82.4685C29.2048 83.1622 29.5945 84.1032 29.5945 85.0843ZM99.8816 0H77.6857C74.7433 0.00321173 71.9224 1.17349 69.8418 3.25406C67.7612 5.33464 66.5909 8.15558 66.5877 11.098V33.2939C66.5909 36.2362 67.7612 39.0572 69.8418 41.1377C71.9224 43.2183 74.7433 44.3886 77.6857 44.3918H99.8816C102.824 44.3886 105.645 43.2183 107.725 41.1377C109.806 39.0572 110.976 36.2362 110.98 33.2939V11.098C110.976 8.15558 109.806 5.33464 107.725 3.25406C105.645 1.17349 102.824 0.00321173 99.8816 0ZM103.581 33.2939C103.58 34.2747 103.19 35.215 102.496 35.9086C101.803 36.6021 100.862 36.9922 99.8816 36.9932H77.6857C76.7049 36.9922 75.7645 36.6021 75.0709 35.9086C74.3774 35.215 73.9873 34.2747 73.9863 33.2939V11.098C73.9873 10.1171 74.3774 9.17677 75.0709 8.48322C75.7645 7.78968 76.7049 7.39961 77.6857 7.39864H99.8816C100.862 7.39961 101.803 7.78968 102.496 8.48322C103.19 9.17677 103.58 10.1171 103.581 11.098V33.2939ZM96.1823 18.4966V25.8952C96.1823 26.8763 95.7925 27.8173 95.0988 28.511C94.405 29.2048 93.4641 29.5945 92.4829 29.5945H85.0843C84.1032 29.5945 83.1622 29.2048 82.4685 28.511C81.7747 27.8173 81.385 26.8763 81.385 25.8952V18.4966C81.385 17.5155 81.7747 16.5745 82.4685 15.8808C83.1622 15.187 84.1032 14.7973 85.0843 14.7973H92.4829C93.4641 14.7973 94.405 15.187 95.0988 15.8808C95.7925 16.5745 96.1823 17.5155 96.1823 18.4966ZM51.7904 22.1959V3.69932C51.7904 2.7182 52.1802 1.77726 52.874 1.0835C53.5677 0.389748 54.5086 0 55.4898 0C56.4709 0 57.4118 0.389748 58.1056 1.0835C58.7993 1.77726 59.1891 2.7182 59.1891 3.69932V18.4966C60.1702 18.4966 61.1111 18.8863 61.8049 19.5801C62.4987 20.2739 62.8884 21.2148 62.8884 22.1959C62.8884 23.177 62.4987 24.118 61.8049 24.8117C61.1111 25.5055 60.1702 25.8952 59.1891 25.8952H55.4898C55.0039 25.8953 54.5228 25.7997 54.0739 25.6139C53.6251 25.428 53.2172 25.1555 52.8737 24.812C52.5301 24.4685 52.2576 24.0606 52.0718 23.6117C51.8859 23.1628 51.7903 22.6817 51.7904 22.1959ZM44.3918 48.0911C44.3918 47.11 44.7816 46.1691 45.4753 45.4753C46.1691 44.7816 47.11 44.3918 48.0911 44.3918C49.0723 44.3918 50.0132 44.7816 50.7069 45.4753C51.4007 46.1691 51.7904 47.11 51.7904 48.0911V55.4898C51.7906 55.9756 51.695 56.4567 51.5091 56.9056C51.3232 57.3545 51.0508 57.7623 50.7072 58.1059C50.3637 58.4494 49.9558 58.7219 49.5069 58.9077C49.0581 59.0936 48.577 59.1892 48.0911 59.1891H29.5945C28.6134 59.1891 27.6725 58.7993 26.9787 58.1056C26.285 57.4118 25.8952 56.4709 25.8952 55.4898C25.8952 54.5086 26.285 53.5677 26.9787 52.874C27.6725 52.1802 28.6134 51.7904 29.5945 51.7904H44.3918V48.0911ZM1.25114e-07 55.4898C-0.000126242 55.0039 0.0954731 54.5228 0.281336 54.0739C0.4672 53.6251 0.739685 53.2172 1.08322 52.8737C1.42676 52.5301 1.83462 52.2576 2.2835 52.0718C2.73238 51.8859 3.21348 51.7903 3.69932 51.7904H18.4966C19.4777 51.7904 20.4186 52.1802 21.1124 52.874C21.8062 53.5677 22.1959 54.5086 22.1959 55.4898C22.1959 56.4709 21.8062 57.4118 21.1124 58.1056C20.4186 58.7993 19.4777 59.1891 18.4966 59.1891H3.69932C3.21348 59.1892 2.73238 59.0936 2.2835 58.9077C1.83462 58.7219 1.42676 58.4494 1.08322 58.1059C0.739685 57.7623 0.4672 57.3545 0.281336 56.9056C0.0954731 56.4567 -0.000126242 55.9756 1.25114e-07 55.4898ZM110.98 51.7904C110.98 52.2763 110.884 52.7574 110.698 53.2063C110.512 53.6551 110.24 54.063 109.896 54.4065C109.553 54.7501 109.145 55.0226 108.696 55.2084C108.247 55.3943 107.766 55.4899 107.28 55.4898H66.5877V59.1891C66.5877 60.1702 66.198 61.1111 65.5042 61.8049C64.8105 62.4987 63.8695 62.8884 62.8884 62.8884C61.9073 62.8884 60.9663 62.4987 60.2726 61.8049C59.5788 61.1111 59.1891 60.1702 59.1891 59.1891V51.7904C59.189 51.3046 59.2846 50.8235 59.4704 50.3746C59.6563 49.9258 59.9288 49.5179 60.2723 49.1744C60.6158 48.8308 61.0237 48.5583 61.4726 48.3725C61.9215 48.1866 62.4026 48.091 62.8884 48.0911H107.28C107.766 48.091 108.247 48.1866 108.696 48.3725C109.145 48.5583 109.553 48.8308 109.896 49.1744C110.24 49.5179 110.512 49.9258 110.698 50.3746C110.884 50.8235 110.98 51.3046 110.98 51.7904ZM52.0867 38.3985C51.8913 37.9554 51.7904 37.4765 51.7904 36.9923C51.7904 36.508 51.8913 36.0291 52.0867 35.5861C52.2652 35.1337 52.5289 34.7197 52.8635 34.3668C53.223 34.0394 53.6361 33.776 54.0846 33.5883C54.7462 33.2959 55.483 33.2188 56.1907 33.3679C56.4361 33.402 56.6742 33.4764 56.8952 33.5883C57.1225 33.6625 57.3352 33.7755 57.5238 33.9224C57.7364 34.0493 57.9349 34.1982 58.1163 34.3667C58.4509 34.7196 58.7146 35.1335 58.8931 35.5859C59.0885 36.029 59.1894 36.5079 59.1894 36.9921C59.1894 37.4763 59.0885 37.9553 58.8931 38.3983C58.723 38.8555 58.4583 39.2716 58.1163 39.6194C57.9349 39.7873 57.7363 39.9357 57.5238 40.0619C57.3352 40.2089 57.1225 40.3219 56.8952 40.3961C56.6739 40.5077 56.436 40.5828 56.1907 40.6183C55.9593 40.6609 55.725 40.6857 55.4898 40.6925C55.0065 40.6866 54.529 40.5859 54.0845 40.3963C53.6363 40.2084 53.2234 39.9457 52.8634 39.6194C52.5292 39.2655 52.2656 38.8512 52.0867 38.3985ZM110.98 92.4829V107.28C110.98 107.766 110.884 108.247 110.698 108.696C110.512 109.145 110.24 109.553 109.896 109.896C109.553 110.24 109.145 110.512 108.696 110.698C108.247 110.884 107.766 110.98 107.28 110.98H77.6857C76.7046 110.98 75.7636 110.59 75.0699 109.896C74.3761 109.202 73.9863 108.261 73.9863 107.28C73.9863 106.299 74.3761 105.358 75.0699 104.664C75.7636 103.971 76.7046 103.581 77.6857 103.581H103.581V96.1823H66.5877C65.6066 96.1823 64.6657 95.7925 63.9719 95.0988C63.2781 94.405 62.8884 93.4641 62.8884 92.4829C62.8884 91.5018 63.2781 90.5609 63.9719 89.8671C64.6657 89.1734 65.6066 88.7836 66.5877 88.7836H107.28C107.766 88.7835 108.247 88.8791 108.696 89.065C109.145 89.2508 109.553 89.5233 109.896 89.8668C110.24 90.2104 110.512 90.6182 110.698 91.0671C110.884 91.516 110.98 91.9971 110.98 92.4829ZM70.287 77.6857V73.9863H59.1891V92.4829C59.1891 93.4641 58.7993 94.405 58.1056 95.0988C57.4118 95.7925 56.4709 96.1823 55.4898 96.1823C54.5086 96.1823 53.5677 95.7925 52.874 95.0988C52.1802 94.405 51.7904 93.4641 51.7904 92.4829V70.287C51.7903 69.8012 51.8859 69.3201 52.0718 68.8712C52.2576 68.4223 52.5301 68.0145 52.8737 67.6709C53.2172 67.3274 53.6251 67.0549 54.0739 66.8691C54.5228 66.6832 55.0039 66.5876 55.4898 66.5877H73.9863C74.4722 66.5876 74.9533 66.6832 75.4022 66.8691C75.8511 67.0549 76.2589 67.3274 76.6025 67.6709C76.946 68.0145 77.2185 68.4223 77.4043 68.8712C77.5902 69.3201 77.6858 69.8012 77.6857 70.287V77.6857C77.6857 78.6668 77.2959 79.6077 76.6022 80.3015C75.9084 80.9952 74.9675 81.385 73.9863 81.385C73.0052 81.385 72.0643 80.9952 71.3705 80.3015C70.6768 79.6077 70.287 78.6668 70.287 77.6857ZM110.98 66.5877V81.385C110.98 81.8708 110.884 82.3519 110.698 82.8008C110.512 83.2497 110.24 83.6575 109.896 84.0011C109.553 84.3446 109.145 84.6171 108.696 84.803C108.247 84.9888 107.766 85.0844 107.28 85.0843H88.7836C87.8025 85.0843 86.8616 84.6946 86.1678 84.0008C85.4741 83.307 85.0843 82.3661 85.0843 81.385C85.0843 80.4039 85.4741 79.4629 86.1678 78.7692C86.8616 78.0754 87.8025 77.6857 88.7836 77.6857H103.581V70.287H96.1823C95.2011 70.287 94.2602 69.8973 93.5664 69.2035C92.8727 68.5098 92.4829 67.5688 92.4829 66.5877C92.4829 65.6066 92.8727 64.6657 93.5664 63.9719C94.2602 63.2781 95.2011 62.8884 96.1823 62.8884H107.28C107.766 62.8883 108.247 62.9839 108.696 63.1697C109.145 63.3556 109.553 63.6281 109.896 63.9716C110.24 64.3152 110.512 64.723 110.698 65.1719C110.884 65.6208 110.98 66.1019 110.98 66.5877ZM66.5877 107.28C66.5878 107.766 66.4922 108.247 66.3064 108.696C66.1205 109.145 65.848 109.553 65.5045 109.896C65.161 110.24 64.7531 110.512 64.3042 110.698C63.8553 110.884 63.3742 110.98 62.8884 110.98H51.7904C50.8093 110.98 49.8684 110.59 49.1746 109.896C48.4809 109.202 48.0911 108.261 48.0911 107.28C48.0911 106.299 48.4809 105.358 49.1746 104.664C49.8684 103.971 50.8093 103.581 51.7904 103.581H62.8884C63.3742 103.581 63.8553 103.676 64.3042 103.862C64.7531 104.048 65.161 104.321 65.5045 104.664C65.848 105.008 66.1205 105.416 66.3064 105.864C66.4922 106.313 66.5878 106.794 66.5877 107.28ZM83.0106 69.6566C82.8264 69.5102 82.6422 69.3622 82.4578 69.2142C81.7753 68.5096 81.391 67.5687 81.385 66.5877C81.3907 66.1038 81.4914 65.6258 81.6812 65.1806C81.851 64.7238 82.1158 64.3082 82.4581 63.9613C82.6329 63.8018 82.8175 63.6534 83.0108 63.517C83.2178 63.3764 83.4425 63.2641 83.6792 63.1828C83.8883 63.0764 84.1124 63.0021 84.3437 62.9624C84.9439 62.8517 85.5618 62.8844 86.147 63.058C86.7321 63.2316 87.2679 63.5411 87.7107 63.9612C88.0453 64.3141 88.309 64.7281 88.4875 65.1805C88.6942 65.6202 88.7956 66.102 88.7836 66.5877C88.7762 66.8355 88.7509 67.0824 88.7077 67.3265C88.669 67.5587 88.5946 67.7835 88.4874 67.993C88.406 68.2287 88.2943 68.4528 88.155 68.6596C88.0071 68.8438 87.8588 69.0281 87.7107 69.2141C87.001 69.8888 86.0634 70.2718 85.0843 70.287C84.8361 70.2785 84.5887 70.2538 84.3437 70.213C84.1125 70.1719 83.8885 70.0971 83.679 69.9909C83.4424 69.9096 83.2176 69.7972 83.0106 69.6566Z" fill="var(--fill-0, black)" style="fill:black;fill-opacity:1;"/>
</svg>
