<svg width="282" height="246" viewBox="0 0 282 246" fill="none" xmlns="http://www.w3.org/2000/svg">
<g clip-path="url(#clip0_22926_27757)">
<path d="M253.286 198.68C252.852 201.334 252.235 204.095 251.372 206.9C250.346 210.246 249.379 212.972 248.36 215.299C245.201 222.505 241.541 225.847 234.053 231.632C224.15 239.283 210.746 241.893 183.699 243.432C156.656 244.976 74.572 243.078 65.7354 242.247C56.8988 241.415 42.7825 238.097 33.0546 228.489C23.3268 218.88 21.5483 206.307 20.303 200.849C19.6863 198.143 20.0006 193.134 20.7088 188.22C21.242 184.548 21.9979 180.928 22.7459 178.361C23.0125 177.442 23.279 176.658 23.5377 176.058C25.4753 171.522 36.3768 153.936 63.6585 151.565L179.076 149.854C179.076 149.854 184.411 141.956 186.134 138.276C187.853 134.6 187.554 132.05 187.932 126.44C188.306 120.826 187.435 93.8544 186.842 89.3465C186.249 84.8387 188.684 77.8999 192.48 71.6852C196.275 65.4745 214.008 63.0157 222.193 64.9135C230.377 66.8114 234.113 71.1402 237.196 74.5777C240.136 77.8601 244.915 85.7896 243.081 91.4552C242.997 91.7258 242.894 91.9924 242.774 92.255C240.164 97.9484 230.082 101.032 230.082 101.032C230.082 101.032 226.402 99.1938 223.911 98.7203C221.421 98.2428 220.474 99.3131 220.175 108.583C220.008 113.803 220.255 117.635 221.297 121.2C222.105 123.969 223.394 126.579 225.336 129.559C229.784 136.378 235.597 145.454 241.111 153.045C246.63 160.636 252.323 171.789 253.151 176.177C253.811 179.666 254.957 188.372 253.286 198.68Z" fill="#58BF43" style="fill:#58BF43;fill:color(display-p3 0.3451 0.7490 0.2627);fill-opacity:1;"/>
<path d="M22.751 180.389C39.4176 167.387 61.3242 174.25 61.3242 174.25L63.3811 169.022L61.2128 158.18L58.9608 151.166C58.9608 151.166 38.3275 158.053 35.3594 161.121C32.3913 164.188 26.3915 172.551 26.0533 172.905C25.7151 173.26 22.751 180.389 22.751 180.389Z" fill="#4EA538" style="fill:#4EA538;fill:color(display-p3 0.3059 0.6471 0.2196);fill-opacity:1;"/>
<path d="M253.288 198.68C252.854 201.334 252.237 204.095 251.374 206.9C250.347 210.246 249.38 212.971 248.362 215.299C246.329 215.8 245.597 214.388 247.459 209.546C254.223 191.968 250.662 175.166 240.934 158.678C231.21 142.191 220.651 133.533 218.872 118.732C218.872 118.732 219.775 119.648 221.299 121.199C222.107 123.968 223.396 126.578 225.337 129.558C229.786 136.378 235.598 145.453 241.113 153.044C246.631 160.636 252.325 171.788 253.152 176.176C253.813 179.666 254.959 188.371 253.288 198.68Z" fill="white" style="fill:white;fill-opacity:1;"/>
<path d="M253.286 198.681C252.852 201.335 252.235 204.096 251.372 206.901C251.086 207.828 250.807 208.707 250.529 209.547C246.697 221.077 243.287 224.499 234.053 231.632C224.15 239.283 210.746 241.893 183.699 243.433C156.656 244.977 74.572 243.079 65.7354 242.247C56.8988 241.416 42.7825 238.098 33.0546 228.489C30.4088 225.875 28.3518 223.042 26.7365 220.194C22.3998 212.567 21.2101 204.824 20.303 200.849C19.6863 198.144 20.0006 193.135 20.7088 188.221L22.1412 187.342C24.9899 218.702 95.5873 214.85 95.5873 214.85C95.5873 214.85 138.911 228.664 183.456 211.409C183.456 211.409 236.341 218.423 253.286 198.681Z" fill="#4EA538" style="fill:#4EA538;fill:color(display-p3 0.3059 0.6471 0.2196);fill-opacity:1;"/>
<path d="M250.531 209.547C246.7 221.077 243.29 224.499 234.056 231.632C224.153 239.283 210.749 241.893 183.702 243.433C156.659 244.977 74.5748 243.079 65.7382 242.248C56.9015 241.416 42.7852 238.098 33.0574 228.489C30.4116 225.875 28.3546 223.043 26.7393 220.194C46.4217 224.538 87.4895 222.1 99.4653 222.704C111.732 223.329 139.932 222.883 151.053 224.395C162.173 225.907 175.339 224.753 179.878 224.395C184.414 224.041 204.999 217.707 214.278 214.377C223.56 211.051 228.541 212.384 235.659 211.942C241.488 211.576 248.264 210.08 250.531 209.547Z" fill="#58BF43" style="fill:#58BF43;fill:color(display-p3 0.3451 0.7490 0.2627);fill-opacity:1;"/>
<path d="M243.086 91.4552C242.389 90.377 241.713 89.1078 241.068 87.6238C232.51 67.9254 219.468 64.6151 202.276 70.0898C185.085 75.5644 189.843 96.1103 190.846 106.773C191.848 117.44 194.025 134.807 186.732 146.464C179.435 158.118 68.4977 155.627 61.6822 156.204C54.8628 156.785 36.1153 160.696 23.5427 178.493L22.751 178.361C23.0175 177.442 23.2841 176.658 23.5427 176.058C25.4803 171.522 36.3819 153.936 63.6636 151.565L179.081 149.854C179.081 149.854 184.416 141.956 186.139 138.276C187.858 134.6 187.559 132.05 187.937 126.44C188.311 120.826 187.44 93.8544 186.847 89.3465C186.254 84.8387 188.689 77.8999 192.485 71.6852C196.281 65.4745 214.013 63.0157 222.198 64.9135C230.382 66.8114 234.118 71.1402 237.201 74.5777C240.141 77.8601 244.92 85.7896 243.086 91.4552Z" fill="white" style="fill:white;fill-opacity:1;"/>
<path d="M253.927 184.63C253.223 184.63 252.642 184.069 252.622 183.357C252.224 168.274 243.236 156.748 234.547 145.599C224.139 132.247 214.307 119.639 219.408 102.129C220.168 99.5225 221.513 97.9987 223.406 97.5969C227.095 96.8131 231.4 100.919 233.087 102.721C235.076 101.635 240.26 97.8475 241.068 87.6263C241.617 80.6676 234.634 71.1148 225.503 66.3285C219.854 63.3684 208.658 59.8075 197.111 69.225C186.154 78.1611 187.392 92.0546 188.697 106.764C189.934 120.717 191.215 135.148 182.908 147.529C182.506 148.13 181.694 148.289 181.097 147.887C180.501 147.485 180.337 146.674 180.739 146.077C188.533 134.463 187.292 120.502 186.095 106.998C184.726 91.5771 183.433 77.0152 195.46 67.2038C208.164 56.8394 220.494 60.7623 226.713 64.0209C236.854 69.3364 244.302 79.7963 243.67 87.8332C242.548 102.033 233.584 105.407 233.202 105.546C232.689 105.729 232.12 105.578 231.766 105.164C229.908 102.98 226.14 99.6896 223.952 100.155C223.068 100.342 222.384 101.257 221.914 102.865C217.188 119.094 226.621 131.193 236.608 144C245.56 155.482 254.814 167.351 255.232 183.293C255.252 184.014 254.683 184.614 253.963 184.634C253.951 184.634 253.939 184.634 253.927 184.634V184.63Z" fill="#232323" style="fill:#232323;fill:color(display-p3 0.1375 0.1375 0.1375);fill-opacity:1;"/>
<path d="M259.583 110.916C259.595 112.965 259.463 115.066 259.193 117.206C258.401 123.111 255.664 131.752 251.371 137.514C249.743 139.706 247.885 141.484 245.828 142.535C238.062 145.948 235.627 130.495 233.582 124.288C232.981 121.897 232.209 119.434 231.438 116.956C229.834 111.803 228.211 106.575 228.016 101.733C227.765 95.5147 230.889 88.0269 236.495 85.3493L236.546 85.3254C237.684 84.7684 238.874 84.4381 240.083 84.3068C241.643 84.1358 243.234 84.2909 244.782 84.7047C254.001 87.446 259.523 98.0213 259.583 110.916Z" fill="#FFBF58" style="fill:#FFBF58;fill:color(display-p3 1.0000 0.7477 0.3446);fill-opacity:1;"/>
<path d="M259.584 110.919C259.595 112.968 259.464 115.068 259.194 117.209C258.104 125.357 253.301 138.718 245.829 142.537C238.063 145.951 235.628 130.498 233.583 124.291C232.982 121.9 232.21 119.437 231.438 116.958L231.685 115.685C238.743 103.232 255.983 104.497 259.584 110.919Z" fill="#FC9B00" style="fill:#FC9B00;fill:color(display-p3 0.9882 0.6078 0.0000);fill-opacity:1;"/>
<path d="M259.582 110.916C259.594 112.965 259.462 115.066 259.192 117.206C258.4 123.111 255.663 131.752 251.37 137.514C251.505 137.076 251.664 136.61 251.847 136.121C259.983 114.187 256.474 87.4818 239.215 85.3254C239.215 85.3254 239.545 84.9315 240.082 84.3068C241.642 84.1358 243.233 84.2909 244.781 84.7047C254 87.446 259.522 98.0213 259.582 110.916Z" fill="white" style="fill:white;fill-opacity:1;"/>
<path d="M243.7 144.329C242.885 144.329 242.093 144.146 241.333 143.784C237.028 141.727 235.023 134.347 233.412 128.419C233.034 127.026 232.676 125.709 232.341 124.695C232.333 124.667 232.322 124.635 232.318 124.607C231.729 122.272 230.961 119.801 230.213 117.414C228.589 112.206 226.911 106.823 226.712 101.786C226.457 95.5032 229.604 87.1958 235.934 84.172L235.974 84.1521C238.707 82.8193 241.87 82.5726 245.121 83.4479C256.301 86.7741 262.607 100.719 260.486 117.37C259.42 125.319 254.662 139.483 246.418 143.697C246.394 143.709 246.374 143.721 246.35 143.729C245.443 144.131 244.556 144.329 243.697 144.329H243.7ZM234.84 123.923C235.19 124.993 235.552 126.326 235.934 127.734C237.247 132.576 239.236 139.889 242.459 141.429C243.303 141.831 244.218 141.807 245.268 141.353C252.211 137.773 256.834 124.985 257.9 117.032C259.854 101.682 254.308 88.9026 244.413 85.9584C241.811 85.2622 239.28 85.4452 237.12 86.4995C237.12 86.4995 237.12 86.4995 237.116 86.4995L237.068 86.5234C231.741 89.0697 229.107 96.2313 229.326 101.678C229.513 106.369 231.14 111.589 232.711 116.634C233.463 119.041 234.239 121.532 234.84 123.923Z" fill="#232323" style="fill:#232323;fill:color(display-p3 0.1375 0.1375 0.1375);fill-opacity:1;"/>
<path d="M122.803 57.1652C138.229 57.1652 150.734 44.6604 150.734 29.2349C150.734 13.8095 138.229 1.30469 122.803 1.30469C107.378 1.30469 94.873 13.8095 94.873 29.2349C94.873 44.6604 107.378 57.1652 122.803 57.1652Z" fill="white" style="fill:white;fill-opacity:1;"/>
<path d="M123.146 32.7171C129.076 32.7171 133.884 27.9093 133.884 21.9787C133.884 16.048 129.076 11.2402 123.146 11.2402C117.215 11.2402 112.407 16.048 112.407 21.9787C112.407 27.9093 117.215 32.7171 123.146 32.7171Z" fill="#F2C249" style="fill:#F2C249;fill:color(display-p3 0.9490 0.7608 0.2863);fill-opacity:1;"/>
<path d="M122.785 58.4682C107.539 58.4682 94.6597 46.5998 93.6332 31.1706C92.5669 15.0848 104.781 1.13163 120.867 0.0613708C136.945 -1.00889 150.906 11.2096 151.976 27.2954C152.494 35.0856 149.947 42.6132 144.803 48.4897C139.658 54.3662 132.537 57.8873 124.742 58.4046C124.086 58.4483 123.433 58.4682 122.785 58.4682ZM122.825 2.60772C122.232 2.60772 121.639 2.62761 121.042 2.6674C106.393 3.64217 95.2684 16.35 96.2432 30.9955C97.1782 45.0442 108.907 55.8542 122.789 55.8542C123.382 55.8542 123.975 55.8343 124.571 55.7946C131.665 55.3251 138.154 52.1183 142.841 46.767C147.524 41.4156 149.844 34.5604 149.374 27.4664C148.439 13.4178 136.71 2.60772 122.829 2.60772H122.825Z" fill="#232323" style="fill:#232323;fill:color(display-p3 0.1375 0.1375 0.1375);fill-opacity:1;"/>
<path d="M122.269 34.7149C115.673 34.7149 110.099 29.5785 109.653 22.8983C109.192 15.9356 114.479 9.896 121.438 9.43447C124.812 9.21167 128.066 10.3138 130.613 12.5378C133.155 14.7659 134.679 17.8494 134.902 21.2193C135.124 24.5932 134.022 27.8477 131.798 30.3941C129.57 32.9365 126.491 34.4603 123.117 34.6831C122.834 34.703 122.552 34.7109 122.269 34.7109V34.7149ZM122.289 12.1917C122.066 12.1917 121.844 12.1996 121.621 12.2156C116.19 12.5776 112.068 17.2884 112.43 22.7153C112.792 28.1461 117.503 32.268 122.93 31.906C125.56 31.7309 127.963 30.5413 129.702 28.5599C131.436 26.5786 132.3 24.0362 132.125 21.4063C131.95 18.7764 130.76 16.3733 128.779 14.6346C126.964 13.0471 124.68 12.1917 122.293 12.1917H122.289Z" fill="black" style="fill:black;fill-opacity:1;"/>
<path d="M113.553 46.7631C113.358 46.7631 113.159 46.7272 112.968 46.6516C112.153 46.3294 111.751 45.4023 112.073 44.5867C115.96 34.7515 122.577 32.7104 126.174 32.3682C131.648 31.851 137.246 34.5286 140.107 39.0365C140.576 39.7805 140.358 40.7632 139.614 41.2327C138.87 41.7022 137.887 41.4834 137.417 40.7393C135.185 37.2182 130.781 35.1254 126.472 35.5353C121.511 36.0047 117.448 39.6333 115.029 45.7525C114.783 46.3771 114.182 46.7591 113.549 46.7591L113.553 46.7631Z" fill="black" style="fill:black;fill-opacity:1;"/>
<path d="M119.897 24.2655C120.754 24.2655 121.449 23.5708 121.449 22.7138C121.449 21.8568 120.754 21.1621 119.897 21.1621C119.04 21.1621 118.346 21.8568 118.346 22.7138C118.346 23.5708 119.04 24.2655 119.897 24.2655Z" fill="black" style="fill:black;fill-opacity:1;"/>
<path d="M124.424 23.1444C125.281 23.1444 125.975 22.4497 125.975 21.5927C125.975 20.7357 125.281 20.041 124.424 20.041C123.567 20.041 122.872 20.7357 122.872 21.5927C122.872 22.4497 123.567 23.1444 124.424 23.1444Z" fill="black" style="fill:black;fill-opacity:1;"/>
<path d="M204.969 71.6792C224.401 71.6792 240.153 55.9271 240.153 36.4959C240.153 17.0646 224.401 1.3125 204.969 1.3125C185.538 1.3125 169.786 17.0646 169.786 36.4959C169.786 55.9271 185.538 71.6792 204.969 71.6792Z" fill="white" style="fill:white;fill-opacity:1;"/>
<path d="M205.02 73.0028C201.507 73.0028 197.974 72.4895 194.512 71.4551C185.174 68.662 177.483 62.3996 172.856 53.8216C168.229 45.2436 167.218 35.3765 170.011 26.0386C175.777 6.76192 196.151 -4.22716 215.428 1.53793C224.766 4.33095 232.457 10.5934 237.084 19.1714C241.711 27.7494 242.722 37.6165 239.929 46.9544C237.136 56.2923 230.873 63.9831 222.295 68.6103C216.896 71.5227 210.984 73.0028 205.02 73.0028ZM204.988 2.61217C190.402 2.61217 176.903 12.1132 172.514 26.7866C169.92 35.4561 170.859 44.615 175.156 52.5803C179.453 60.5455 186.595 66.3584 195.264 68.9525C203.934 71.5466 213.092 70.6076 221.058 66.3106C229.023 62.0137 234.836 54.872 237.43 46.2024C240.024 37.5329 239.085 28.374 234.788 20.4087C230.491 12.4435 223.349 6.63062 214.68 4.03653C211.453 3.06972 208.195 2.61217 204.988 2.61217Z" fill="#232323" style="fill:#232323;fill:color(display-p3 0.1375 0.1375 0.1375);fill-opacity:1;"/>
<path d="M197.609 13.9648C192.297 18.8427 185.45 26.7205 183.767 31.9206C182.589 35.565 184.877 39.4164 188.629 40.1843L218.489 46.2836C222.551 47.1151 226.335 43.9401 226.231 39.7944C225.957 28.8212 220.315 18.7591 220.315 18.7591L197.609 13.9648Z" fill="black" style="fill:black;fill-opacity:1;"/>
<path d="M206.707 41.2956C214.541 41.2956 220.891 34.9453 220.891 27.1117C220.891 19.2781 214.541 12.9277 206.707 12.9277C198.874 12.9277 192.523 19.2781 192.523 27.1117C192.523 34.9453 198.874 41.2956 206.707 41.2956Z" fill="#B77E62" style="fill:#B77E62;fill:color(display-p3 0.7176 0.4941 0.3843);fill-opacity:1;"/>
<path d="M206.699 42.8878C205.207 42.8878 203.687 42.6729 202.187 42.2233C198.149 41.0138 194.827 38.3083 192.826 34.6002C190.824 30.8921 190.387 26.627 191.596 22.5886C192.806 18.5503 195.511 15.2241 199.219 13.2268C202.927 11.2295 207.192 10.7879 211.231 11.9974C219.566 14.492 224.317 23.3008 221.826 31.6321C219.781 38.4635 213.495 42.8878 206.703 42.8878H206.699ZM206.687 14.5119C204.626 14.5119 202.589 15.0212 200.723 16.0278C197.763 17.6232 195.603 20.281 194.636 23.5037C193.673 26.7264 194.019 30.1322 195.619 33.0923C197.218 36.0524 199.872 38.2128 203.094 39.1797C209.747 41.169 216.777 37.3773 218.77 30.725C220.76 24.0727 216.968 17.0384 210.316 15.049C209.122 14.691 207.901 14.5159 206.691 14.5159L206.687 14.5119Z" fill="black" style="fill:black;fill-opacity:1;"/>
<path d="M218.316 57.0111C217.58 57.0111 216.92 56.4978 216.76 55.7498C215.642 50.4622 211.254 45.9305 205.835 44.4743C199.612 42.8032 193.075 45.3416 187.418 51.62C186.829 52.2725 185.822 52.3242 185.17 51.7354C184.517 51.1465 184.466 50.1399 185.054 49.4874C193.823 39.7516 202.358 40.241 206.663 41.3988C213.208 43.1573 218.515 48.6598 219.876 55.0894C220.059 55.9488 219.506 56.7922 218.646 56.9753C218.535 56.9991 218.424 57.0111 218.316 57.0111Z" fill="black" style="fill:black;fill-opacity:1;"/>
<path d="M203.732 28.7156C204.811 28.7156 205.685 27.841 205.685 26.7621C205.685 25.6832 204.811 24.8086 203.732 24.8086C202.653 24.8086 201.778 25.6832 201.778 26.7621C201.778 27.841 202.653 28.7156 203.732 28.7156Z" fill="black" style="fill:black;fill-opacity:1;"/>
<path d="M209.563 29.3817C210.642 29.3817 211.516 28.507 211.516 27.4281C211.516 26.3492 210.642 25.4746 209.563 25.4746C208.484 25.4746 207.609 26.3492 207.609 27.4281C207.609 28.507 208.484 29.3817 209.563 29.3817Z" fill="black" style="fill:black;fill-opacity:1;"/>
<path d="M162.241 104.627C185.015 104.874 199.111 126.812 174.32 136.066C149.529 145.321 162.241 104.627 162.241 104.627Z" fill="#F4D93B" style="fill:#F4D93B;fill:color(display-p3 0.9569 0.8510 0.2314);fill-opacity:1;"/>
<path d="M167.834 138.736C165.24 138.736 163.108 137.953 161.453 136.385C153.444 128.798 160.685 105.236 160.995 104.237C161.166 103.692 161.671 103.322 162.24 103.322C162.244 103.322 162.248 103.322 162.256 103.322C175.362 103.462 186.896 110.838 188.519 120.112C189.777 127.302 184.768 133.56 174.777 137.288C172.187 138.255 169.871 138.736 167.834 138.736ZM163.203 105.956C161.158 112.982 157.832 129.363 163.247 134.491C165.415 136.544 168.988 136.66 173.862 134.841C182.563 131.595 186.968 126.391 185.945 120.562C185.313 116.941 182.583 113.313 178.461 110.603C174.224 107.818 168.837 106.183 163.203 105.96V105.956Z" fill="#232323" style="fill:#232323;fill:color(display-p3 0.1375 0.1375 0.1375);fill-opacity:1;"/>
<path d="M208.28 168.741C208.085 169.708 207.843 170.687 207.552 171.681C207.262 172.676 206.924 173.682 206.534 174.697C204.926 175.151 202.969 175.612 200.589 176.078L199.479 173.631L190.846 154.637C191.538 153.495 192.242 152.508 192.958 151.661C201.787 141.165 211.547 152.584 208.28 168.741Z" fill="#FF814A" style="fill:#FF814A;fill:color(display-p3 1.0000 0.5059 0.2902);fill-opacity:1;"/>
<path d="M208.278 168.741C207.952 168.809 207.685 167.961 207.554 165.661C206.969 155.5 201.379 146.639 192.956 151.661C201.785 141.165 211.544 152.584 208.278 168.741Z" fill="white" style="fill:white;fill-opacity:1;"/>
<path d="M207.133 174.249C206.974 174.249 206.815 174.221 206.659 174.162C205.987 173.899 205.653 173.143 205.915 172.471C209.727 162.655 206.986 151.284 202.068 148.857C198.996 147.342 195.404 149.633 191.954 155.315C191.58 155.932 190.777 156.126 190.16 155.752C189.543 155.378 189.348 154.575 189.722 153.958C195.67 144.163 201.145 145.488 203.222 146.514C209.269 149.494 212.826 161.896 208.35 173.414C208.151 173.931 207.654 174.245 207.133 174.245V174.249Z" fill="#232323" style="fill:#232323;fill:color(display-p3 0.1375 0.1375 0.1375);fill-opacity:1;"/>
<path d="M68.4062 174.248C70.9565 179.023 77.1235 179.241 108.559 180.172C139.994 181.103 168.756 178.847 181.333 177.483C193.909 176.118 199.304 175.287 198.831 172.203C198.357 169.12 67.8174 170.425 67.8174 170.425L68.4102 174.248H68.4062Z" fill="#F4D93B" style="fill:#F4D93B;fill:color(display-p3 0.9569 0.8510 0.2314);fill-opacity:1;"/>
<path d="M199.38 174.98L108.726 176.52L69.4364 177.188C56.4739 162.917 56.9633 125.831 58.0296 108.083C58.3877 102.118 58.8094 98.3387 58.8094 98.3387C58.8094 98.3387 119.389 69.1791 132.017 73.0941C133.358 73.5079 134.766 74.5145 136.226 75.9866C148.512 88.3881 164.531 134.059 176.136 142.486C178.134 143.934 180.067 145.394 181.917 146.871C192.099 155.007 199.583 163.744 199.38 174.98Z" fill="#F4D93B" style="fill:#F4D93B;fill:color(display-p3 0.9569 0.8510 0.2314);fill-opacity:1;"/>
<path d="M182.221 147.61C182.221 147.61 170.715 143.437 165.642 133.653C160.573 123.866 154.701 116.302 149.429 105.003C144.157 93.6994 139.22 87.3017 131.481 77.542L136.228 75.9863C148.514 88.3878 164.532 134.059 176.138 142.486C178.135 143.934 180.069 145.394 181.919 146.87L182.221 147.61Z" fill="white" style="fill:white;fill-opacity:1;"/>
<path d="M111.622 180.173L69.4364 177.189C56.4739 162.917 56.9633 125.832 58.0296 108.083L74.9867 101.252C65.967 134.983 86.7396 169.522 111.622 180.173Z" fill="#F2BE3D" style="fill:#F2BE3D;fill:color(display-p3 0.9490 0.7451 0.2392);fill-opacity:1;"/>
<path opacity="0.32" d="M140.697 179.02C127.539 168.998 114.286 137.921 128.029 129.733C141.771 121.545 156.954 118.819 161.581 122.555C166.208 126.291 175.932 143.571 183.109 148.544C190.287 153.517 194.023 157.285 195.507 160.026C196.991 162.768 199.386 172.253 199.386 172.253L198.857 174.807L151.085 179.017H140.697V179.02Z" fill="#FFF4C5" style="fill:#FFF4C5;fill:color(display-p3 1.0000 0.9569 0.7725);fill-opacity:1;"/>
<path d="M69.4383 178.496C69.0842 178.496 68.7301 178.353 68.4715 178.066C61.0752 169.922 56.9891 153.968 56.3246 130.649C55.8353 113.429 57.4944 98.3419 57.5103 98.1908C57.558 97.7451 57.8365 97.3552 58.2424 97.1603C58.3935 97.0887 73.6159 89.7759 90.1871 83.04C112.667 73.901 126.87 70.1332 132.405 71.848C139.65 74.0959 147.882 90.6193 156.595 108.114C163.717 122.413 171.081 137.198 176.906 141.431C189.407 150.506 200.941 160.855 200.687 175.003C200.675 175.723 200.094 176.296 199.358 176.284C198.638 176.272 198.065 175.675 198.077 174.955C198.295 162.725 189.16 153.55 175.374 143.544C169.032 138.936 161.855 124.534 154.26 109.279C146.549 93.8023 137.812 76.2564 131.633 74.3426C121.806 71.295 77.2604 90.9536 60.0328 99.1974C59.3604 105.993 54.6854 159.005 70.4051 176.312C70.8905 176.845 70.8508 177.673 70.3176 178.158C70.067 178.385 69.7526 178.496 69.4383 178.496Z" fill="#232323" style="fill:#232323;fill:color(display-p3 0.1375 0.1375 0.1375);fill-opacity:1;"/>
<path d="M117.398 108.005C123.839 100.465 127.742 98.8419 137.693 101.504C140.009 102.116 140.028 104.225 138.588 105.439C135.151 108.351 123.951 112.166 119.001 112.107C116.701 112.063 115.643 110.062 117.394 108.005H117.398Z" fill="#FF814A" style="fill:#FF814A;fill:color(display-p3 1.0000 0.5059 0.2902);fill-opacity:1;"/>
<path d="M116.611 107.34C118.93 104.742 121.568 102.052 124.819 100.544C128.161 98.9966 132.08 99.2552 135.529 99.9435C136.254 100.067 136.966 100.25 137.678 100.409C138.617 100.6 139.548 101.018 140.145 101.841C141.163 103.206 140.67 105.179 139.46 106.238C138.979 106.687 138.279 107.161 137.722 107.523C133.313 110.28 123.196 113.917 118.067 113.145C115.167 112.476 114.705 109.349 116.611 107.34ZM118.186 108.681C117.351 109.667 117.327 110.881 118.843 110.945C121.385 110.897 123.888 110.173 126.402 109.456C129.86 108.406 133.309 107.209 136.464 105.446L137.145 105.032L137.758 104.595L137.833 104.539L137.885 104.491C138.919 103.544 138.418 102.737 137.145 102.466C136.468 102.287 135.784 102.08 135.108 101.937C126.888 99.8997 123.263 102.462 118.19 108.681H118.186Z" fill="#232323" style="fill:#232323;fill:color(display-p3 0.1375 0.1375 0.1375);fill-opacity:1;"/>
<path d="M100.285 107.59C100.345 107.252 100.429 106.93 100.528 106.6C100.612 106.277 100.739 105.959 100.842 105.629C100.97 105.311 101.117 104.988 101.264 104.666C101.435 104.356 101.582 104.034 101.781 103.735C101.98 103.437 102.171 103.118 102.438 102.84C102.661 102.553 102.947 102.271 103.222 102.008C103.814 101.495 104.495 101.061 105.263 100.763C106.03 100.465 106.858 100.341 107.654 100.377C108.45 100.413 109.221 100.58 109.922 100.835C110.618 101.089 111.266 101.447 111.863 101.845C112.162 102.044 112.448 102.267 112.711 102.498C112.838 102.625 112.977 102.729 113.105 102.856L113.296 103.047C113.359 103.11 113.423 103.174 113.49 103.258C113.853 103.648 113.825 104.268 113.411 104.618C113.117 104.885 112.731 104.929 112.388 104.785L112.193 104.702C112.15 104.694 112.086 104.63 112.014 104.61L111.831 104.503C111.704 104.439 111.573 104.356 111.445 104.292C111.191 104.165 110.92 104.041 110.666 103.914C110.411 103.787 110.144 103.683 109.886 103.6C109.766 103.556 109.619 103.496 109.504 103.473L109.313 103.409L109.13 103.365C108.087 103.095 107.105 103.059 106.225 103.349C105.788 103.492 105.354 103.719 104.948 104.026C104.749 104.197 104.546 104.348 104.355 104.539C104.26 104.634 104.157 104.71 104.069 104.825L103.794 105.148C103.699 105.243 103.615 105.374 103.528 105.49C103.44 105.605 103.349 105.716 103.261 105.832L102.764 106.568L102.299 107.336C102.151 107.594 102.012 107.873 101.845 108.139L101.821 108.191C101.59 108.585 101.081 108.708 100.707 108.474C100.373 108.287 100.234 107.933 100.289 107.594L100.285 107.59Z" fill="#232323" style="fill:#232323;fill:color(display-p3 0.1375 0.1375 0.1375);fill-opacity:1;"/>
<path d="M132.275 97.179C132.315 96.8487 132.375 96.5344 132.454 96.2121C132.534 95.8899 132.609 95.5676 132.713 95.2612C132.812 94.9549 132.932 94.6406 133.047 94.3263C133.111 94.179 133.186 94.0279 133.25 93.8806C133.33 93.7295 133.389 93.5822 133.469 93.4271C133.632 93.1406 133.807 92.8303 134.014 92.5717C134.201 92.2971 134.448 92.0465 134.674 91.7839C135.18 91.3025 135.761 90.8966 136.437 90.6539C137.113 90.4112 137.837 90.3197 138.546 90.4033C139.25 90.4669 139.926 90.6858 140.543 90.9921C141.16 91.2985 141.744 91.6765 142.254 92.0982C142.512 92.329 142.767 92.5438 142.994 92.7825C143.109 92.9138 143.221 93.0252 143.336 93.1565C143.451 93.2878 143.547 93.4032 143.674 93.5743C143.933 93.9125 143.905 94.3859 143.622 94.6485C143.412 94.8435 143.121 94.8554 142.886 94.7002L142.795 94.6445C142.703 94.5888 142.564 94.5093 142.445 94.4217C142.329 94.3541 142.21 94.2666 142.095 94.1989C141.848 94.0676 141.613 93.9125 141.374 93.8011C140.889 93.5584 140.412 93.3356 139.942 93.1963C138.995 92.8939 138.1 92.8541 137.352 93.1605C136.978 93.3037 136.608 93.5305 136.266 93.8369C135.924 94.1393 135.605 94.5212 135.319 94.931C134.726 95.7626 134.233 96.7692 133.716 97.8275L133.704 97.8514C133.505 98.2532 133.043 98.3646 132.665 98.11C132.371 97.8911 132.227 97.5132 132.267 97.1829L132.275 97.179Z" fill="#232323" style="fill:#232323;fill:color(display-p3 0.1375 0.1375 0.1375);fill-opacity:1;"/>
<path d="M60.3008 91.7767C60.3008 91.7767 60.0302 91.9279 59.6045 92.1944L59.9109 91.0804C60.1018 90.977 60.3445 91.0406 60.4519 91.2356C60.5594 91.4305 60.4917 91.6692 60.2968 91.7767H60.3008Z" fill="#232323" style="fill:#232323;fill:color(display-p3 0.1375 0.1375 0.1375);fill-opacity:1;"/>
<path d="M133.637 69.6953L134.564 70.4712C134.015 70.4791 133.697 70.491 133.677 70.491C133.458 70.499 133.271 70.3359 133.259 70.1131C133.243 69.8942 133.414 69.7072 133.633 69.6953H133.637Z" fill="#232323" style="fill:#232323;fill:color(display-p3 0.1375 0.1375 0.1375);fill-opacity:1;"/>
<path d="M89.8569 53.1888C81.1834 38.79 71.002 38.8099 73.3136 48.864C73.3136 48.864 67.0114 42.7289 58.879 48.3229C50.7466 53.9169 64.1547 65.6978 79.2975 58.2974" fill="#F4D93B" style="fill:#F4D93B;fill:color(display-p3 0.9569 0.8510 0.2314);fill-opacity:1;"/>
<path d="M90.7542 54.1432C91.1998 53.7374 91.3351 53.0491 91.0048 52.504C88.3869 48.1553 85.4228 44.7416 82.4228 42.6608C79.5343 40.6436 76.793 39.9871 74.7042 40.8226C72.7746 41.5984 71.7282 43.5241 71.7003 46.15C71.0757 45.8198 70.3794 45.5015 69.5678 45.2349C66.9219 44.3835 62.7841 44.0413 58.1689 47.2283C55.0814 49.3529 54.2976 52.5875 56.096 55.675C59.0362 60.708 68.9352 64.7981 79.9163 59.4428C80.5568 59.1324 80.8354 58.3367 80.525 57.6961C80.2147 57.0556 79.4189 56.7771 78.7784 57.0874C69.3688 61.6947 60.7272 58.3924 58.3638 54.3501C57.588 53.0172 57.1862 51.0796 59.6728 49.3648C62.7006 47.2919 65.7721 46.7309 68.7959 47.7017C71.02 48.4219 72.4364 49.7388 72.4523 49.7547C72.874 50.1605 73.4947 50.2441 73.992 49.9576C74.4894 49.6672 74.7599 49.0982 74.6167 48.5213C73.9721 45.7164 74.366 43.731 75.683 43.2138C77.9031 42.3106 83.4454 45.0121 88.7648 53.8289C89.1348 54.4456 89.9346 54.6405 90.5473 54.2705C90.6189 54.2586 90.6786 54.2068 90.7542 54.1392V54.1432Z" fill="#232323" style="fill:#232323;fill:color(display-p3 0.1375 0.1375 0.1375);fill-opacity:1;"/>
<path d="M130.939 66.9157C130.625 71.6463 128.21 74.0932 128.21 74.0932L57.0034 108.282C40.7107 96.2026 40.2372 79.0227 63.5602 61.5126C65.3387 60.1838 67.2564 58.8469 69.3134 57.5101C98.3696 38.6432 118.541 40.1114 126.889 53.5434C130.346 59.1016 131.166 63.5776 130.939 66.9157Z" fill="#58BF43" style="fill:#58BF43;fill:color(display-p3 0.3451 0.7490 0.2627);fill-opacity:1;"/>
<path d="M130.94 66.9157C129.89 65.8653 128.792 64.2698 127.654 62.0219C117.349 41.667 98.6176 42.1087 63.5615 61.5126C65.34 60.1838 67.2577 58.8469 69.3147 57.5101C98.3709 38.6432 118.543 40.1114 126.89 53.5434C130.347 59.1016 131.167 63.5776 130.94 66.9157Z" fill="white" style="fill:white;fill-opacity:1;"/>
<path d="M57.3644 109.541C56.9785 109.653 56.5607 109.585 56.2146 109.33C48.0066 103.243 43.7892 95.9104 44.0399 88.1202C44.191 82.9519 46.3196 77.6722 50.2983 72.4164C54.4361 66.9935 60.5911 61.6103 68.5962 56.4022C86.353 44.8721 101.929 40.1653 113.623 42.7753C119.794 44.144 124.759 47.6372 128.006 52.8453C132.549 60.1422 132.665 65.7362 131.952 69.122C131.173 72.9257 129.207 74.9389 129.128 75.0224C129.016 75.1378 128.893 75.2174 128.762 75.2731L57.5474 109.442C57.4997 109.498 57.4241 109.521 57.3644 109.537V109.541ZM94.8037 46.6028C87.3198 48.7751 78.9725 52.8055 70.0166 58.6263C55.021 68.3502 46.9483 78.5992 46.6459 88.2236C46.431 94.9158 50.0636 101.305 57.1535 106.78L127.409 73.0569C127.795 72.5875 128.953 71.0199 129.442 68.4536C130.242 64.288 128.984 59.3823 125.782 54.2498C122.881 49.5908 118.6 46.5869 113.058 45.3495C107.802 44.1758 101.659 44.6214 94.8076 46.6068L94.8037 46.6028Z" fill="#232323" style="fill:#232323;fill:color(display-p3 0.1375 0.1375 0.1375);fill-opacity:1;"/>
<path d="M158.285 62.2023C153.793 66.6345 140.926 73.3465 126.531 80.2734C102.233 91.9627 98.2188 92.9813 61.6787 105.005C61.6787 105.005 65.55 100.911 74.112 93.0091C75.3216 91.907 76.8136 90.6378 78.4607 89.3249C92.1076 78.3398 107.497 69.7538 123.941 63.7699C124.924 63.4118 125.906 63.0617 126.897 62.7235C136.426 59.457 146.464 56.7754 153.447 56.9863C160.505 57.1971 161.376 59.1626 158.285 62.2023Z" fill="#58BF43" style="fill:#58BF43;fill:color(display-p3 0.3451 0.7490 0.2627);fill-opacity:1;"/>
<path d="M158.285 62.2023L154.581 64.5577C154.581 64.5577 157.843 60.3482 150.964 60.4954C144.085 60.6427 138.507 61.1798 119.294 66.5231L123.941 63.7699C124.924 63.4118 125.906 63.0617 126.897 62.7235C136.426 59.457 146.464 56.7754 153.447 56.9863C160.505 57.1971 161.376 59.1626 158.285 62.2023Z" fill="white" style="fill:white;fill-opacity:1;"/>
<path d="M62.7946 104.306C63.28 104.039 63.7654 103.753 64.203 103.458C64.6446 103.184 65.0465 102.901 65.4364 102.662C65.8263 102.424 66.2043 102.209 66.5982 102.054C66.8051 101.974 67.012 101.891 67.2188 101.811L67.5411 101.696L67.9032 101.568L74.5038 99.38C78.9082 97.9119 83.3165 96.4477 87.697 94.9677C92.0736 93.4677 96.4382 91.9319 100.743 90.2649C105.048 88.5978 109.297 86.7994 113.491 84.8937C117.704 82.9799 121.878 80.9986 126.063 78.9893C130.249 76.9801 134.411 74.9589 138.525 72.8463C142.638 70.7336 146.717 68.5652 150.624 66.178C151.602 65.5812 152.573 64.9645 153.5 64.3399C154.447 63.7112 155.362 63.0468 156.206 62.3426C156.627 61.9925 157.045 61.6384 157.419 61.2604C157.797 60.8983 158.143 60.5084 158.39 60.1424C158.505 59.9633 158.621 59.7843 158.665 59.645C158.708 59.5058 158.724 59.4183 158.72 59.3984C158.716 59.3785 158.72 59.3984 158.68 59.3267C158.645 59.275 158.509 59.1676 158.338 59.092C157.996 58.9209 157.511 58.7658 157.021 58.6583C156.532 58.5509 155.987 58.4793 155.442 58.4037C154.905 58.352 154.348 58.3042 153.775 58.2804C153.496 58.2565 153.222 58.2525 152.935 58.2724L152.096 58.2644C149.876 58.3241 147.612 58.6026 145.38 58.9766C143.128 59.3586 140.888 59.8599 138.664 60.401C136.436 60.9421 134.22 61.5866 132 62.2312C129.787 62.8956 127.579 63.576 125.415 64.3319C124.862 64.5149 124.325 64.69 123.78 64.8889L122.148 65.4658C121.599 65.6687 121.066 65.8438 120.521 66.0626L118.902 66.6793C114.597 68.3464 110.367 70.2004 106.234 72.2574C105.72 72.5121 105.191 72.7707 104.682 73.0412L103.158 73.8409C102.653 74.1115 102.14 74.3661 101.638 74.6566L100.122 75.4921C99.6211 75.7825 99.1158 76.057 98.6145 76.3475L97.1106 77.2228C96.6093 77.5132 96.1079 77.8077 95.6345 78.11L94.1664 79.0371C93.673 79.3474 93.1876 79.6339 92.6982 79.9641L91.258 80.907C90.7885 81.2333 90.2911 81.5436 89.8217 81.8659L88.3893 82.8447C87.9198 83.1709 87.4305 83.5011 86.965 83.8433L85.5645 84.8579C85.099 85.2 84.6295 85.5263 84.168 85.8883L82.7993 86.9347C82.3418 87.2968 81.8683 87.623 81.4346 88.001L80.0779 89.0872C79.1787 89.8073 78.2835 90.5474 77.4122 91.2834C76.5369 92.0195 75.6735 92.7913 74.8539 93.5711L72.3513 95.9703C70.6843 97.5816 69.045 99.2089 67.4098 100.856C66.6021 101.676 65.7985 102.515 64.9987 103.355C64.5929 103.764 64.2149 104.19 63.8171 104.616L63.2282 105.249L62.9418 105.563L62.8025 105.73L62.7428 105.81C62.8025 105.73 62.5558 106.032 62.8622 105.65C63.1168 105.304 63.0452 104.552 62.8065 104.306H62.7946ZM60.5904 105.718C60.3914 105.463 60.3079 104.672 60.6341 104.282C60.9564 103.876 60.7416 104.146 60.8331 104.035L60.9127 103.948L61.0758 103.796L61.3861 103.498L62.0267 102.893L63.3078 101.684C64.1592 100.872 65.0226 100.1 65.8621 99.3124C67.5769 97.7289 69.3037 96.1811 71.0264 94.6136L73.6364 92.29C74.5197 91.5102 75.4069 90.7503 76.326 90.0261C77.2371 89.2821 78.1642 88.5739 79.0872 87.8657C80.0103 87.1575 80.9373 86.4493 81.8842 85.757L83.2966 84.7186C83.7621 84.3764 84.2515 84.0462 84.717 83.7001L86.1414 82.7014C86.6069 82.3593 87.1002 82.0449 87.5896 81.7147L89.0379 80.728C89.5272 80.3978 90.0047 80.0914 90.498 79.7811L91.9582 78.8342C92.4515 78.5238 92.9489 78.2135 93.4462 77.8992L94.9382 76.9841C95.4316 76.6737 95.9408 76.3992 96.4342 76.0889L97.9302 75.1937C98.4315 74.9032 98.9328 74.6088 99.458 74.3303L100.986 73.4669C101.487 73.1765 102.016 72.9179 102.526 72.6434L104.065 71.8198C104.571 71.5492 105.104 71.2906 105.609 71.0161C109.755 68.8716 113.972 66.8982 118.269 65.064L119.892 64.3836C120.434 64.1648 120.979 63.942 121.52 63.7232L123.155 63.0826C123.696 62.8638 124.253 62.6808 124.794 62.4619C126.982 61.6384 129.187 60.8745 131.395 60.1304C135.827 58.6782 140.347 57.3891 144.994 56.5417C147.317 56.1199 149.677 55.8096 152.108 55.7539H153.031C153.341 55.7539 153.636 55.7539 153.934 55.7698C154.523 55.7857 155.147 55.8375 155.748 55.8932C156.357 55.9688 156.982 56.0364 157.606 56.1717C158.235 56.3229 158.891 56.49 159.576 56.8361C159.926 57.0271 160.28 57.238 160.618 57.6199C160.654 57.6716 160.706 57.6995 160.741 57.7512L160.857 57.9263C160.928 58.0297 161.008 58.153 161.064 58.2843C161.199 58.539 161.259 58.8135 161.298 59.096C161.378 59.657 161.251 60.1543 161.115 60.5522C160.964 60.9739 160.781 61.2763 160.578 61.5866C160.184 62.1795 159.743 62.6648 159.285 63.1105C158.828 63.5561 158.362 63.9659 157.909 64.3478C156.962 65.1237 155.995 65.8239 155.02 66.5043C154.041 67.1647 153.055 67.8053 152.044 68.4339C148.03 70.8927 143.928 73.1089 139.798 75.2494C135.652 77.3939 131.482 79.4588 127.301 81.4879C123.115 83.4972 118.91 85.5104 114.676 87.4281C110.423 89.3498 106.126 91.1839 101.782 92.8629C97.4169 94.5459 93.0404 96.1095 88.6161 97.5816C84.2157 99.0657 79.8034 100.514 75.395 101.962L68.7825 104.111L68.305 104.27L67.8037 104.417L66.7613 104.719C66.061 104.902 65.3369 105.069 64.6208 105.193C63.9046 105.316 63.1964 105.396 62.532 105.487C61.8158 105.547 61.1912 105.627 60.5904 105.718Z" fill="#232323" style="fill:#232323;fill:color(display-p3 0.1375 0.1375 0.1375);fill-opacity:1;"/>
<path d="M156.48 179.021C161.82 167.514 166.98 161.407 176.883 160.874C186.786 160.341 191.119 169.456 191.119 169.456L192.957 175.941L156.48 179.025V179.021Z" fill="#FF814A" style="fill:#FF814A;fill:color(display-p3 1.0000 0.5059 0.2902);fill-opacity:1;"/>
<path d="M214.197 170.104C213.99 170.935 213.553 172.718 206.53 174.695C204.923 175.149 202.965 175.61 200.586 176.076C194.817 177.202 186.569 178.332 174.745 179.338C157.557 180.798 137.23 181.59 118.057 181.594C112.916 181.594 107.863 181.534 102.973 181.419C66.2344 180.548 59.8844 177.452 58.4959 174.238C57.4216 171.751 59.5542 169.372 61.4361 167.275C61.643 167.044 61.8499 166.813 62.0528 166.583C62.5302 166.041 63.3538 165.99 63.8949 166.467C64.436 166.941 64.4917 167.768 64.0143 168.309C63.8034 168.544 63.5925 168.783 63.3777 169.018C62.021 170.533 60.4812 172.248 60.895 173.203C61.8101 175.324 69.8669 178.021 103.033 178.809C126.237 179.358 153.089 178.574 174.86 176.708C186.199 175.734 194.045 174.655 199.476 173.629C203.176 172.937 205.754 172.268 207.549 171.679C211.432 170.402 211.663 169.495 211.663 169.475C211.663 169.475 211.627 169.328 211.352 169.061C211.078 168.795 210.565 168.409 209.614 167.939C208.965 167.617 208.702 166.833 209.025 166.189C209.343 165.544 210.127 165.278 210.771 165.6C213.457 166.933 214.607 168.449 214.197 170.104Z" fill="#232323" style="fill:#232323;fill:color(display-p3 0.1375 0.1375 0.1375);fill-opacity:1;"/>
<path d="M127.569 245.189C105.424 245.189 83.3781 244.731 68.2273 243.689C51.0395 242.511 38.0054 236.782 29.4871 226.668C21.9276 217.696 19.5961 207.225 18.9714 200.019C18.498 194.533 18.5457 183.782 24.2273 173.402C30.5056 161.931 41.6618 154.471 57.3855 151.225C58.0937 151.078 58.782 151.535 58.9292 152.239C59.0764 152.944 58.6189 153.636 57.9146 153.783C21.1517 161.374 20.8056 190.924 21.5735 199.796C22.8148 214.1 30.5454 238.489 68.4064 241.087C102.321 243.415 170.933 242.826 197.391 240.685C227.78 238.226 245.564 227.182 250.255 207.857C253.052 196.323 253.673 186.002 252.097 177.178C251.97 176.469 252.444 175.789 253.152 175.662C253.864 175.534 254.54 176.008 254.668 176.716C256.307 185.899 255.678 196.582 252.794 208.47C250.144 219.395 243.619 227.906 233.398 233.754C224.446 238.883 212.398 242.09 197.602 243.283C182.881 244.473 155.149 245.185 127.569 245.185V245.189Z" fill="#44AC2A" style="fill:#44AC2A;fill:color(display-p3 0.2649 0.6731 0.1629);fill-opacity:1;"/>
<path d="M58.9292 152.24C59.0724 152.944 58.6189 153.636 57.9146 153.779C21.1517 161.371 20.8056 190.92 21.5735 199.797C22.0668 205.502 23.5946 212.807 27.6569 219.698C26.5866 219.515 25.5004 219.308 24.3983 219.085C20.7817 212.226 19.425 205.259 18.9714 200.019C18.498 194.533 18.5457 183.782 24.2273 173.402C30.5056 161.932 41.6618 154.472 57.3855 151.225C58.0937 151.078 58.782 151.531 58.9292 152.24Z" fill="#232323" style="fill:#232323;fill:color(display-p3 0.1375 0.1375 0.1375);fill-opacity:1;"/>
<path d="M252.887 208.054C251.972 208.507 250.961 208.925 249.871 209.307C250.01 208.826 250.138 208.34 250.257 207.851C253.054 196.317 253.675 185.996 252.095 177.171C251.968 176.463 252.441 175.783 253.153 175.659C253.866 175.532 254.538 176.006 254.665 176.714C256.289 185.785 255.692 196.329 252.887 208.054Z" fill="#232323" style="fill:#232323;fill:color(display-p3 0.1375 0.1375 0.1375);fill-opacity:1;"/>
<path d="M176.874 143.535L165.606 149.125C160.856 151.484 155.317 147.876 155.548 142.576L157.024 109.064C157.135 106.529 158.616 104.257 160.887 103.128L172.155 97.5375C176.905 95.1781 182.444 98.7868 182.213 104.086L180.737 137.599C180.626 140.133 179.145 142.405 176.874 143.535Z" fill="#E5E5E5" style="fill:#E5E5E5;fill:color(display-p3 0.8980 0.8980 0.8980);fill-opacity:1;"/>
<path d="M162.501 151.166C160.933 151.166 159.374 150.712 157.997 149.813C155.518 148.198 154.118 145.473 154.245 142.516L155.721 109.004C155.853 105.996 157.611 103.295 160.309 101.958L171.576 96.3678C174.226 95.0548 177.286 95.2339 179.764 96.8452C182.243 98.4606 183.644 101.186 183.516 104.142L182.04 137.654C181.909 140.662 180.15 143.364 177.453 144.701L166.185 150.291C165.008 150.876 163.75 151.162 162.501 151.162V151.166ZM175.261 98.1105C174.405 98.1105 173.542 98.3094 172.738 98.7073L161.471 104.297C159.624 105.212 158.423 107.062 158.331 109.119L156.855 142.632C156.768 144.653 157.727 146.523 159.422 147.625C161.116 148.731 163.213 148.85 165.027 147.951L176.295 142.361C178.141 141.446 179.343 139.596 179.434 137.539L180.91 104.027C180.998 102.006 180.039 100.136 178.344 99.0335C177.401 98.4208 176.335 98.1105 175.261 98.1105Z" fill="#232323" style="fill:#232323;fill:color(display-p3 0.1375 0.1375 0.1375);fill-opacity:1;"/>
<path d="M156.641 180.174C156.557 180.174 156.477 180.166 156.394 180.15C155.686 180.014 155.22 179.33 155.355 178.622C157.727 166.236 168.549 159.588 177.58 159.588C177.62 159.588 177.656 159.588 177.696 159.588C186.64 159.644 193.041 165.612 194.816 175.55C194.943 176.259 194.47 176.939 193.761 177.066C193.057 177.194 192.373 176.72 192.246 176.012C190.71 167.41 185.267 162.25 177.68 162.202C177.648 162.202 177.612 162.202 177.58 162.202C169.599 162.202 160.03 168.11 157.922 179.115C157.802 179.74 157.253 180.177 156.641 180.177V180.174Z" fill="#232323" style="fill:#232323;fill:color(display-p3 0.1375 0.1375 0.1375);fill-opacity:1;"/>
<path d="M99.8584 130.525C107.207 131.058 134.143 120.65 149.265 124.831C164.384 129.013 159.912 154.102 118.896 160.571" fill="#F4D93B" style="fill:#F4D93B;fill:color(display-p3 0.9569 0.8510 0.2314);fill-opacity:1;"/>
<path d="M147 127.998C139.5 124.998 135.5 126.998 112 129.498C113.5 128.998 116.6 127.998 117 127.998C117.5 127.998 127 125.5 127.5 125.5C128 125.5 135.5 124 136.5 124H144L152 125.5L155 128.5L157 132.5C156.833 134.833 156.4 139 156 137C155.5 134.5 154.5 130.998 147 127.998Z" fill="white" style="fill:white;fill-opacity:1;"/>
<path d="M99.8865 130.079C103.101 129.613 106.805 128.384 110.028 127.56C120.424 124.931 130.896 122.161 141.766 122.313C145.383 122.44 149.242 122.846 152.568 124.513C153.153 124.879 153.941 125.301 154.458 125.762C156.495 127.318 157.903 129.641 158.476 132.132C159.193 135.542 158.373 139.126 156.734 142.15C150.794 152.853 137.616 158.319 126.17 160.599C123.786 160.977 121.391 161.196 118.976 161.085C118.682 161.073 118.455 160.826 118.467 160.532C118.475 160.309 118.618 160.13 118.813 160.054C119.931 159.593 121.049 159.211 122.175 158.877C125.493 157.766 128.863 156.903 132.173 155.793C140.588 152.821 150.893 147.768 154.677 139.21C156.121 135.912 156.189 131.961 153.698 129.14C146.847 121.465 123.416 127.604 114.106 129.47C110.637 130.218 107.088 130.922 103.519 131.153C102.31 131.205 101.072 131.233 99.8269 130.974C99.5802 130.922 99.425 130.68 99.4767 130.437C99.5205 130.23 99.6956 130.091 99.8945 130.075L99.8865 130.079Z" fill="#232323" style="fill:#232323;fill:color(display-p3 0.1375 0.1375 0.1375);fill-opacity:1;"/>
<path d="M216.315 84.2409C218.163 84.2409 219.661 82.7429 219.661 80.8949C219.661 79.0469 218.163 77.5488 216.315 77.5488C214.467 77.5488 212.969 79.0469 212.969 80.8949C212.969 82.7429 214.467 84.2409 216.315 84.2409Z" fill="#232323" style="fill:#232323;fill:color(display-p3 0.1375 0.1375 0.1375);fill-opacity:1;"/>
<path d="M177.018 110.921C177.935 110.921 178.678 109.925 178.678 108.697C178.678 107.468 177.935 106.473 177.018 106.473C176.102 106.473 175.359 107.468 175.359 108.697C175.359 109.925 176.102 110.921 177.018 110.921Z" fill="#232323" style="fill:#232323;fill:color(display-p3 0.1375 0.1375 0.1375);fill-opacity:1;"/>
<path d="M111.385 200.651C106.825 204.34 96.4289 208.895 95.5934 214.851C95.1119 222.697 114.512 227.269 120.663 228.709C135.336 231.912 151.14 234.395 165.558 228.884C177.092 224.643 186.398 214.688 179.643 202.191C178.266 199.585 176.448 197.194 174.554 194.795C174.287 194.461 174.343 193.971 174.677 193.705C174.964 193.478 175.366 193.49 175.64 193.705C176.878 194.695 178.015 195.817 179.062 197.031C182.241 200.751 184.409 205.414 184.517 210.431C184.712 220.795 175.481 228.212 166.597 231.562C151.414 237.494 135.428 235.186 119.971 231.824C112.041 229.942 95.6411 226.079 92.7964 217.429C91.0378 211.028 97.4832 206.249 102.174 203.265C104.911 201.634 107.82 200.369 110.891 199.589C111.528 199.426 111.906 200.277 111.389 200.647L111.385 200.651Z" fill="#44AC2A" style="fill:#44AC2A;fill:color(display-p3 0.2649 0.6731 0.1629);fill-opacity:1;"/>
<path d="M111.384 200.649C106.824 204.341 96.4281 208.897 95.5925 214.849C95.4016 217.972 98.3577 220.578 102.376 222.671C100.45 222.611 98.485 222.576 96.4917 222.556C94.7411 221.072 93.4242 219.373 92.7876 217.435C91.029 211.033 97.4744 206.255 102.165 203.271C104.903 201.636 107.811 200.375 110.887 199.591C111.519 199.428 111.901 200.283 111.384 200.649Z" fill="#232323" style="fill:#232323;fill:color(display-p3 0.1375 0.1375 0.1375);fill-opacity:1;"/>
<path d="M184.502 210.431C184.61 216.088 181.908 220.871 177.985 224.587C176.585 224.798 174.898 224.953 173.004 225.068C180.52 219.908 184.829 211.799 179.632 202.187C178.256 199.581 176.438 197.19 174.544 194.79C174.273 194.456 174.333 193.967 174.667 193.7C174.953 193.474 175.355 193.485 175.63 193.704C176.863 194.699 178.005 195.817 179.048 197.034C182.226 200.751 184.395 205.418 184.502 210.431Z" fill="#232323" style="fill:#232323;fill:color(display-p3 0.1375 0.1375 0.1375);fill-opacity:1;"/>
<path d="M27.1771 168.149C41.0556 168.149 52.3064 156.898 52.3064 143.02C52.3064 129.141 41.0556 117.891 27.1771 117.891C13.2986 117.891 2.04785 129.141 2.04785 143.02C2.04785 156.898 13.2986 168.149 27.1771 168.149Z" fill="white" style="fill:white;fill-opacity:1;"/>
<path d="M25.5227 146.823C30.9524 146.823 35.354 142.421 35.354 136.991C35.354 131.562 30.9524 127.16 25.5227 127.16C20.093 127.16 15.6914 131.562 15.6914 136.991C15.6914 142.421 20.093 146.823 25.5227 146.823Z" fill="#FFB871" style="fill:#FFB871;fill:color(display-p3 1.0000 0.7216 0.4431);fill-opacity:1;"/>
<path d="M27.1665 169.456C14.8167 169.456 3.74411 160.735 1.24949 148.171C-0.127129 141.244 1.27734 134.198 5.20031 128.329C9.12327 122.46 15.0992 118.47 22.0221 117.093C28.949 115.717 35.9952 117.121 41.8637 121.044C47.7323 124.967 51.7229 130.943 53.0995 137.866C54.4761 144.789 53.0716 151.839 49.1487 157.707C45.2257 163.576 39.2497 167.567 32.3269 168.943C30.5961 169.285 28.8694 169.453 27.1665 169.453V169.456ZM27.2262 119.19C25.6666 119.19 24.099 119.345 22.5354 119.656C16.2928 120.897 10.9097 124.494 7.37266 129.781C3.83562 135.069 2.57041 141.423 3.81175 147.661C6.37003 160.544 18.9386 168.943 31.8176 166.385C38.0601 165.144 43.4433 161.547 46.9803 156.259C50.5173 150.972 51.7825 144.618 50.5412 138.379C49.2999 132.137 45.7031 126.753 40.4155 123.216C36.4527 120.567 31.8892 119.19 27.2262 119.19Z" fill="#232323" style="fill:#232323;fill:color(display-p3 0.1375 0.1375 0.1375);fill-opacity:1;"/>
<path d="M25.3212 149.271C19.938 149.271 15.1119 145.472 14.0217 139.993C12.7844 133.762 16.8466 127.683 23.0772 126.446C26.097 125.845 29.1685 126.458 31.7268 128.168C34.2851 129.879 36.0238 132.485 36.6246 135.501C37.2253 138.521 36.6126 141.592 34.9018 144.151C33.191 146.709 30.5849 148.448 27.5691 149.048C26.8132 149.2 26.0612 149.271 25.3212 149.271ZM25.3411 129.008C24.7681 129.008 24.1952 129.064 23.6183 129.179C18.8916 130.118 15.8121 134.725 16.7511 139.452C17.6901 144.178 22.3013 147.258 27.024 146.319C29.3118 145.865 31.2892 144.545 32.5862 142.603C33.8833 140.661 34.3488 138.334 33.8912 136.042C33.4376 133.754 32.1167 131.777 30.1751 130.48C28.7189 129.509 27.0479 129.004 25.3371 129.004L25.3411 129.008Z" fill="black" style="fill:black;fill-opacity:1;"/>
<path d="M20.2398 160.974C20.1125 160.974 19.9812 160.958 19.8499 160.926C18.9985 160.711 18.4812 159.848 18.6961 158.993C21.0395 149.682 26.7688 147.065 29.9716 146.332C34.8535 145.218 40.2247 146.981 43.336 150.713C43.9009 151.389 43.8094 152.392 43.1331 152.953C42.4567 153.514 41.4541 153.426 40.8931 152.75C38.5297 149.913 34.4238 148.584 30.6838 149.436C26.3749 150.419 23.2159 154.087 21.7835 159.768C21.6005 160.489 20.952 160.97 20.2398 160.97V160.974Z" fill="black" style="fill:black;fill-opacity:1;"/>
<path d="M12.6767 137.83C12.3783 137.83 12.0799 137.822 11.7696 137.803C10.8903 137.747 10.2259 136.991 10.2816 136.112C10.3373 135.232 11.1091 134.568 11.9725 134.624C15.0878 134.823 16.9299 133.689 17.9286 132.702C18.5652 132.073 18.9193 131.449 19.0904 131.003C18.8556 130.828 18.6646 130.585 18.5532 130.291C18.2429 129.467 18.6567 128.552 19.4803 128.238C20.3436 127.912 21.2388 128.099 21.8157 128.731C22.6075 129.595 22.6194 131.015 21.8515 132.626C20.6221 135.201 17.5864 137.83 12.6767 137.83Z" fill="black" style="fill:black;fill-opacity:1;"/>
<path d="M27.9793 132.156C27.1478 132.156 26.2924 132.049 25.4569 131.778C23.559 131.162 22.1108 129.845 21.1559 127.867C20.774 127.076 21.1042 126.125 21.8959 125.743C22.6877 125.361 23.6386 125.691 24.0206 126.483C24.5895 127.661 25.3773 128.405 26.4277 128.747C28.9899 129.586 32.2564 127.887 32.2882 127.867C33.0641 127.458 34.0269 127.752 34.4407 128.524C34.8545 129.3 34.564 130.259 33.7882 130.672C33.645 130.748 30.9832 132.152 27.9754 132.152L27.9793 132.156Z" fill="black" style="fill:black;fill-opacity:1;"/>
<path d="M23.5381 140.752C24.3094 140.752 24.9346 140.127 24.9346 139.356C24.9346 138.584 24.3094 137.959 23.5381 137.959C22.7668 137.959 22.1416 138.584 22.1416 139.356C22.1416 140.127 22.7668 140.752 23.5381 140.752Z" fill="black" style="fill:black;fill-opacity:1;"/>
<path d="M27.4463 139.225C28.2176 139.225 28.8428 138.599 28.8428 137.828C28.8428 137.057 28.2176 136.432 27.4463 136.432C26.675 136.432 26.0498 137.057 26.0498 137.828C26.0498 138.599 26.675 139.225 27.4463 139.225Z" fill="black" style="fill:black;fill-opacity:1;"/>
<path d="M167.121 226.705C166.751 226.705 166.381 226.705 166.007 226.697C154.871 226.538 137.532 225.87 119.174 225.161C91.8167 224.107 60.811 222.91 43.2849 223.144C42.9627 223.148 42.6404 223.152 42.3221 223.152C23.4035 223.152 9.95963 215.597 9.63338 208.646C9.54585 206.788 10.4052 202.388 20.2206 201.608C20.9288 201.552 21.5694 202.085 21.6251 202.805C21.6808 203.525 21.1437 204.154 20.4275 204.21C15.1956 204.624 12.136 206.239 12.2394 208.523C12.4383 212.859 23.2643 220.801 43.2452 220.534C60.8348 220.296 91.8804 221.493 119.27 222.551C137.611 223.26 154.934 223.928 166.039 224.083C180.708 224.294 193.623 220.172 205.014 216.54C215.088 213.325 224.601 210.293 233.799 210.667C245.461 211.145 256.422 206.227 258.563 202.766C258.674 202.587 258.921 202.141 258.793 201.914C258.563 201.5 257.234 200.792 253.701 200.768C252.981 200.764 252.4 200.175 252.404 199.451C252.408 198.735 252.993 198.154 253.709 198.154C253.709 198.154 253.717 198.154 253.721 198.154C257.763 198.182 260.17 198.998 261.081 200.649C261.411 201.242 261.809 202.487 260.787 204.138C258.328 208.121 247.681 213.309 235.447 213.309C234.866 213.309 234.285 213.297 233.7 213.273C224.959 212.915 215.657 215.883 205.814 219.022C194.522 222.627 181.755 226.697 167.125 226.697L167.121 226.705Z" fill="#232323" style="fill:#232323;fill:color(display-p3 0.1375 0.1375 0.1375);fill-opacity:1;"/>
<path d="M20.1397 194.986L15.5822 194.893L15.5697 196.395C15.5654 197.014 15.0695 197.518 14.4489 197.535C13.778 197.551 13.2366 196.988 13.2756 196.321L13.7423 188.398C13.7784 187.76 14.3305 187.277 14.9665 187.322L15.0055 187.326C15.6277 187.367 16.1016 187.901 16.0734 188.524L15.9984 190.158L20.5955 190.126L20.4757 194.729" fill="#232323" style="fill:#232323;fill:color(display-p3 0.1375 0.1375 0.1375);fill-opacity:1;"/>
<path d="M62.653 166.568C58.3839 170.957 58.7977 175.294 68.3465 177.187C77.8953 179.081 69.8305 176.829 69.8305 176.829L62.653 166.568Z" fill="#232323" style="fill:#232323;fill:color(display-p3 0.1375 0.1375 0.1375);fill-opacity:1;"/>
<path d="M208.925 166.482L207.369 172.498L213.659 169.876L208.925 166.482Z" fill="#232323" style="fill:#232323;fill:color(display-p3 0.1375 0.1375 0.1375);fill-opacity:1;"/>
<path d="M5.23802 205.155C3.24073 207.423 0.511362 210.351 1.84422 213.53C3.92904 217.859 11.592 220.031 15.9764 221.476C16.2908 221.567 16.1953 222.068 15.8571 222.021C13.5495 221.718 11.2657 221.213 9.03765 220.457C4.75262 219.056 -1.45808 215.663 0.308449 210.248C0.730188 209.026 1.46226 208.012 2.27789 207.136C3.10545 206.269 4.03248 205.533 5.00726 204.888C5.17436 204.777 5.37329 205.012 5.23404 205.155H5.23802Z" fill="#348420" style="fill:#348420;fill:color(display-p3 0.2039 0.5176 0.1255);fill-opacity:1;"/>
<path d="M27.8285 230.602C39.5218 230.633 51.4458 231.25 63.1352 231.843C69.9665 232.221 77.4981 232.611 84.2937 233.072C84.4171 233.08 84.5125 233.188 84.5046 233.315C84.4966 233.43 84.4011 233.522 84.2858 233.526C79.571 233.661 74.8523 233.637 70.1416 233.546C60.8633 233.359 51.1474 232.881 41.897 232.296C37.1942 231.998 32.4954 231.668 27.8006 231.25C27.6216 231.234 27.4903 231.079 27.5062 230.9C27.5221 230.733 27.6614 230.606 27.8285 230.606V230.602Z" fill="#348420" style="fill:#348420;fill:color(display-p3 0.2039 0.5176 0.1255);fill-opacity:1;"/>
<path d="M220.949 222.403C238.388 218.52 256.053 214.713 272.525 207.658C274.641 206.664 280.379 204.046 280.426 201.519C280.12 198.794 272.23 197.059 269.827 196.331C269.489 196.248 269.585 195.722 269.931 195.766C270.75 195.854 271.566 195.961 272.378 196.096C275.485 196.626 283.172 198.122 281.847 202.621C278.843 210.364 248.828 217.343 240.353 219.388C233.972 220.844 227.546 222.129 221.065 223.076C220.878 223.104 220.707 222.972 220.679 222.789C220.651 222.61 220.77 222.443 220.945 222.407L220.949 222.403Z" fill="#348420" style="fill:#348420;fill:color(display-p3 0.2039 0.5176 0.1255);fill-opacity:1;"/>
<path d="M188.054 232.451C193.898 231.54 199.93 230.9 205.814 230.331C207.792 230.148 209.777 229.985 211.77 229.893C212.105 229.873 212.2 230.379 211.862 230.466C206.049 231.958 200.065 232.674 194.077 232.941C192.08 233.02 190.075 233.02 188.073 232.889C187.823 232.873 187.795 232.491 188.054 232.451Z" fill="#348420" style="fill:#348420;fill:color(display-p3 0.2039 0.5176 0.1255);fill-opacity:1;"/>
<path d="M20.3046 202.748C20.1853 202.768 20.0659 202.784 19.9465 202.804C9.33145 204.511 9.30758 209.066 12.3592 211.939C15.4109 214.811 24.9358 218.937 24.9358 218.937L21.4346 207.67" fill="#232323" style="fill:#232323;fill:color(display-p3 0.1375 0.1375 0.1375);fill-opacity:1;"/>
<path d="M253.289 199.975C253.289 199.975 251.893 207.447 251.893 207.713C251.893 207.98 256.651 207.18 257.853 205.266C259.054 203.352 259.723 202.02 259.723 202.02L258.609 200.197L253.285 199.975H253.289Z" fill="#232323" style="fill:#232323;fill:color(display-p3 0.1375 0.1375 0.1375);fill-opacity:1;"/>
<path d="M126.945 159.591C147.821 154.709 154.7 150.44 154.7 150.44C157.191 152.278 162.59 153.109 168.164 150.44C173.738 147.77 179.209 145.872 183.347 147.889C187.485 149.907 177.299 144.034 177.299 144.034L163.422 150.44L159.212 148.55L155.643 144.329L154.999 143.02L140.29 154.152L126.945 159.587V159.591Z" fill="#232323" style="fill:#232323;fill:color(display-p3 0.1375 0.1375 0.1375);fill-opacity:1;"/>
<path d="M155.617 58.425C158.239 58.8786 157.973 60.6411 157.046 61.596C156.118 62.5509 158.195 62.0177 158.195 62.0177L159.202 60.5337L159.409 59.1093C159.409 59.1093 157.734 57.9078 157.69 57.8919C157.646 57.8759 156.015 57.6094 156.015 57.6094L155.617 58.417V58.425Z" fill="#232323" style="fill:#232323;fill:color(display-p3 0.1375 0.1375 0.1375);fill-opacity:1;"/>
<path d="M236.99 35.6738C239.187 34.7143 241.685 34.7841 243.828 35.8555C245.549 36.7157 246.899 38.1548 247.678 39.9014C249.636 38.7356 252.004 38.4415 254.212 39.1357C254.241 39.1424 254.27 39.148 254.298 39.1572C256.371 39.8341 258.091 41.3191 259.087 43.2861C260.083 45.2503 260.271 47.5395 259.617 49.6436V49.6445C258.467 53.3422 254.976 55.7978 251.541 57.4727C248.084 59.1581 244.326 60.2113 242.438 60.8818L242.437 60.8809C241.562 61.1931 240.603 60.8731 240.077 60.1191V60.1201C238.911 58.454 236.442 55.38 234.573 51.9658C232.718 48.5751 231.259 44.5196 232.407 40.8291H232.406C233.123 38.5188 234.795 36.6327 236.99 35.6738Z" fill="#FF5A5A" stroke="#232323" style="fill:#FF5A5A;fill:color(display-p3 1.0000 0.3529 0.3529);fill-opacity:1;stroke:#232323;stroke:color(display-p3 0.1375 0.1375 0.1375);stroke-opacity:1;" stroke-width="2" stroke-linejoin="round"/>
<path d="M82.8144 9.50344C83.5936 7.82383 85.0735 6.58551 86.8606 6.10804C88.2035 5.74934 89.6175 5.8493 90.8929 6.36387C91.4664 4.81642 92.6316 3.54638 94.1663 2.85571C94.1916 2.84202 94.2167 2.82771 94.2434 2.81612C95.7882 2.14652 97.5415 2.12469 99.1212 2.75122C100.601 3.33694 101.815 4.45015 102.536 5.86194L102.674 6.14842C103.897 8.8653 103.129 12.0278 102.043 14.6525C100.947 17.2994 99.3634 19.756 98.658 21.0318L98.6566 21.0318C98.2673 21.7382 97.4592 22.0817 96.6864 21.8942L96.6858 21.8935C95.2455 21.5479 92.3385 21.0491 89.6131 20.0682C86.911 19.0958 84.0222 17.5334 82.8019 14.8227C82.0358 13.1238 82.0362 11.1809 82.8144 9.50344Z" fill="#FF5A5A" stroke="#232323" style="fill:#FF5A5A;fill:color(display-p3 1.0000 0.3529 0.3529);fill-opacity:1;stroke:#232323;stroke:color(display-p3 0.1375 0.1375 0.1375);stroke-opacity:1;" stroke-width="2" stroke-linejoin="round"/>
<path d="M7.55727 105.506C8.40791 103.264 10.2042 101.528 12.4689 100.745C14.2873 100.116 16.2603 100.157 18.0531 100.822C18.589 98.6076 20.0353 96.7086 22.0752 95.6162C22.1 95.6003 22.1243 95.5835 22.1507 95.5698C24.0842 94.5612 26.3487 94.3702 28.4511 95.0339C30.5517 95.6955 32.3193 97.1622 33.3664 99.1006L33.3671 99.1013C35.206 102.509 34.52 106.722 33.315 110.349C32.1023 113.998 30.2273 117.421 29.3857 119.24L29.3843 119.24C28.996 120.083 28.0963 120.545 27.1899 120.394L27.1906 120.395C25.1843 120.063 21.26 119.678 17.5128 118.626C13.7915 117.582 9.87267 115.788 8.03739 112.387L8.03671 112.387C6.88652 110.259 6.70747 107.745 7.55727 105.506Z" fill="#FF5A5A" stroke="#232323" style="fill:#FF5A5A;fill:color(display-p3 1.0000 0.3529 0.3529);fill-opacity:1;stroke:#232323;stroke:color(display-p3 0.1375 0.1375 0.1375);stroke-opacity:1;" stroke-width="2" stroke-linejoin="round"/>
</g>
<path d="M107.052 59.0961L98.7353 63.168C99.9423 64.5484 101.542 64.7703 103.494 63.7993C104.369 63.378 104.998 62.8051 105.374 62.1106C105.692 61.5256 106.31 61.1719 106.975 61.2117C108.199 61.2909 108.946 62.6163 108.357 63.695C107.648 64.9941 106.499 66.0294 104.902 66.808C102.803 67.836 100.791 68.0389 98.883 67.3875C96.9734 66.7321 95.5555 65.4333 94.6121 63.4935C93.684 61.5934 93.5228 59.6891 94.1451 57.7648C94.7567 55.8721 96.0477 54.4344 98.0435 53.4464C99.9436 52.5184 101.772 52.4093 103.61 53.1154C105.468 53.8138 106.854 55.1019 107.809 57.0141C107.809 57.0141 107.813 57.0221 107.814 57.0261C108.162 57.8061 107.817 58.722 107.052 59.0961ZM98.1879 60.2789L103.176 57.8299C103.568 57.6369 103.64 57.1015 103.304 56.8245C102.865 56.4593 102.388 56.2188 101.861 56.0982C101.078 55.9439 100.278 56.0388 99.5149 56.4305C98.6285 56.8698 98.0107 57.4476 97.6477 58.1874C97.4079 58.6782 97.2992 59.2006 97.3097 59.7591C97.3199 60.1988 97.7921 60.4733 98.184 60.2804L98.1879 60.2789Z" fill="white" style="fill:white;fill-opacity:1;"/>
<defs>
<clipPath id="clip0_22926_27757">
<rect width="282" height="245.189" fill="white" style="fill:white;fill-opacity:1;"/>
</clipPath>
</defs>
</svg>
