<svg width="17" height="17" viewBox="0 0 17 17" fill="none" xmlns="http://www.w3.org/2000/svg">
<path d="M7.08317 14.569C4.6546 15.3887 2.63079 14.569 1.4165 12.042" stroke="#979797" stroke-width="1.2" stroke-linecap="round" stroke-linejoin="round"/>
<path d="M7.08317 15.5837V13.2872C7.08317 12.8634 7.21343 12.495 7.42345 12.1623C7.56753 11.934 7.46886 11.6102 7.20862 11.5386C5.05304 10.9461 3.5415 9.99328 3.5415 6.83295C3.5415 6.01132 3.81071 5.23885 4.28392 4.56652C4.40168 4.3992 4.46056 4.31555 4.47472 4.23977C4.48887 4.164 4.46426 4.06511 4.41503 3.86734C4.21469 3.06239 4.22767 2.20763 4.52837 1.43699C4.52837 1.43699 5.14972 1.23454 6.56395 2.11802C6.88684 2.31974 7.04829 2.4206 7.19048 2.44316C7.33265 2.46572 7.52276 2.41846 7.90292 2.32395C8.42284 2.19471 8.95855 2.12532 9.56234 2.12532C10.1661 2.12532 10.7018 2.19471 11.2218 2.32395C11.6019 2.41846 11.792 2.46572 11.9342 2.44316C12.0764 2.4206 12.2379 2.31974 12.5607 2.11802C13.975 1.23454 14.5963 1.43699 14.5963 1.43699C14.897 2.20763 14.91 3.06239 14.7097 3.86734C14.6604 4.06511 14.6358 4.164 14.6499 4.23977C14.6641 4.31554 14.723 4.39921 14.8408 4.56652C15.3139 5.23885 15.5832 6.01132 15.5832 6.83295C15.5832 9.99328 14.0717 10.9461 11.9161 11.5386C11.6558 11.6102 11.5571 11.934 11.7012 12.1623C11.9112 12.495 12.0415 12.8634 12.0415 13.2872V15.5837" stroke="#979797" stroke-width="1.2" stroke-linecap="round" stroke-linejoin="round"/>
</svg>
