<svg width="17" height="17" viewBox="0 0 17 17" fill="none" xmlns="http://www.w3.org/2000/svg">
<path d="M12.0418 9.56217V5.66634C12.0418 4.68834 11.249 3.89551 10.271 3.89551C9.293 3.89551 8.50016 4.68834 8.50016 5.66634M8.50016 5.66634V8.14551M8.50016 5.66634C8.50016 4.68834 7.70733 3.89551 6.72933 3.89551C5.75133 3.89551 4.9585 4.68834 4.9585 5.66634V9.56217" stroke="#979797" stroke-width="1.2" stroke-linecap="round" stroke-linejoin="round"/>
<path d="M9.20833 12.0387C10.632 12.0387 11.9637 11.8207 13.1006 11.4417C14.257 11.0561 14.875 9.88243 14.875 8.66338V5.32946C14.875 3.78838 14.046 2.32217 12.5574 1.92345C11.3517 1.60049 9.96937 1.41699 8.5 1.41699C7.03063 1.41699 5.64835 1.60049 4.44259 1.92345C2.95398 2.32217 2.125 3.78839 2.125 5.32946V10.2684C2.125 15.9334 7.79167 15.5793 7.79167 15.5793C9.5625 15.5793 10.625 14.8753 10.625 14.8753V14.167C10.625 14.167 9.5625 14.5171 7.79167 14.5171C4.0234 14.5171 5.00091 11.3306 5.00091 11.3306C6.20345 11.7778 7.65085 12.0387 9.20833 12.0387Z" stroke="#979797" stroke-width="1.2" stroke-linecap="round" stroke-linejoin="round"/>
</svg>
