<svg width="20" height="20" viewBox="0 0 20 20" fill="none" xmlns="http://www.w3.org/2000/svg">
<path d="M9.5999 17.6002C13.5764 17.6002 16.7999 15.2721 16.7999 12.4002C16.7999 9.52831 13.5764 7.2002 9.5999 7.2002C5.62345 7.2002 2.3999 9.52831 2.3999 12.4002C2.3999 15.2721 5.62345 17.6002 9.5999 17.6002Z" stroke="#979797" stroke-width="1.2"/>
<path d="M12.3998 13.4238C11.6117 14.038 10.6448 14.3997 9.5998 14.3997C8.55484 14.3997 7.5879 14.038 6.7998 13.4238" stroke="#979797" stroke-width="1.2" stroke-linecap="round"/>
<path d="M15.2001 4.79961C16.0838 4.79961 16.8001 4.08327 16.8001 3.19961C16.8001 2.31595 16.0838 1.59961 15.2001 1.59961C14.3164 1.59961 13.6001 2.31595 13.6001 3.19961C13.6001 4.08327 14.3164 4.79961 15.2001 4.79961Z" stroke="#979797" stroke-width="1.2"/>
<path d="M14.3999 8.05572C14.6949 7.54462 15.2506 7.2002 15.8875 7.2002C16.8333 7.2002 17.5999 7.95956 17.5999 8.89628C17.5999 9.5498 17.2268 10.1169 16.6801 10.4002" stroke="#979797" stroke-width="1.2" stroke-linecap="round"/>
<path d="M4.8001 8.05572C4.5051 7.54462 3.9494 7.2002 3.31248 7.2002C2.36676 7.2002 1.6001 7.95956 1.6001 8.89628C1.6001 9.5498 1.97322 10.1169 2.51995 10.4002" stroke="#979797" stroke-width="1.2" stroke-linecap="round"/>
<path d="M13.6001 3.2002C11.7145 3.2002 10.7717 3.2002 10.1859 3.78598C9.6001 4.37177 9.6001 5.31458 9.6001 7.2002" stroke="#979797" stroke-width="1.2" stroke-linecap="round" stroke-linejoin="round"/>
<path d="M7.20697 10.4004H7.19922" stroke="#979797" stroke-width="1.6" stroke-linecap="round" stroke-linejoin="round"/>
<path d="M12.0068 10.4004H11.999" stroke="#979797" stroke-width="1.6" stroke-linecap="round" stroke-linejoin="round"/>
</svg>
