<svg width="101" height="30" viewBox="0 0 101 30" fill="none" xmlns="http://www.w3.org/2000/svg">
<g clip-path="url(#clip0_22921_27711)">
<path d="M9.8303 1.85491C12.5596 1.62427 16.8698 2.53023 18.4689 5.06849C19.4894 6.68858 19.0549 8.9984 17.4483 10.0419C14.8556 11.7274 12.8919 8.22883 10.3013 8.87754C9.34853 9.11595 8.95709 10.0862 9.58726 10.9024C10.1454 11.6232 13.7092 12.6943 14.8168 13.2654C18.3527 15.0884 20.1464 18.0381 19.2345 22.1887C17.5946 29.6527 7.46338 31.2373 2.23164 26.9081C0.0174268 25.0762 -1.22679 21.0421 1.79073 19.3821C4.8631 17.691 6.59555 21.2428 9.47757 21.4324C10.5637 21.5034 11.7767 20.9833 11.4369 19.6327C11.1605 18.536 8.24949 17.8052 7.27626 17.3861C-2.10538 13.3475 0.336816 2.65664 9.8303 1.85491Z" fill="white" style="fill:white;fill-opacity:1;"/>
<path d="M50.4329 5.49523C60.6167 4.79774 61.6244 18.0446 59.536 25.7913C58.8381 28.2808 56.1292 29.5882 53.9988 28.0102C53.7988 27.8561 53.6203 27.6653 53.4525 27.4768C53.2461 27.255 53.0331 26.9756 52.7342 26.9656C52.175 26.9922 51.5588 27.5877 51.02 27.8006C47.0906 29.6436 41.9976 26.7716 41.7965 22.224C41.6889 20.7725 41.9932 19.22 42.7073 18.0013C44.172 15.4875 46.9346 14.2943 49.8145 14.3187C50.3318 14.3209 50.8297 14.4008 51.3426 14.5116C51.9986 14.6491 53.2568 15.0018 52.8406 13.8341C52.2632 12.3149 50.592 11.6773 49.137 12.0821C47.981 12.356 46.9314 13.029 45.7646 12.5489C44.7925 12.1608 44.2107 11.043 44.244 9.99068C44.444 7.07651 47.8928 5.72477 50.4124 5.49745H50.4339L50.4329 5.49523ZM50.0124 18.9184C49.0703 19.1058 48.3294 20.0129 48.3832 20.9964C48.3961 21.847 49.1112 22.5167 49.9081 22.6664C51.6588 23.1 53.4342 21.0519 52.5169 19.7234C51.9728 18.9383 50.9093 18.7288 50.0328 18.9139L50.0113 18.9184H50.0124Z" fill="white" style="fill:white;fill-opacity:1;"/>
<path d="M89.1858 6.39819C93.3884 6.00342 97.8114 9.19371 96.2736 13.9287C95.6166 15.9513 93.5131 17.6823 91.7516 18.6836C91.3494 18.912 89.803 19.5364 89.6385 19.7171C89.2793 20.1119 89.9988 20.3902 90.2859 20.4889C91.2559 20.8238 92.2775 20.6796 93.212 20.2993C95.4133 19.4022 96.4575 15.5044 99.4514 17.2432C101.74 18.5716 101.181 21.8085 99.7837 23.6415C96.2758 28.2412 88.5448 28.26 84.3724 24.594C77.962 18.9631 80.3762 7.22542 89.1879 6.39929L89.1858 6.39819ZM86.9619 15.6375C87.8544 16.2895 89.9117 14.9245 90.4881 14.095C91.7269 12.2576 89.6708 11.2651 88.1545 12.1744C87.5136 12.537 87.0576 13.1791 86.821 13.8865C86.6296 14.4343 86.5124 15.2605 86.9501 15.6264L86.9619 15.6364V15.6375Z" fill="white" style="fill:white;fill-opacity:1;"/>
<path d="M71.5733 5.51042C74.9436 5.18774 78.7138 7.04624 78.245 11.0604C78.1256 12.0806 77.2417 13.4135 76.2211 13.6275C74.2392 14.0434 73.3369 12.0141 71.1991 13.103C67.6654 14.9016 68.6009 22.1283 73.7488 21.1613C75.3296 20.8642 76.5706 19.0023 78.4192 20.3241C80.5528 21.8511 80.1387 24.9271 78.3654 26.586C75.2285 29.5224 69.4473 28.9757 66.3287 26.2534C59.6419 20.4184 62.1777 6.40863 71.5733 5.51042Z" fill="white" style="fill:white;fill-opacity:1;"/>
<path fill-rule="evenodd" clip-rule="evenodd" d="M41.9042 8.76038C40.5244 -1.56231 26.6036 -3.47072 23.1108 6.86195C21.4633 11.7355 21.1611 23.3612 23.7119 27.8511C25.7766 31.4838 31.0406 30.2906 30.9621 25.9183C30.9277 23.9977 29.8609 22.3011 29.6674 20.4359C29.7599 20.3394 31.4461 20.742 31.7644 20.7675C38.2435 21.2798 42.7505 15.0855 41.9042 8.76038ZM36.5165 11.2964C35.882 13.3534 32.5946 14.1795 31.3622 14.622C31.2234 14.6708 31.0718 14.6209 30.9869 14.4989C30.2276 13.4044 28.007 10.7719 28.6415 8.71491C28.8382 8.07397 29.2964 7.55501 29.8953 7.29109C30.4943 7.02718 31.1751 7.04492 31.7601 7.33988C32.3451 7.63485 32.7763 8.17932 32.9419 8.82802C33.5291 8.31904 34.3292 8.15603 35.0604 8.39555C35.6261 8.58184 36.0982 8.99214 36.3713 9.53549C36.6434 10.08 36.6961 10.7131 36.5165 11.2964Z" fill="white" style="fill:white;fill-opacity:1;"/>
</g>
<defs>
<clipPath id="clip0_22921_27711">
<rect width="101" height="30" fill="white" style="fill:white;fill-opacity:1;"/>
</clipPath>
</defs>
</svg>
