<svg width="73" height="66" viewBox="0 0 73 66" fill="none" xmlns="http://www.w3.org/2000/svg">
<g clip-path="url(#clip0_5320_28415)">
<path d="M1.50977 29.5L2.00977 62L3.50977 64.5H64.5098L67.0098 63V29.5L41.5098 43.5L46.5098 15.5L35.5098 12L27.0098 13.5L1.50977 29.5Z" fill="white"/>
<path d="M16 63.9992C7.00003 63.9992 9.50003 54.9992 26 42.9992C27 42.1659 29.2 40.3992 30 39.9992C31 39.4992 33 37.4992 39.5 41.4992C46 45.4992 58 55.4992 63.5 58.9992C69 62.4992 67 63.9992 63.5 63.9992H16Z" fill="#75FF8A" fill-opacity="0.31"/>
<path d="M26.919 42.0612L2.25098 29.1787L20.7618 17.3905C20.7618 17.3905 23.5734 14.9821 29.3327 12.8878C35.0919 10.7935 39.5135 16.4978 39.5135 16.4978L12.0548 33.4563L26.919 42.0612Z" fill="#75FF8A" fill-opacity="0.31"/>
<path d="M60.3886 0.503081C60.7263 1.74656 60.763 2.99266 60.7106 4.25447C60.64 5.52151 60.4619 6.75451 59.9148 7.93255C59.7446 8.28596 59.3232 8.43518 58.9698 8.26502C58.7891 8.17863 58.6609 8.02417 58.6033 7.84878C58.3938 7.21264 58.3101 6.58697 58.2656 5.96131C58.1792 4.07645 58.386 2.18898 59.0876 0.41931C59.2394 0.0685176 59.6452 -0.0937893 59.996 0.0554284C60.1949 0.1392 60.3337 0.30936 60.3886 0.503081Z" fill="black"/>
<path d="M63.1272 9.50472C64.5513 6.82666 66.7137 4.71405 68.9729 2.74281C69.7373 2.10143 70.5279 1.48624 71.3944 0.946958C71.5881 0.826537 71.8394 0.886748 71.9599 1.07785C72.041 1.21136 72.0384 1.37105 71.9677 1.49671C71.4598 2.38416 70.8761 3.19831 70.2635 3.98629C69.0279 5.54653 67.6928 7.01514 66.1875 8.31883C65.4257 8.96283 64.6351 9.57802 63.7267 10.0806C63.3628 10.2901 62.9309 9.87122 63.1272 9.50472Z" fill="black"/>
<path d="M65.5375 14.5169C66.4511 13.8362 67.5558 13.7158 68.6475 13.7813C69.0061 13.8153 69.3674 13.8729 69.7391 14.0143C70.4617 14.2656 70.5716 15.318 69.9302 15.7185C68.6789 16.4593 67.0925 16.7316 65.7207 16.1635C65.0715 15.8756 64.972 14.9384 65.5349 14.5169H65.5375Z" fill="black"/>
<path d="M12.0557 34.355L52.834 5.93555L68.0515 23.3888L54.4178 35.6377L42.0432 42.9101L35.064 38.2739L32.5168 38.9414L26.9198 42.0619L12.0557 34.355Z" fill="#08C225"/>
<path d="M54 7.5L15.5 36L13 34.5L53 5.5L54 7.5Z" fill="white"/>
<path d="M8.21749 55.3617C14.1862 50.4637 20.346 45.7804 26.4744 41.0944C28.9299 39.0473 31.5504 36.9451 35.1552 37.8117C37.8856 38.4975 39.9773 40.2253 41.9878 41.9714C43.6842 43.5003 45.4643 44.9558 47.2837 46.3432C52.1529 50.0082 57.2525 53.5528 62.5353 56.5712C63.9176 57.2911 65.4595 58.2073 66.5406 59.4534C68.1087 61.1053 68.6323 63.7075 66.1087 64.7598C64.517 65.3855 62.8154 65.1813 61.1688 65.2494C47.3937 65.2756 33.2154 65.0269 19.4638 65.0844C15.9977 65.0949 12.5212 65.1159 9.06829 65.1735C7.01327 65.2023 5.03679 65.4614 2.97916 64.8305C0.950325 64.1918 0.497436 62.3566 1.7828 60.6603C2.52889 59.6288 3.56032 58.8068 4.57867 58.1079C5.82215 57.2309 7.04992 56.312 8.21749 55.3644V55.3617ZM9.50023 56.9455C8.25937 57.9299 7.0028 58.8461 5.7122 59.7362C4.81689 60.3357 3.99751 60.9639 3.35875 61.8017C3.14409 62.121 2.97654 62.3619 2.98701 62.6315C2.97916 62.6551 3.00534 62.6629 3.02366 62.7074C3.66504 63.2205 4.70433 63.2807 5.62057 63.354C7.0761 63.4352 8.70179 63.2991 10.1861 63.3279C25.6498 63.3331 41.0715 63.5321 56.5274 63.464C58.8258 63.4431 61.1479 63.4431 63.4332 63.3514C64.2867 63.3095 65.3286 63.2808 65.8862 62.6656C66.2186 62.0739 65.5171 61.2153 65.1087 60.7414C64.1191 59.6603 62.9463 59.0032 61.5929 58.3068C58.8284 56.7937 56.2184 55.1288 53.6163 53.4245C49.7262 50.8407 45.9067 48.1417 42.3124 45.1469C41.1658 44.1887 40.0008 43.0945 38.815 42.1939C37.5636 41.2384 36.273 40.4557 34.8986 40.0447C34.6683 40.0159 34.417 39.9295 34.1918 39.9033C33.9222 39.8771 33.5269 39.8431 33.2599 39.8745C31.0949 40.0264 29.6577 41.4243 27.8645 42.8353C21.723 47.5239 15.5265 52.1051 9.50809 56.9429L9.50023 56.9455Z" fill="black"/>
<path d="M0.936836 62.5588C1.08605 51.4408 0.531069 40.3411 0.00226234 29.2414C-0.063184 28.4141 0.876625 27.8042 1.60439 28.1916C1.62795 28.1785 27.3562 41.1945 27.3824 41.1893C27.9374 41.4694 28.1599 42.1448 27.8798 42.6998C27.5997 43.2548 26.9243 43.4773 26.3693 43.1972L0.620076 30.2152L2.251 29.1786C2.34524 40.2913 2.41069 51.4041 3.18295 62.496C3.23793 64.0327 0.978722 64.1243 0.934218 62.5588H0.936836Z" fill="black"/>
<path d="M41.09 42.1281C41.1293 42.1072 66.3864 28.2221 66.423 28.2012C66.9544 27.908 67.622 28.1017 67.9152 28.6357C68.0147 28.8164 68.0566 29.0179 68.0513 29.209C67.9963 30.5625 67.9702 31.9159 67.9309 33.2719C67.8524 37.2171 67.8079 41.5391 67.8183 45.4581C67.8288 50.7854 67.8812 56.3771 68.0513 61.7071C68.0513 63.2411 65.8078 63.2621 65.8026 61.7071C66.0801 52.2802 66.101 42.7015 65.923 33.2719C65.8837 31.9185 65.8576 30.5651 65.8026 29.209L67.4702 30.196L42.1765 44.102C40.8701 44.78 39.8021 42.8926 41.0927 42.1308L41.09 42.1281Z" fill="black"/>
<path d="M0.54725 28.2465C7.9741 23.5946 15.6575 19.0002 23.2231 14.5499C24.3043 13.9294 26.1865 12.7854 27.2703 12.199C30.7808 10.3194 35.4668 9.86654 38.836 12.2278C39.2025 12.4844 38.9538 13.0813 38.514 12.9923C35.0113 12.4111 31.4458 12.3561 28.3462 14.1598C28.0085 14.3457 27.0399 14.9556 26.6891 15.1729C19.9953 19.3013 13.058 23.5343 6.28558 27.5056C4.76461 28.4036 3.24102 29.2989 1.70958 30.1758C0.439918 30.8617 -0.667434 29.0711 0.549867 28.2491L0.54725 28.2465Z" fill="black"/>
<path d="M11.3246 33.7642C11.3979 33.7118 52.1422 4.76619 52.2102 4.71907C52.6684 4.39446 53.3019 4.49655 53.6343 4.94683C55.3831 7.30813 57.2575 9.55948 59.1554 11.7951C62.3282 15.4732 65.6215 19.1696 69.0954 22.5624C69.5587 23.0048 69.5011 23.7666 68.9933 24.1488L53.2286 37.9946C52.7626 38.4056 52.0505 38.3585 51.6422 37.8925C51.2312 37.4265 51.2783 36.7145 51.7443 36.3061L67.509 22.4603L67.4069 24.0467C65.0639 20.9105 62.535 17.934 59.9669 14.9837C57.4067 12.0909 54.7207 9.11183 51.9458 6.43115L53.4432 6.60654L12.6283 35.5967C11.4319 36.4108 10.1151 34.6935 11.3246 33.7615V33.7642Z" fill="black"/>
<path d="M32.5166 30.1238L33.2732 27.7913L38.8937 29.6133L38.1371 31.9615L32.5166 30.1238ZM34.0454 34.8516L37.5193 30.0636L39.5115 31.5165L36.0376 36.3045L34.0454 34.8516ZM37.2889 24.875H39.7445V30.7887H37.2889V24.875ZM37.5193 31.5139L39.5115 30.061L42.9854 34.849L40.9932 36.3019L37.5193 31.5139ZM38.1371 29.6159L43.7577 27.7939L44.5142 30.1264L38.8937 31.9641L38.1371 29.6159Z" fill="black"/>
<path d="M45.6055 20.9617L46.362 18.6292L51.9826 20.4512L51.226 22.7994L45.6055 20.9617ZM47.1343 25.6895L50.6082 20.9015L52.6004 22.3544L49.1265 27.1424L47.1343 25.6895ZM50.3778 15.7129H52.8334V21.6266H50.3778V15.7129ZM50.6082 22.3518L52.6004 20.8989L56.0743 25.6869L54.0821 27.1398L50.6082 22.3518ZM51.226 20.4538L56.8465 18.6318L57.6031 20.9643L51.9826 22.802L51.226 20.4538Z" fill="black"/>
</g>
<defs>
<clipPath id="clip0_5320_28415">
<rect width="72.0198" height="65.25" fill="white"/>
</clipPath>
</defs>
</svg>
