<svg preserveAspectRatio="none" width="100%" height="100%" overflow="visible" style="display: block;" viewBox="0 0 351 305.183" fill="none" xmlns="http://www.w3.org/2000/svg">
<g id="Group 1597881574">
<g id="Layer_1" clip-path="url(#clip0_0_121)">
<path id="Vector" d="M315.26 247.294C314.72 250.597 313.953 254.034 312.878 257.525C311.6 261.69 310.397 265.082 309.129 267.979C305.197 276.948 300.641 281.107 291.321 288.308C278.995 297.831 262.311 301.079 228.647 302.996C194.987 304.917 92.8184 302.555 81.8196 301.52C70.8208 300.485 53.2505 296.355 41.1425 284.396C29.0344 272.436 26.8208 256.787 25.2708 249.993C24.5032 246.625 24.8944 240.391 25.7759 234.275C26.4395 229.704 27.3804 225.197 28.3114 222.003C28.6432 220.859 28.975 219.884 29.2969 219.136C31.7086 213.49 45.2775 191.602 79.2346 188.65L222.892 186.521C222.892 186.521 229.533 176.691 231.677 172.11C233.817 167.534 233.445 164.36 233.916 157.377C234.381 150.39 233.297 116.819 232.559 111.208C231.821 105.597 234.852 96.9609 239.576 89.2256C244.3 81.4952 266.372 78.4348 276.559 80.797C286.745 83.1592 291.396 88.5471 295.233 92.8258C298.893 96.9113 304.841 106.781 302.558 113.833C302.454 114.17 302.325 114.501 302.176 114.828C298.928 121.915 286.379 125.753 286.379 125.753C286.379 125.753 281.798 123.465 278.698 122.876C275.598 122.281 274.419 123.613 274.048 135.152C273.84 141.649 274.147 146.418 275.445 150.855C276.45 154.302 278.054 157.551 280.471 161.26C286.008 169.748 293.243 181.044 300.106 190.493C306.975 199.941 314.062 213.822 315.092 219.284C315.914 223.628 317.34 234.463 315.26 247.294Z" fill="var(--fill-0, #EB5386)" style="fill:#EB5386;fill:color(display-p3 0.9216 0.3255 0.5255);fill-opacity:1;"/>
<path id="Vector_2" d="M28.318 224.527C49.0627 208.343 76.3293 216.886 76.3293 216.886L78.8896 210.378L76.1907 196.884L73.3877 188.153C73.3877 188.153 47.7058 196.725 44.0114 200.543C40.3171 204.361 32.8493 214.771 32.4283 215.212C32.0074 215.652 28.318 224.527 28.318 224.527Z" fill="var(--fill-0, #CE497C)" style="fill:#CE497C;fill:color(display-p3 0.8078 0.2863 0.4863);fill-opacity:1;"/>
<path id="Vector_3" d="M315.262 247.293C314.722 250.596 313.955 254.033 312.88 257.524C311.602 261.689 310.399 265.081 309.131 267.978C306.601 268.602 305.689 266.844 308.007 260.818C316.426 238.939 311.993 218.026 299.885 197.504C287.782 176.982 274.639 166.206 272.426 147.784C272.426 147.784 273.55 148.923 275.446 150.855C276.452 154.301 278.056 157.55 280.473 161.259C286.009 169.747 293.245 181.043 300.108 190.492C306.977 199.941 314.064 213.822 315.094 219.284C315.916 223.627 317.342 234.462 315.262 247.293Z" fill="var(--fill-0, white)" style="fill:white;fill-opacity:1;"/>
<path id="Vector_4" d="M315.26 247.295C314.72 250.598 313.953 254.035 312.878 257.526C312.521 258.68 312.175 259.775 311.828 260.82C307.059 275.171 302.815 279.43 291.321 288.309C278.995 297.832 262.311 301.081 228.647 302.997C194.987 304.919 92.8184 302.557 81.8196 301.522C70.8208 300.487 53.2505 296.356 41.1425 284.397C37.8493 281.143 35.289 277.617 33.2784 274.072C27.8806 264.578 26.3999 254.941 25.2708 249.994C24.5032 246.627 24.8944 240.392 25.7759 234.276L27.5587 233.182C31.1044 272.215 118.976 267.421 118.976 267.421C118.976 267.421 172.9 284.615 228.344 263.137C228.344 263.137 294.169 271.868 315.26 247.295Z" fill="var(--fill-0, #CE497C)" style="fill:#CE497C;fill:color(display-p3 0.8078 0.2863 0.4863);fill-opacity:1;"/>
<path id="Vector_5" d="M311.832 260.818C307.063 275.169 302.819 279.428 291.325 288.307C278.999 297.83 262.315 301.079 228.651 302.996C194.991 304.917 92.8224 302.555 81.8237 301.52C70.8249 300.485 53.2546 296.355 41.1465 284.395C37.8533 281.142 35.293 277.616 33.2825 274.07C57.7809 279.478 108.897 276.442 123.803 277.195C139.071 277.972 174.172 277.418 188.013 279.299C201.854 281.181 218.241 279.745 223.892 279.299C229.537 278.859 255.16 270.975 266.708 266.83C278.261 262.69 284.462 264.349 293.321 263.799C300.576 263.344 309.009 261.482 311.832 260.818Z" fill="var(--fill-0, #D2D2D2)" style="fill:#D2D2D2;fill:color(display-p3 0.8235 0.8235 0.8235);fill-opacity:1;"/>
<path id="Vector_6" d="M302.564 113.833C301.698 112.491 300.856 110.911 300.054 109.064C289.401 84.5458 273.168 80.4256 251.77 87.2397C230.372 94.0539 236.294 119.627 237.542 132.899C238.79 146.176 241.499 167.792 232.422 182.302C223.339 196.807 85.2581 193.706 76.775 194.425C68.287 195.148 44.9524 200.016 29.3035 222.167L28.318 222.003C28.6498 220.859 28.9816 219.884 29.3035 219.136C31.7152 213.49 45.2842 191.602 79.2412 188.65L222.899 186.521C222.899 186.521 229.54 176.691 231.684 172.11C233.823 167.534 233.452 164.36 233.922 157.377C234.388 150.39 233.303 116.819 232.565 111.208C231.828 105.597 234.858 96.9609 239.583 89.2256C244.307 81.4952 266.379 78.4348 276.565 80.797C286.752 83.1592 291.402 88.5471 295.24 92.8258C298.9 96.9113 304.847 106.781 302.564 113.833Z" fill="var(--fill-0, white)" style="fill:white;fill-opacity:1;"/>
<path id="Vector_7" d="M316.058 229.805C315.181 229.805 314.458 229.107 314.433 228.22C313.938 209.446 302.751 195.1 291.936 181.224C278.981 164.605 266.744 148.911 273.093 127.117C274.038 123.873 275.712 121.976 278.069 121.476C282.66 120.5 288.018 125.611 290.118 127.854C292.594 126.502 299.047 121.788 300.052 109.066C300.736 100.405 292.045 88.5144 280.679 82.5569C273.647 78.8725 259.712 74.4403 245.341 86.1621C231.702 97.2847 233.242 114.578 234.867 132.886C236.407 150.253 238.001 168.215 227.661 183.626C227.161 184.374 226.151 184.572 225.408 184.072C224.665 183.571 224.462 182.561 224.962 181.818C234.664 167.363 233.119 149.986 231.628 133.178C229.924 113.983 228.315 95.8585 243.285 83.6464C259.098 70.746 274.444 75.6288 282.185 79.6847C294.808 86.3008 304.078 99.32 303.291 109.323C301.894 126.998 290.737 131.197 290.262 131.37C289.623 131.598 288.915 131.41 288.474 130.895C286.161 128.176 281.472 124.081 278.748 124.66C277.649 124.893 276.797 126.032 276.212 128.033C270.329 148.233 282.071 163.292 294.501 179.233C305.643 193.525 317.162 208.298 317.682 228.141C317.707 229.037 316.998 229.785 316.102 229.81C316.087 229.81 316.072 229.81 316.058 229.81V229.805Z" fill="var(--fill-0, #232323)" style="fill:#232323;fill:color(display-p3 0.1375 0.1375 0.1375);fill-opacity:1;"/>
<path id="Vector_8" d="M323.097 138.056C323.112 140.606 322.949 143.221 322.612 145.885C321.627 153.234 318.219 163.99 312.876 171.161C310.851 173.89 308.538 176.103 305.978 177.411C296.311 181.66 293.28 162.425 290.735 154.7C289.987 151.724 289.026 148.658 288.066 145.573C286.07 139.16 284.049 132.653 283.807 126.626C283.495 118.886 287.382 109.566 294.36 106.233L294.424 106.203C295.841 105.51 297.321 105.099 298.827 104.936C300.768 104.723 302.749 104.916 304.675 105.431C316.149 108.843 323.023 122.006 323.097 138.056Z" fill="var(--fill-0, #FDDB00)" style="fill:#FDDB00;fill:color(display-p3 0.9922 0.8588 0.0000);fill-opacity:1;"/>
<path id="Vector_9" d="M323.098 138.058C323.113 140.608 322.95 143.223 322.613 145.887C321.256 156.03 315.279 172.659 305.979 177.413C296.312 181.662 293.281 162.428 290.736 154.702C289.988 151.726 289.027 148.661 288.067 145.576L288.374 143.991C297.159 128.491 318.617 130.065 323.098 138.058Z" fill="var(--fill-0, #FC9B00)" style="fill:#FC9B00;fill:color(display-p3 0.9882 0.6078 0.0000);fill-opacity:1;"/>
<path id="Vector_10" d="M323.096 138.056C323.111 140.606 322.948 143.221 322.611 145.885C321.626 153.234 318.218 163.99 312.875 171.161C313.043 170.616 313.242 170.037 313.469 169.428C323.597 142.126 319.229 108.887 297.746 106.203C297.746 106.203 298.157 105.713 298.826 104.936C300.767 104.723 302.748 104.916 304.674 105.431C316.148 108.843 323.022 122.006 323.096 138.056Z" fill="var(--fill-0, white)" style="fill:white;fill-opacity:1;"/>
<path id="Vector_11" d="M303.329 179.645C302.314 179.645 301.329 179.417 300.383 178.967C295.025 176.406 292.529 167.22 290.523 159.841C290.053 158.108 289.607 156.469 289.191 155.206C289.181 155.171 289.166 155.132 289.161 155.097C288.428 152.19 287.473 149.115 286.542 146.144C284.521 139.661 282.431 132.961 282.184 126.691C281.867 118.872 285.784 108.532 293.663 104.768L293.712 104.743C297.114 103.084 301.051 102.777 305.097 103.867C319.013 108.007 326.862 125.364 324.223 146.089C322.895 155.984 316.973 173.613 306.712 178.858C306.682 178.873 306.657 178.887 306.628 178.897C305.498 179.397 304.394 179.645 303.324 179.645H303.329ZM292.301 154.245C292.737 155.578 293.187 157.236 293.663 158.99C295.297 165.016 297.773 174.118 301.784 176.035C302.834 176.535 303.973 176.505 305.281 175.941C313.922 171.484 319.677 155.568 321.004 145.668C323.435 126.563 316.532 110.656 304.216 106.992C300.977 106.125 297.828 106.353 295.138 107.665C295.138 107.665 295.139 107.665 295.134 107.665L295.074 107.695C288.443 110.864 285.165 119.778 285.437 126.558C285.67 132.396 287.695 138.894 289.651 145.173C290.587 148.169 291.553 151.269 292.301 154.245Z" fill="var(--fill-0, #232323)" style="fill:#232323;fill:color(display-p3 0.1375 0.1375 0.1375);fill-opacity:1;"/>
<path id="Vector_12" d="M152.851 71.152C172.051 71.152 187.615 55.5875 187.615 36.3877C187.615 17.188 172.051 1.62347 152.851 1.62347C133.651 1.62347 118.087 17.188 118.087 36.3877C118.087 55.5875 133.651 71.152 152.851 71.152Z" fill="var(--fill-0, white)" style="fill:white;fill-opacity:1;"/>
<path id="Vector_13" d="M153.277 40.7219C160.659 40.7219 166.643 34.7378 166.643 27.356C166.643 19.9742 160.659 13.9901 153.277 13.9901C145.895 13.9901 139.911 19.9742 139.911 27.356C139.911 34.7378 145.895 40.7219 153.277 40.7219Z" fill="var(--fill-0, #F2C249)" style="fill:#F2C249;fill:color(display-p3 0.9490 0.7608 0.2863);fill-opacity:1;"/>
<path id="Vector_14" d="M152.829 72.7737C133.852 72.7737 117.822 58.0013 116.544 38.7968C115.217 18.7752 130.42 1.40792 150.442 0.0757859C170.453 -1.25635 187.831 13.9518 189.163 33.9734C189.807 43.6698 186.637 53.0393 180.234 60.3536C173.831 67.668 164.966 72.0507 155.265 72.6944C154.448 72.7489 153.636 72.7737 152.829 72.7737ZM152.878 3.24518C152.14 3.24518 151.402 3.26994 150.66 3.31946C132.426 4.53274 118.579 20.35 119.793 38.5789C120.956 56.065 135.555 69.5201 152.834 69.5201C153.571 69.5201 154.309 69.4953 155.052 69.4458C163.882 68.8615 171.959 64.87 177.793 58.2093C183.621 51.5487 186.508 43.0161 185.924 34.1863C184.76 16.7002 170.161 3.24518 152.883 3.24518H152.878Z" fill="var(--fill-0, #232323)" style="fill:#232323;fill:color(display-p3 0.1375 0.1375 0.1375);fill-opacity:1;"/>
<path id="Vector_15" d="M152.186 43.2086C143.976 43.2086 137.038 36.8153 136.483 28.5006C135.909 19.8343 142.49 12.3169 151.151 11.7425C155.351 11.4651 159.402 12.8369 162.571 15.6052C165.736 18.3784 167.632 22.2163 167.91 26.4108C168.187 30.6102 166.815 34.6611 164.047 37.8305C161.274 40.9949 157.441 42.8916 153.241 43.1689C152.89 43.1937 152.538 43.2036 152.186 43.2036V43.2086ZM152.211 15.1743C151.934 15.1743 151.657 15.1842 151.379 15.204C144.619 15.6547 139.489 21.518 139.94 28.2728C140.39 35.0325 146.254 40.163 153.008 39.7123C156.282 39.4944 159.273 38.0137 161.437 35.5476C163.596 33.0814 164.671 29.9169 164.453 26.6435C164.235 23.3702 162.754 20.379 160.288 18.2149C158.03 16.239 155.187 15.1743 152.216 15.1743H152.211Z" fill="var(--fill-0, black)" style="fill:black;fill-opacity:1;"/>
<path id="Vector_16" d="M141.338 58.2042C141.095 58.2042 140.848 58.1596 140.61 58.0655C139.595 57.6644 139.095 56.5105 139.496 55.4953C144.334 43.2536 152.569 40.7131 157.046 40.2872C163.86 39.6434 170.828 42.9763 174.389 48.5871C174.973 49.5131 174.701 50.7363 173.775 51.3207C172.849 51.905 171.625 51.6326 171.041 50.7066C168.263 46.3239 162.781 43.7191 157.418 44.2292C151.242 44.8135 146.186 49.3299 143.175 56.9463C142.868 57.7238 142.12 58.1992 141.333 58.1992L141.338 58.2042Z" fill="var(--fill-0, black)" style="fill:black;fill-opacity:1;"/>
<path id="Vector_17" d="M149.234 30.2026C150.3 30.2026 151.165 29.3379 151.165 28.2713C151.165 27.2046 150.3 26.3399 149.234 26.3399C148.167 26.3399 147.302 27.2046 147.302 28.2713C147.302 29.3379 148.167 30.2026 149.234 30.2026Z" fill="var(--fill-0, black)" style="fill:black;fill-opacity:1;"/>
<path id="Vector_18" d="M154.868 28.8065C155.935 28.8065 156.8 27.9418 156.8 26.8751C156.8 25.8085 155.935 24.9438 154.868 24.9438C153.802 24.9438 152.937 25.8085 152.937 26.8751C152.937 27.9418 153.802 28.8065 154.868 28.8065Z" fill="var(--fill-0, black)" style="fill:black;fill-opacity:1;"/>
<path id="Vector_19" d="M255.121 89.2185C279.307 89.2185 298.913 69.6122 298.913 45.4265C298.913 21.2408 279.307 1.63441 255.121 1.63441C230.936 1.63441 211.329 21.2408 211.329 45.4265C211.329 69.6122 230.936 89.2185 255.121 89.2185Z" fill="var(--fill-0, white)" style="fill:white;fill-opacity:1;"/>
<path id="Vector_20" d="M255.184 90.8658C250.811 90.8658 246.414 90.2269 242.106 88.9394C230.483 85.4629 220.91 77.6682 215.151 66.9913C209.391 56.3145 208.134 44.0331 211.61 32.4103C218.786 8.41704 244.146 -5.26085 268.139 1.91485C279.762 5.39127 289.334 13.186 295.094 23.8629C300.853 34.5398 302.111 46.8211 298.635 58.4439C295.158 70.0666 287.363 79.6392 276.687 85.3986C269.966 89.0235 262.608 90.8658 255.184 90.8658ZM255.145 3.25193C236.99 3.25193 220.187 15.0777 214.725 33.3413C211.496 44.1321 212.665 55.532 218.013 65.4463C223.362 75.3605 232.251 82.5956 243.041 85.8244C253.832 89.0533 265.232 87.8845 275.146 82.5362C285.061 77.1879 292.296 68.2987 295.525 57.5079C298.753 46.7171 297.585 35.3172 292.236 25.403C286.888 15.4887 277.999 8.25363 267.208 5.02481C263.192 3.82143 259.136 3.25193 255.145 3.25193Z" fill="var(--fill-0, #232323)" style="fill:#232323;fill:color(display-p3 0.1375 0.1375 0.1375);fill-opacity:1;"/>
<path id="Vector_21" d="M245.96 17.3809C239.349 23.4522 230.826 33.2575 228.731 39.73C227.266 44.2662 230.113 49.0599 234.783 50.0157L271.949 57.6074C277.005 58.6424 281.715 54.6905 281.586 49.5304C281.244 35.8723 274.222 23.3482 274.222 23.3482L245.96 17.3809Z" fill="var(--fill-0, black)" style="fill:black;fill-opacity:1;"/>
<path id="Vector_22" d="M257.285 51.3988C267.036 51.3988 274.94 43.4946 274.94 33.7443C274.94 23.994 267.036 16.0898 257.285 16.0898C247.535 16.0898 239.631 23.994 239.631 33.7443C239.631 43.4946 247.535 51.3988 257.285 51.3988Z" fill="var(--fill-0, #B77E62)" style="fill:#B77E62;fill:color(display-p3 0.7176 0.4941 0.3843);fill-opacity:1;"/>
<path id="Vector_23" d="M257.274 53.3825C255.417 53.3825 253.526 53.1151 251.659 52.5555C246.632 51.05 242.497 47.6826 240.006 43.0671C237.515 38.4517 236.971 33.143 238.476 28.1165C239.981 23.0901 243.349 18.9501 247.964 16.4641C252.58 13.9781 257.889 13.4284 262.915 14.9339C273.29 18.0389 279.203 29.003 276.103 39.3728C273.557 47.8757 265.733 53.3825 257.279 53.3825H257.274ZM257.26 18.0636C254.694 18.0636 252.159 18.6975 249.836 19.9504C246.152 21.9362 243.463 25.2443 242.259 29.2555C241.061 33.2668 241.492 37.5059 243.483 41.1903C245.473 44.8747 248.777 47.5637 252.788 48.7671C261.068 51.2432 269.818 46.5238 272.299 38.2437C274.775 29.9637 270.056 21.2083 261.776 18.7322C260.29 18.2865 258.77 18.0686 257.265 18.0686L257.26 18.0636Z" fill="var(--fill-0, black)" style="fill:black;fill-opacity:1;"/>
<path id="Vector_24" d="M271.734 70.9604C270.818 70.9604 269.996 70.3216 269.798 69.3906C268.406 62.8092 262.944 57.1686 256.199 55.3562C248.454 53.2762 240.318 56.4357 233.276 64.2503C232.543 65.0624 231.29 65.1268 230.478 64.3939C229.666 63.6609 229.601 62.408 230.334 61.5959C241.249 49.4779 251.871 50.087 257.229 51.5281C265.376 53.717 271.982 60.5658 273.676 68.5686C273.903 69.6382 273.215 70.6881 272.145 70.9159C272.007 70.9456 271.868 70.9604 271.734 70.9604Z" fill="var(--fill-0, black)" style="fill:black;fill-opacity:1;"/>
<path id="Vector_25" d="M253.581 35.7408C254.924 35.7408 256.013 34.6521 256.013 33.3092C256.013 31.9664 254.924 30.8777 253.581 30.8777C252.238 30.8777 251.15 31.9664 251.15 33.3092C251.15 34.6521 252.238 35.7408 253.581 35.7408Z" fill="var(--fill-0, black)" style="fill:black;fill-opacity:1;"/>
<path id="Vector_26" d="M260.839 36.5719C262.182 36.5719 263.271 35.4832 263.271 34.1404C263.271 32.7975 262.182 31.7088 260.839 31.7088C259.496 31.7088 258.408 32.7975 258.408 34.1404C258.408 35.4832 259.496 36.5719 260.839 36.5719Z" fill="var(--fill-0, black)" style="fill:black;fill-opacity:1;"/>
<path id="Vector_27" d="M201.938 130.226C230.284 130.533 247.83 157.839 216.973 169.358C186.116 180.877 201.938 130.226 201.938 130.226Z" fill="var(--fill-0, #F4D93B)" style="fill:#F4D93B;fill:color(display-p3 0.9569 0.8510 0.2314);fill-opacity:1;"/>
<path id="Vector_28" d="M208.9 172.682C205.671 172.682 203.017 171.707 200.956 169.755C190.988 160.312 200.001 130.985 200.387 129.742C200.6 129.063 201.229 128.603 201.937 128.603C201.942 128.603 201.947 128.603 201.957 128.603C218.269 128.776 232.626 137.957 234.646 149.501C236.211 158.45 229.976 166.239 217.541 170.88C214.317 172.083 211.435 172.682 208.9 172.682ZM203.135 131.881C200.59 140.627 196.45 161.015 203.19 167.398C205.889 169.953 210.336 170.097 216.402 167.834C227.233 163.793 232.715 157.316 231.442 150.061C230.655 145.554 227.257 141.038 222.127 137.665C216.853 134.199 210.148 132.163 203.135 131.886V131.881Z" fill="var(--fill-0, #232323)" style="fill:#232323;fill:color(display-p3 0.1375 0.1375 0.1375);fill-opacity:1;"/>
<path id="Vector_29" d="M259.242 210.029C259 211.232 258.698 212.451 258.336 213.689C257.975 214.927 257.554 216.18 257.068 217.442C255.068 218.007 252.631 218.581 249.67 219.161L248.288 216.115L237.542 192.474C238.404 191.052 239.28 189.824 240.172 188.769C251.161 175.705 263.308 189.918 259.242 210.029Z" fill="var(--fill-0, #FF814A)" style="fill:#FF814A;fill:color(display-p3 1.0000 0.5059 0.2902);fill-opacity:1;"/>
<path id="Vector_30" d="M259.239 210.029C258.833 210.113 258.501 209.058 258.338 206.196C257.61 193.548 250.652 182.52 240.168 188.769C251.157 175.705 263.305 189.918 259.239 210.029Z" fill="var(--fill-0, white)" style="fill:white;fill-opacity:1;"/>
<path id="Vector_31" d="M257.815 216.885C257.617 216.885 257.418 216.85 257.225 216.776C256.388 216.449 255.972 215.508 256.299 214.671C261.043 202.454 257.631 188.301 251.511 185.28C247.687 183.393 243.216 186.246 238.922 193.318C238.457 194.085 237.456 194.328 236.689 193.862C235.921 193.397 235.678 192.396 236.144 191.629C243.547 179.437 250.362 181.086 252.947 182.363C260.474 186.073 264.901 201.508 259.33 215.845C259.082 216.489 258.463 216.88 257.815 216.88V216.885Z" fill="var(--fill-0, #232323)" style="fill:#232323;fill:color(display-p3 0.1375 0.1375 0.1375);fill-opacity:1;"/>
<path id="Vector_32" d="M85.1439 216.884C88.3183 222.827 95.9941 223.099 135.121 224.258C174.248 225.417 210.048 222.609 225.701 220.91C241.355 219.212 248.07 218.177 247.481 214.339C246.892 210.501 84.411 212.125 84.411 212.125L85.1489 216.884H85.1439Z" fill="var(--fill-0, #F4D93B)" style="fill:#F4D93B;fill:color(display-p3 0.9569 0.8510 0.2314);fill-opacity:1;"/>
<path id="Vector_33" d="M248.164 217.793L135.329 219.71L86.4262 220.542C70.292 202.778 70.9011 156.619 72.2283 134.527C72.674 127.104 73.1989 122.399 73.1989 122.399C73.1989 122.399 148.601 86.105 164.319 90.9779C165.988 91.493 167.741 92.7459 169.558 94.5782C184.851 110.014 204.788 166.86 219.234 177.349C221.72 179.151 224.126 180.969 226.429 182.806C239.102 192.933 248.417 203.808 248.164 217.793Z" fill="var(--fill-0, #F4D93B)" style="fill:#F4D93B;fill:color(display-p3 0.9569 0.8510 0.2314);fill-opacity:1;"/>
<path id="Vector_34" d="M226.808 183.727C226.808 183.727 212.486 178.532 206.172 166.355C199.863 154.172 192.553 144.758 185.992 130.694C179.43 116.625 173.284 108.662 163.652 96.5143L169.56 94.578C184.853 110.014 204.79 166.86 219.236 177.349C221.722 179.151 224.128 180.969 226.431 182.806L226.808 183.727Z" fill="var(--fill-0, white)" style="fill:white;fill-opacity:1;"/>
<path id="Vector_35" d="M138.934 224.258L86.4262 220.544C70.292 202.78 70.9011 156.621 72.2283 134.529L93.3345 126.026C82.1079 168.011 107.963 211.001 138.934 224.258Z" fill="var(--fill-0, #F2BE3D)" style="fill:#F2BE3D;fill:color(display-p3 0.9490 0.7451 0.2392);fill-opacity:1;"/>
<path id="Vector_36" opacity="0.32" d="M175.123 222.823C158.746 210.348 142.25 171.667 159.355 161.475C176.46 151.283 195.357 147.891 201.117 152.541C206.876 157.191 218.979 178.699 227.913 184.889C236.847 191.079 241.497 195.769 243.344 199.181C245.191 202.593 248.172 214.399 248.172 214.399L247.514 217.578L188.053 222.818H175.123V222.823Z" fill="var(--fill-0, #FFF4C5)" style="fill:#FFF4C5;fill:color(display-p3 1.0000 0.9569 0.7725);fill-opacity:1;"/>
<path id="Vector_37" d="M86.4292 222.171C85.9884 222.171 85.5477 221.993 85.2258 221.636C76.0197 211.499 70.9338 191.641 70.1068 162.616C69.4977 141.183 71.5628 122.404 71.5826 122.216C71.642 121.662 71.9886 121.176 72.4938 120.934C72.682 120.844 91.629 111.742 112.255 103.358C140.235 91.9832 157.914 87.2935 164.802 89.4278C173.82 92.2258 184.066 112.792 194.911 134.567C203.776 152.365 212.942 170.767 220.192 176.036C235.752 187.332 250.108 200.213 249.791 217.823C249.777 218.719 249.054 219.432 248.137 219.417C247.241 219.403 246.528 218.66 246.543 217.763C246.815 202.54 235.445 191.121 218.286 178.666C210.392 172.931 201.458 155.005 192.005 136.018C182.407 116.754 171.532 94.9149 163.842 92.5329C151.61 88.7395 96.1652 113.208 74.7222 123.469C73.8853 131.927 68.0665 197.91 87.6326 219.452C88.2367 220.116 88.1872 221.146 87.5236 221.75C87.2116 222.032 86.8204 222.171 86.4292 222.171Z" fill="var(--fill-0, #232323)" style="fill:#232323;fill:color(display-p3 0.1375 0.1375 0.1375);fill-opacity:1;"/>
<path id="Vector_38" d="M146.122 134.431C154.14 125.047 158.998 123.026 171.383 126.339C174.266 127.102 174.29 129.726 172.498 131.237C168.219 134.862 154.279 139.611 148.118 139.537C145.256 139.482 143.939 136.991 146.117 134.431H146.122Z" fill="var(--fill-0, #FF814A)" style="fill:#FF814A;fill:color(display-p3 1.0000 0.5059 0.2902);fill-opacity:1;"/>
<path id="Vector_39" d="M145.144 133.604C148.031 130.37 151.314 127.022 155.36 125.145C159.52 123.219 164.398 123.541 168.692 124.397C169.593 124.551 170.479 124.779 171.366 124.977C172.534 125.215 173.693 125.735 174.436 126.76C175.704 128.458 175.09 130.915 173.584 132.232C172.985 132.791 172.114 133.381 171.42 133.831C165.933 137.263 153.34 141.79 146.956 140.829C143.346 139.997 142.772 136.104 145.144 133.604ZM147.105 135.272C146.065 136.501 146.035 138.011 147.922 138.09C151.087 138.031 154.202 137.13 157.331 136.238C161.635 134.931 165.928 133.44 169.855 131.246L170.702 130.731L171.465 130.187L171.559 130.117L171.623 130.058C172.911 128.879 172.287 127.874 170.702 127.537C169.86 127.314 169.009 127.057 168.167 126.879C157.935 124.343 153.424 127.532 147.11 135.272H147.105Z" fill="var(--fill-0, #232323)" style="fill:#232323;fill:color(display-p3 0.1375 0.1375 0.1375);fill-opacity:1;"/>
<path id="Vector_40" d="M124.823 133.915C124.897 133.494 125.001 133.093 125.125 132.682C125.229 132.281 125.387 131.885 125.516 131.474C125.675 131.078 125.858 130.676 126.041 130.275C126.254 129.889 126.437 129.488 126.685 129.117C126.933 128.745 127.17 128.349 127.502 128.002C127.779 127.646 128.136 127.294 128.478 126.967C129.215 126.328 130.062 125.789 131.018 125.417C131.974 125.046 133.004 124.892 133.994 124.937C134.985 124.981 135.945 125.189 136.817 125.506C137.684 125.823 138.491 126.269 139.234 126.764C139.605 127.012 139.962 127.289 140.289 127.576C140.447 127.735 140.62 127.864 140.779 128.022L141.017 128.26C141.096 128.339 141.175 128.418 141.259 128.522C141.71 129.008 141.675 129.78 141.16 130.216C140.794 130.548 140.313 130.602 139.887 130.424L139.645 130.32C139.59 130.31 139.511 130.231 139.422 130.206L139.194 130.072C139.036 129.993 138.872 129.889 138.714 129.81C138.397 129.651 138.06 129.498 137.743 129.339C137.426 129.181 137.094 129.052 136.773 128.948C136.624 128.894 136.441 128.819 136.297 128.79L136.059 128.71L135.832 128.656C134.534 128.319 133.311 128.275 132.217 128.636C131.672 128.814 131.132 129.097 130.627 129.478C130.379 129.691 130.127 129.879 129.889 130.117C129.77 130.236 129.641 130.33 129.532 130.473L129.191 130.875C129.072 130.993 128.968 131.157 128.859 131.3C128.75 131.444 128.636 131.583 128.527 131.726L127.908 132.642L127.329 133.598C127.145 133.92 126.972 134.267 126.764 134.599L126.734 134.663C126.447 135.153 125.813 135.307 125.348 135.015C124.932 134.782 124.759 134.341 124.828 133.92L124.823 133.915Z" fill="var(--fill-0, #232323)" style="fill:#232323;fill:color(display-p3 0.1375 0.1375 0.1375);fill-opacity:1;"/>
<path id="Vector_41" d="M164.64 120.956C164.69 120.545 164.764 120.154 164.863 119.753C164.962 119.352 165.056 118.951 165.185 118.569C165.309 118.188 165.457 117.797 165.601 117.406C165.68 117.222 165.774 117.034 165.853 116.851C165.952 116.663 166.027 116.48 166.126 116.286C166.329 115.93 166.547 115.544 166.804 115.222C167.037 114.88 167.344 114.568 167.626 114.241C168.255 113.642 168.978 113.137 169.82 112.835C170.662 112.533 171.563 112.419 172.445 112.523C173.321 112.602 174.163 112.874 174.931 113.256C175.698 113.637 176.426 114.108 177.06 114.632C177.382 114.92 177.699 115.187 177.981 115.484C178.125 115.648 178.264 115.786 178.407 115.95C178.551 116.113 178.67 116.257 178.828 116.47C179.15 116.891 179.115 117.48 178.764 117.807C178.501 118.049 178.14 118.064 177.848 117.871L177.734 117.802C177.62 117.733 177.446 117.633 177.298 117.525C177.154 117.44 177.006 117.331 176.862 117.247C176.555 117.084 176.263 116.891 175.966 116.752C175.362 116.45 174.767 116.173 174.183 115.999C173.004 115.623 171.89 115.573 170.959 115.955C170.494 116.133 170.033 116.415 169.607 116.797C169.181 117.173 168.785 117.648 168.429 118.158C167.691 119.193 167.077 120.446 166.433 121.764L166.418 121.793C166.17 122.293 165.596 122.432 165.125 122.115C164.759 121.843 164.581 121.372 164.63 120.961L164.64 120.956Z" fill="var(--fill-0, #232323)" style="fill:#232323;fill:color(display-p3 0.1375 0.1375 0.1375);fill-opacity:1;"/>
<path id="Vector_42" d="M75.0552 114.233C75.0552 114.233 74.7185 114.421 74.1886 114.753L74.5699 113.366C74.8076 113.238 75.1097 113.317 75.2434 113.559C75.3771 113.802 75.2929 114.099 75.0503 114.233H75.0552Z" fill="var(--fill-0, #232323)" style="fill:#232323;fill:color(display-p3 0.1375 0.1375 0.1375);fill-opacity:1;"/>
<path id="Vector_43" d="M166.335 86.749L167.489 87.7147C166.805 87.7246 166.409 87.7395 166.384 87.7395C166.112 87.7494 165.879 87.5463 165.864 87.269C165.845 86.9967 166.058 86.7639 166.33 86.749H166.335Z" fill="var(--fill-0, #232323)" style="fill:#232323;fill:color(display-p3 0.1375 0.1375 0.1375);fill-opacity:1;"/>
<path id="Vector_44" d="M111.843 66.2034C101.047 48.2815 88.3745 48.3063 91.2517 60.8204C91.2517 60.8204 83.4075 53.1842 73.2852 60.1469C63.163 67.1097 79.8518 81.7731 98.6998 72.562" fill="var(--fill-0, #F4D93B)" style="fill:#F4D93B;fill:color(display-p3 0.9569 0.8510 0.2314);fill-opacity:1;"/>
<path id="Vector_45" d="M112.959 67.3899C113.514 66.8848 113.682 66.0281 113.271 65.3496C110.013 59.9369 106.323 55.688 102.59 53.098C98.9943 50.5872 95.5822 49.7701 92.9823 50.8101C90.5805 51.7757 89.2781 54.1726 89.2434 57.441C88.4659 57.03 87.5993 56.6338 86.5891 56.302C83.2959 55.2423 78.1456 54.8164 72.4011 58.7831C68.5582 61.4275 67.5826 65.4536 69.821 69.2965C73.4807 75.561 85.8017 80.6519 99.4697 73.9862C100.267 73.6 100.614 72.6095 100.227 71.8122C99.8411 71.0149 98.8507 70.6683 98.0534 71.0545C86.3415 76.7892 75.5853 72.6789 72.6438 67.6475C71.6781 65.9885 71.1779 63.5768 74.273 61.4424C78.0416 58.8623 81.8647 58.164 85.6283 59.3724C88.3966 60.2687 90.1596 61.9079 90.1794 61.9277C90.7043 62.4328 91.4769 62.5368 92.0959 62.1803C92.7149 61.8187 93.0517 61.1106 92.8734 60.3925C92.0711 56.9012 92.5614 54.4301 94.2006 53.7863C96.9639 52.6622 103.862 56.0247 110.483 66.9987C110.944 67.7663 111.939 68.009 112.702 67.5484C112.791 67.5335 112.865 67.4692 112.959 67.385V67.3899Z" fill="var(--fill-0, #232323)" style="fill:#232323;fill:color(display-p3 0.1375 0.1375 0.1375);fill-opacity:1;"/>
<path id="Vector_46" d="M162.977 83.2891C162.586 89.1772 159.58 92.2228 159.58 92.2228L70.9507 134.777C50.6715 119.742 50.0822 98.3586 79.1119 76.5641C81.3255 74.91 83.7124 73.2461 86.2727 71.5822C122.438 48.099 147.546 49.9263 157.936 66.6449C162.239 73.563 163.259 79.1342 162.977 83.2891Z" fill="var(--fill-0, #58BF43)" style="fill:#58BF43;fill:color(display-p3 0.3451 0.7490 0.2627);fill-opacity:1;"/>
<path id="Vector_47" d="M162.979 83.2891C161.672 81.9817 160.305 79.9959 158.889 77.1979C146.063 51.8626 122.748 52.4123 79.1141 76.5641C81.3277 74.91 83.7147 73.2461 86.275 71.5822C122.441 48.099 147.548 49.9263 157.938 66.6449C162.241 73.563 163.261 79.1342 162.979 83.2891Z" fill="var(--fill-0, white)" style="fill:white;fill-opacity:1;"/>
<path id="Vector_48" d="M71.4001 136.345C70.9197 136.483 70.3997 136.399 69.9689 136.082C59.7526 128.505 54.5033 119.379 54.8153 109.682C55.0035 103.249 57.6529 96.6779 62.605 90.1361C67.7553 83.3863 75.4163 76.686 85.3801 70.2036C107.482 55.8522 126.869 49.9938 141.424 53.2424C149.105 54.9459 155.285 59.2939 159.326 65.7763C164.981 74.8586 165.125 81.8214 164.238 86.0357C163.268 90.7699 160.821 93.2757 160.722 93.3797C160.584 93.5234 160.43 93.6224 160.267 93.6917L71.6279 136.221C71.5685 136.29 71.4744 136.32 71.4001 136.34V136.345ZM118 58.0064C108.685 60.7103 98.2953 65.7268 87.148 72.9718C68.4833 85.075 58.4353 97.8317 58.0589 109.811C57.7915 118.141 62.3129 126.094 71.1376 132.908L158.583 90.9334C159.063 90.349 160.505 88.3979 161.114 85.2037C162.109 80.0188 160.544 73.9128 156.558 67.5245C152.948 61.7255 147.619 57.9866 140.721 56.4464C134.179 54.9856 126.533 55.5402 118.005 58.0113L118 58.0064Z" fill="var(--fill-0, #232323)" style="fill:#232323;fill:color(display-p3 0.1375 0.1375 0.1375);fill-opacity:1;"/>
<path id="Vector_49" d="M197.014 77.421C191.423 82.9377 175.408 91.292 157.491 99.9137C127.248 114.463 122.251 115.731 76.7706 130.696C76.7706 130.696 81.5891 125.601 92.2462 115.766C93.7516 114.394 95.6087 112.814 97.6589 111.18C114.645 97.507 133.8 86.8202 154.267 79.3721C155.49 78.9264 156.714 78.4906 157.947 78.0697C169.807 74.004 182.301 70.6662 190.992 70.9287C199.778 71.1911 200.862 73.6375 197.014 77.421Z" fill="var(--fill-0, #58BF43)" style="fill:#58BF43;fill:color(display-p3 0.3451 0.7490 0.2627);fill-opacity:1;"/>
<path id="Vector_50" d="M197.014 77.421L192.403 80.3526C192.403 80.3526 196.464 75.1132 187.902 75.2965C179.339 75.4797 172.396 76.1482 148.482 82.799L154.266 79.3721C155.49 78.9264 156.713 78.4906 157.946 78.0697C169.806 74.004 182.301 70.6662 190.992 70.9287C199.777 71.1911 200.861 73.6375 197.014 77.421Z" fill="var(--fill-0, white)" style="fill:white;fill-opacity:1;"/>
<path id="Vector_51" d="M78.1586 129.827C78.7628 129.496 79.3669 129.139 79.9117 128.773C80.4614 128.431 80.9615 128.079 81.4468 127.782C81.9322 127.485 82.4026 127.218 82.8929 127.024C83.1504 126.925 83.4079 126.821 83.6654 126.722L84.0665 126.579L84.5172 126.42L92.7328 123.697C98.2149 121.869 103.702 120.047 109.154 118.205C114.602 116.338 120.034 114.426 125.392 112.351C130.751 110.276 136.04 108.038 141.259 105.666C146.504 103.284 151.698 100.818 156.908 98.3167C162.118 95.8158 167.298 93.3001 172.418 90.6705C177.539 88.0409 182.615 85.342 187.478 82.3707C188.696 81.6279 189.904 80.8603 191.058 80.0828C192.237 79.3003 193.376 78.4733 194.426 77.5968C194.951 77.161 195.471 76.7202 195.936 76.2498C196.407 75.7991 196.837 75.3138 197.144 74.8582C197.288 74.6354 197.432 74.4125 197.486 74.2392C197.541 74.0659 197.56 73.9569 197.555 73.9322C197.551 73.9074 197.555 73.9322 197.506 73.843C197.461 73.7787 197.293 73.645 197.08 73.5509C196.654 73.3379 196.05 73.1448 195.441 73.0111C194.832 72.8774 194.153 72.7882 193.475 72.6941C192.806 72.6298 192.113 72.5703 191.4 72.5406C191.053 72.5109 190.712 72.506 190.355 72.5307L189.31 72.5208C186.547 72.5951 183.729 72.9417 180.951 73.4072C178.148 73.8827 175.36 74.5066 172.592 75.1801C169.818 75.8536 167.06 76.6559 164.297 77.4581C161.543 78.2851 158.795 79.132 156.101 80.0729C155.412 80.3007 154.744 80.5186 154.065 80.7662L152.035 81.4842C151.352 81.7368 150.688 81.9547 150.01 82.2271L147.994 82.9946C142.636 85.0696 137.372 87.3773 132.226 89.9376C131.588 90.2545 130.929 90.5764 130.295 90.9132L128.398 91.9086C127.769 92.2453 127.131 92.5622 126.507 92.9238L124.62 93.9637C123.996 94.3252 123.367 94.6669 122.743 95.0284L120.871 96.1179C120.247 96.4794 119.623 96.8459 119.034 97.2222L117.206 98.3761C116.592 98.7624 115.988 99.1189 115.379 99.53L113.586 100.704C113.002 101.11 112.383 101.496 111.799 101.897L110.016 103.115C109.432 103.521 108.822 103.932 108.243 104.358L106.5 105.621C105.92 106.047 105.336 106.453 104.762 106.904L103.058 108.206C102.489 108.657 101.899 109.063 101.36 109.533L99.6708 110.885C98.5516 111.782 97.4374 112.703 96.3529 113.619C95.2634 114.535 94.1888 115.496 93.1686 116.466L90.0537 119.453C87.9788 121.458 85.9385 123.484 83.9031 125.534C82.8978 126.554 81.8975 127.599 80.9021 128.644C80.397 129.154 79.9265 129.684 79.4313 130.214L78.6984 131.001L78.3418 131.392L78.1685 131.6L78.0942 131.699C78.1685 131.6 77.8615 131.977 78.2428 131.501C78.5597 131.07 78.4706 130.134 78.1735 129.827H78.1586ZM75.4151 131.585C75.1675 131.268 75.0635 130.283 75.4696 129.798C75.8707 129.293 75.6033 129.629 75.7172 129.491L75.8162 129.382L76.0193 129.193L76.4055 128.822L77.2028 128.069L78.7974 126.564C79.8572 125.554 80.9318 124.593 81.9767 123.612C84.1111 121.641 86.2603 119.715 88.4046 117.764L91.6533 114.872C92.7526 113.901 93.857 112.955 95.0009 112.054C96.135 111.128 97.2888 110.246 98.4377 109.365C99.5866 108.483 100.741 107.602 101.919 106.74L103.677 105.448C104.257 105.022 104.866 104.611 105.445 104.18L107.218 102.937C107.797 102.511 108.411 102.12 109.021 101.709L110.823 100.481C111.432 100.07 112.026 99.6884 112.641 99.3022L114.458 98.1235C115.072 97.7373 115.691 97.351 116.31 96.9598L118.167 95.8208C118.781 95.4345 119.415 95.0928 120.029 94.7065L121.891 93.5923C122.515 93.2308 123.139 92.8643 123.793 92.5177L125.694 91.4431C126.318 91.0815 126.977 90.7597 127.611 90.418L129.527 89.3929C130.156 89.0561 130.82 88.7342 131.449 88.3925C136.609 85.7233 141.858 83.267 147.207 80.9841L149.227 80.1373C149.901 79.8649 150.579 79.5876 151.253 79.3152L153.288 78.5179C153.961 78.2455 154.655 78.0177 155.328 77.7454C158.052 76.7203 160.795 75.7694 163.544 74.8434C169.061 73.0358 174.686 71.4313 180.47 70.3765C183.363 69.8516 186.299 69.4653 189.325 69.396H190.474C190.86 69.396 191.227 69.396 191.598 69.4158C192.331 69.4356 193.108 69.5 193.856 69.5693C194.614 69.6634 195.391 69.7476 196.169 69.916C196.951 70.1041 197.768 70.3121 198.62 70.743C199.056 70.9807 199.497 71.2431 199.918 71.7186C199.962 71.7829 200.027 71.8176 200.071 71.882L200.215 72.0999C200.304 72.2286 200.403 72.3821 200.472 72.5456C200.641 72.8625 200.715 73.2042 200.764 73.5558C200.864 74.2541 200.705 74.8731 200.537 75.3683C200.348 75.8932 200.121 76.2696 199.868 76.6559C199.378 77.3937 198.828 77.9979 198.259 78.5526C197.689 79.1072 197.11 79.6173 196.545 80.0927C195.367 81.0583 194.163 81.9299 192.95 82.7768C191.732 83.5988 190.504 84.3961 189.246 85.1786C184.249 88.239 179.143 90.9974 174.003 93.6616C168.843 96.3309 163.653 98.901 158.448 101.427C153.238 103.927 148.004 106.433 142.735 108.82C137.441 111.212 132.093 113.495 126.685 115.585C121.252 117.68 115.805 119.626 110.298 121.458C104.821 123.305 99.3291 125.108 93.8421 126.911L85.6116 129.585L85.0174 129.783L84.3934 129.966L83.0959 130.342C82.2243 130.57 81.323 130.778 80.4316 130.932C79.5403 131.085 78.6588 131.184 77.8318 131.298C76.9404 131.372 76.1629 131.471 75.4151 131.585Z" fill="var(--fill-0, #232323)" style="fill:#232323;fill:color(display-p3 0.1375 0.1375 0.1375);fill-opacity:1;"/>
<path id="Vector_52" d="M194.769 222.824C201.414 208.503 207.837 200.901 220.163 200.238C232.489 199.574 237.882 210.919 237.882 210.919L240.17 218.991L194.769 222.829V222.824Z" fill="var(--fill-0, #FF814A)" style="fill:#FF814A;fill:color(display-p3 1.0000 0.5059 0.2902);fill-opacity:1;"/>
<path id="Vector_53" d="M266.607 211.726C266.349 212.761 265.804 214.979 257.064 217.441C255.063 218.005 252.627 218.58 249.665 219.159C242.485 220.56 232.219 221.967 217.501 223.22C196.108 225.037 170.807 226.023 146.942 226.028C140.544 226.028 134.255 225.953 128.169 225.81C82.4404 224.725 74.5367 220.872 72.8084 216.871C71.4713 213.776 74.1257 210.815 76.4681 208.205C76.7256 207.918 76.9831 207.63 77.2356 207.343C77.8299 206.67 78.855 206.605 79.5285 207.199C80.202 207.789 80.2713 208.819 79.6771 209.492C79.4146 209.785 79.1521 210.082 78.8847 210.374C77.196 212.261 75.2795 214.395 75.7946 215.584C76.9336 218.223 86.9617 221.581 128.243 222.561C157.124 223.245 190.546 222.269 217.645 219.946C231.758 218.733 241.524 217.391 248.284 216.113C252.889 215.252 256.098 214.42 258.332 213.687C263.165 212.097 263.452 210.968 263.452 210.943C263.452 210.943 263.408 210.76 263.066 210.428C262.724 210.097 262.085 209.616 260.902 209.032C260.095 208.631 259.768 207.655 260.169 206.853C260.565 206.051 261.541 205.719 262.343 206.12C265.686 207.779 267.117 209.666 266.607 211.726Z" fill="var(--fill-0, #232323)" style="fill:#232323;fill:color(display-p3 0.1375 0.1375 0.1375);fill-opacity:1;"/>
<path id="Vector_54" d="M158.784 305.182C131.22 305.182 103.78 304.612 84.9219 303.315C63.5285 301.849 47.3052 294.718 36.7026 282.129C27.2935 270.962 24.3915 257.928 23.614 248.96C23.0247 242.131 23.0841 228.75 30.1558 215.83C37.9703 201.553 51.8562 192.267 71.4272 188.226C72.3087 188.043 73.1654 188.613 73.3487 189.489C73.5319 190.366 72.9624 191.227 72.0859 191.41C26.3278 200.859 25.8969 237.639 26.8527 248.682C28.3978 266.485 38.0199 296.842 85.1447 300.076C127.357 302.973 212.757 302.24 245.689 299.576C283.514 296.515 305.65 282.768 311.489 258.715C314.97 244.359 315.743 231.513 313.782 220.529C313.623 219.648 314.212 218.801 315.094 218.642C315.98 218.484 316.822 219.073 316.981 219.955C319.021 231.384 318.239 244.681 314.648 259.478C311.35 273.077 303.228 283.669 290.506 290.949C279.364 297.332 264.369 301.324 245.952 302.81C227.629 304.29 193.112 305.177 158.784 305.177V305.182Z" fill="var(--fill-0, #969696)" style="fill:#969696;fill:color(display-p3 0.5882 0.5882 0.5882);fill-opacity:1;"/>
<path id="Vector_55" d="M73.3487 189.489C73.5269 190.366 72.9624 191.227 72.0859 191.406C26.3278 200.854 25.8969 237.634 26.8527 248.683C27.4668 255.784 29.3684 264.876 34.4246 273.453C33.0925 273.226 31.7405 272.968 30.3688 272.691C25.8672 264.153 24.1785 255.482 23.614 248.96C23.0247 242.131 23.0841 228.75 30.1558 215.83C37.9703 201.553 51.8562 192.267 71.4272 188.226C72.3087 188.043 73.1654 188.608 73.3487 189.489Z" fill="var(--fill-0, #232323)" style="fill:#232323;fill:color(display-p3 0.1375 0.1375 0.1375);fill-opacity:1;"/>
<path id="Vector_56" d="M314.764 258.962C313.625 259.526 312.367 260.046 311.01 260.522C311.183 259.922 311.342 259.318 311.49 258.709C314.972 244.353 315.744 231.507 313.778 220.523C313.62 219.641 314.209 218.795 315.096 218.641C315.982 218.483 316.819 219.072 316.977 219.953C318.998 231.244 318.255 244.368 314.764 258.962Z" fill="var(--fill-0, #232323)" style="fill:#232323;fill:color(display-p3 0.1375 0.1375 0.1375);fill-opacity:1;"/>
<path id="Vector_57" d="M220.152 178.655L206.127 185.613C200.214 188.549 193.321 184.058 193.608 177.461L195.446 135.749C195.584 132.595 197.426 129.767 200.254 128.361L214.279 121.403C220.192 118.466 227.085 122.958 226.798 129.554L224.96 171.266C224.822 174.421 222.98 177.248 220.152 178.655Z" fill="var(--fill-0, #E5E5E5)" style="fill:#E5E5E5;fill:color(display-p3 0.8974 0.8974 0.8974);fill-opacity:1;"/>
<path id="Vector_58" d="M202.262 188.154C200.311 188.154 198.37 187.589 196.656 186.47C193.571 184.459 191.828 181.067 191.986 177.388L193.823 135.675C193.987 131.932 196.176 128.569 199.533 126.905L213.558 119.947C216.856 118.313 220.664 118.536 223.749 120.542C226.835 122.552 228.578 125.944 228.419 129.624L226.582 171.336C226.419 175.08 224.23 178.442 220.872 180.106L206.848 187.064C205.382 187.792 203.817 188.149 202.262 188.149V188.154ZM218.144 122.116C217.079 122.116 216.004 122.364 215.004 122.859L200.979 129.817C198.682 130.956 197.186 133.259 197.072 135.819L195.235 177.531C195.126 180.047 196.319 182.374 198.429 183.746C200.539 185.123 203.148 185.271 205.407 184.152L219.431 177.194C221.729 176.055 223.225 173.753 223.338 171.192L225.176 129.48C225.285 126.965 224.091 124.637 221.982 123.265C220.808 122.503 219.481 122.116 218.144 122.116Z" fill="var(--fill-0, #232323)" style="fill:#232323;fill:color(display-p3 0.1375 0.1375 0.1375);fill-opacity:1;"/>
<path id="Vector_59" d="M194.968 224.258C194.864 224.258 194.765 224.249 194.661 224.229C193.779 224.06 193.2 223.209 193.368 222.327C196.32 206.911 209.79 198.636 221.031 198.636C221.081 198.636 221.125 198.636 221.175 198.636C232.307 198.705 240.275 206.133 242.484 218.504C242.642 219.385 242.053 220.232 241.172 220.391C240.295 220.549 239.443 219.96 239.285 219.078C237.373 208.372 230.599 201.949 221.155 201.889C221.115 201.889 221.071 201.889 221.031 201.889C211.097 201.889 199.187 209.243 196.562 222.941C196.414 223.719 195.73 224.263 194.968 224.263V224.258Z" fill="var(--fill-0, #232323)" style="fill:#232323;fill:color(display-p3 0.1375 0.1375 0.1375);fill-opacity:1;"/>
<path id="Vector_60" d="M124.292 162.462C133.439 163.126 166.965 150.171 185.788 155.376C204.606 160.58 199.04 191.809 147.988 199.861" fill="var(--fill-0, #F4D93B)" style="fill:#F4D93B;fill:color(display-p3 0.9569 0.8510 0.2314);fill-opacity:1;"/>
<path id="Vector 1195" d="M182.968 159.317C173.633 155.583 168.654 158.072 139.404 161.184C141.271 160.562 145.13 159.317 145.628 159.317C146.25 159.317 158.074 156.207 158.697 156.207C159.319 156.207 168.654 154.34 169.899 154.34H179.234L189.192 156.207L192.926 159.942L195.415 164.92C195.207 167.825 194.668 173.011 194.17 170.521C193.548 167.41 192.303 163.051 182.968 159.317Z" fill="var(--fill-0, white)" style="fill:white;fill-opacity:1;"/>
<path id="Vector_61" d="M124.327 161.907C128.329 161.328 132.939 159.798 136.95 158.773C149.89 155.499 162.924 152.053 176.454 152.241C180.955 152.399 185.759 152.904 189.899 154.979C190.627 155.435 191.607 155.96 192.251 156.534C194.787 158.471 196.54 161.363 197.253 164.463C198.144 168.707 197.124 173.169 195.084 176.932C187.69 190.254 171.289 197.058 157.041 199.896C154.075 200.366 151.094 200.638 148.088 200.5C147.721 200.485 147.439 200.178 147.454 199.811C147.464 199.534 147.642 199.311 147.885 199.217C149.276 198.643 150.668 198.167 152.069 197.751C156.199 196.37 160.394 195.295 164.514 193.913C174.988 190.214 187.814 183.925 192.524 173.273C194.321 169.167 194.405 164.25 191.305 160.739C182.778 151.186 153.614 158.827 142.026 161.15C137.708 162.081 133.291 162.957 128.849 163.244C127.343 163.309 125.803 163.344 124.253 163.022C123.946 162.957 123.753 162.655 123.817 162.353C123.872 162.096 124.089 161.922 124.337 161.902L124.327 161.907Z" fill="var(--fill-0, #232323)" style="fill:#232323;fill:color(display-p3 0.1375 0.1375 0.1375);fill-opacity:1;"/>
<path id="Vector_62" d="M269.244 104.852C271.544 104.852 273.408 102.988 273.408 100.687C273.408 98.3873 271.544 96.5227 269.244 96.5227C266.943 96.5227 265.079 98.3873 265.079 100.687C265.079 102.988 266.943 104.852 269.244 104.852Z" fill="var(--fill-0, #232323)" style="fill:#232323;fill:color(display-p3 0.1375 0.1375 0.1375);fill-opacity:1;"/>
<path id="Vector_63" d="M220.331 138.062C221.472 138.062 222.396 136.823 222.396 135.294C222.396 133.765 221.472 132.526 220.331 132.526C219.191 132.526 218.266 133.765 218.266 135.294C218.266 136.823 219.191 138.062 220.331 138.062Z" fill="var(--fill-0, #232323)" style="fill:#232323;fill:color(display-p3 0.1375 0.1375 0.1375);fill-opacity:1;"/>
<path id="Vector_64" d="M138.639 249.747C132.964 254.337 120.024 260.008 118.984 267.421C118.385 277.187 142.531 282.877 150.187 284.669C168.451 288.656 188.121 291.746 206.068 284.887C220.424 279.608 232.007 267.218 223.599 251.663C221.885 248.419 219.622 245.443 217.265 242.457C216.933 242.041 217.002 241.432 217.418 241.1C217.775 240.818 218.275 240.833 218.617 241.1C220.157 242.333 221.573 243.73 222.875 245.24C226.832 249.87 229.531 255.674 229.665 261.919C229.908 274.819 218.419 284.05 207.36 288.22C188.463 295.604 168.565 292.731 149.326 288.547C139.456 286.205 119.043 281.396 115.502 270.63C113.314 262.662 121.336 256.714 127.175 253C130.582 250.97 134.202 249.395 138.025 248.424C138.817 248.221 139.288 249.281 138.644 249.742L138.639 249.747Z" fill="var(--fill-0, #969696)" style="fill:#969696;fill:color(display-p3 0.5882 0.5882 0.5882);fill-opacity:1;"/>
<path id="Vector_65" d="M138.638 249.744C132.963 254.34 120.022 260.01 118.983 267.419C118.745 271.306 122.424 274.55 127.426 277.155C125.029 277.08 122.583 277.036 120.102 277.011C117.923 275.164 116.284 273.049 115.491 270.637C113.302 262.669 121.325 256.722 127.164 253.008C130.571 250.972 134.191 249.403 138.019 248.427C138.806 248.224 139.281 249.289 138.638 249.744Z" fill="var(--fill-0, #232323)" style="fill:#232323;fill:color(display-p3 0.1375 0.1375 0.1375);fill-opacity:1;"/>
<path id="Vector_66" d="M229.647 261.918C229.781 268.96 226.418 274.912 221.535 279.538C219.792 279.8 217.693 279.993 215.335 280.137C224.69 273.714 230.053 263.622 223.586 251.657C221.872 248.413 219.609 245.437 217.252 242.451C216.915 242.035 216.989 241.426 217.405 241.094C217.762 240.812 218.262 240.827 218.604 241.099C220.139 242.337 221.56 243.729 222.858 245.244C226.814 249.869 229.513 255.678 229.647 261.918Z" fill="var(--fill-0, #232323)" style="fill:#232323;fill:color(display-p3 0.1375 0.1375 0.1375);fill-opacity:1;"/>
<path id="Vector_67" d="M33.8265 209.293C51.1009 209.293 65.1045 195.289 65.1045 178.015C65.1045 160.741 51.1009 146.737 33.8265 146.737C16.5522 146.737 2.54862 160.741 2.54862 178.015C2.54862 195.289 16.5522 209.293 33.8265 209.293Z" fill="var(--fill-0, white)" style="fill:white;fill-opacity:1;"/>
<path id="Vector_68" d="M31.7673 182.746C38.5255 182.746 44.0041 177.268 44.0041 170.509C44.0041 163.751 38.5255 158.273 31.7673 158.273C25.0091 158.273 19.5305 163.751 19.5305 170.509C19.5305 177.268 25.0091 182.746 31.7673 182.746Z" fill="var(--fill-0, #FFB871)" style="fill:#FFB871;fill:color(display-p3 1.0000 0.7216 0.4431);fill-opacity:1;"/>
<path id="Vector_69" d="M33.8137 210.919C18.4421 210.919 4.66023 200.064 1.55522 184.425C-0.158234 175.803 1.58988 167.033 6.47272 159.729C11.3556 152.424 18.7937 147.457 27.4105 145.744C36.0322 144.03 44.8025 145.778 52.107 150.661C59.4114 155.544 64.3785 162.982 66.0919 171.599C67.8054 180.216 66.0573 188.991 61.1744 196.296C56.2916 203.6 48.8534 208.567 40.2366 210.28C38.0824 210.706 35.9332 210.914 33.8137 210.914V210.919ZM33.8879 148.354C31.9467 148.354 29.9955 148.547 28.0493 148.933C20.2794 150.478 13.5791 154.955 9.17661 161.536C4.77413 168.118 3.19934 176.026 4.74442 183.791C7.92866 199.826 23.5726 210.28 39.6028 207.096C47.3727 205.551 54.073 201.074 58.4755 194.493C62.878 187.912 64.4528 180.003 62.9077 172.238C61.3626 164.468 56.8858 157.768 50.3044 153.365C45.372 150.067 39.6919 148.354 33.8879 148.354Z" fill="var(--fill-0, #232323)" style="fill:#232323;fill:color(display-p3 0.1375 0.1375 0.1375);fill-opacity:1;"/>
<path id="Vector_70" d="M31.5162 185.794C24.8159 185.794 18.8089 181.065 17.452 174.246C15.9119 166.491 20.968 158.924 28.7231 157.383C32.4818 156.636 36.3049 157.398 39.4892 159.528C42.6734 161.657 44.8375 164.901 45.5853 168.655C46.3331 172.413 45.5704 176.236 43.441 179.421C41.3116 182.605 38.0679 184.769 34.3141 185.517C33.3732 185.705 32.4373 185.794 31.5162 185.794ZM31.5409 160.573C30.8278 160.573 30.1147 160.642 29.3966 160.786C23.5134 161.954 19.6805 167.689 20.8492 173.572C22.0179 179.455 27.7575 183.288 33.6357 182.12C36.4832 181.555 38.9444 179.911 40.5588 177.494C42.1732 175.078 42.7526 172.181 42.1831 169.328C41.6186 166.481 39.9745 164.019 37.5578 162.405C35.7453 161.197 33.6654 160.568 31.536 160.568L31.5409 160.573Z" fill="var(--fill-0, black)" style="fill:black;fill-opacity:1;"/>
<path id="Vector_71" d="M25.1915 200.361C25.033 200.361 24.8696 200.342 24.7062 200.302C23.6464 200.035 23.0026 198.96 23.2701 197.895C26.1869 186.307 33.318 183.049 37.3045 182.137C43.3808 180.751 50.0663 182.945 53.9389 187.59C54.6421 188.432 54.5282 189.68 53.6863 190.378C52.8444 191.076 51.5965 190.967 50.8982 190.125C47.9566 186.594 42.846 184.94 38.191 186C32.8278 187.223 28.8957 191.789 27.1129 198.861C26.8851 199.757 26.0779 200.356 25.1915 200.356V200.361Z" fill="var(--fill-0, black)" style="fill:black;fill-opacity:1;"/>
<path id="Vector_72" d="M15.7785 171.556C15.4071 171.556 15.0357 171.546 14.6494 171.521C13.555 171.452 12.728 170.511 12.7973 169.416C12.8666 168.322 13.8273 167.495 14.902 167.564C18.7795 167.812 21.0724 166.4 22.3154 165.172C23.1077 164.39 23.5485 163.612 23.7614 163.058C23.4692 162.84 23.2315 162.538 23.0929 162.171C22.7066 161.146 23.2216 160.007 24.2467 159.616C25.3213 159.21 26.4356 159.443 27.1536 160.23C28.1391 161.305 28.154 163.073 27.1982 165.078C25.668 168.282 21.8895 171.556 15.7785 171.556Z" fill="var(--fill-0, black)" style="fill:black;fill-opacity:1;"/>
<path id="Vector_73" d="M34.8256 164.492C33.7906 164.492 32.7259 164.358 31.686 164.021C29.3238 163.254 27.5212 161.615 26.3327 159.153C25.8573 158.168 26.2683 156.984 27.2538 156.509C28.2393 156.034 29.4228 156.445 29.8982 157.43C30.6064 158.896 31.5869 159.822 32.8943 160.248C36.0835 161.293 40.1492 159.178 40.1889 159.153C41.1545 158.643 42.353 159.01 42.868 159.971C43.383 160.936 43.0215 162.13 42.0558 162.645C41.8775 162.739 38.5645 164.487 34.8207 164.487L34.8256 164.492Z" fill="var(--fill-0, black)" style="fill:black;fill-opacity:1;"/>
<path id="Vector_74" d="M29.2971 175.191C30.2571 175.191 31.0354 174.412 31.0354 173.452C31.0354 172.492 30.2571 171.714 29.2971 171.714C28.3372 171.714 27.5589 172.492 27.5589 173.452C27.5589 174.412 28.3372 175.191 29.2971 175.191Z" fill="var(--fill-0, black)" style="fill:black;fill-opacity:1;"/>
<path id="Vector_75" d="M34.1619 173.29C35.1219 173.29 35.9001 172.512 35.9001 171.552C35.9001 170.592 35.1219 169.814 34.1619 169.814C33.2019 169.814 32.4237 170.592 32.4237 171.552C32.4237 172.512 33.2019 173.29 34.1619 173.29Z" fill="var(--fill-0, black)" style="fill:black;fill-opacity:1;"/>
<path id="Vector_76" d="M208.013 282.176C207.552 282.176 207.092 282.176 206.626 282.167C192.765 281.968 171.184 281.136 148.334 280.255C114.283 278.943 75.6909 277.452 53.8766 277.744C53.4754 277.749 53.0743 277.754 52.6781 277.754C29.1306 277.754 12.3972 268.35 11.9911 259.699C11.8821 257.386 12.9518 251.909 25.1688 250.938C26.0503 250.869 26.8476 251.532 26.9169 252.429C26.9863 253.325 26.3177 254.108 25.4263 254.177C18.9142 254.692 15.106 256.702 15.2348 259.545C15.4824 264.943 28.9572 274.827 53.827 274.496C75.7206 274.199 114.362 275.689 148.453 277.006C171.283 277.888 192.844 278.72 206.666 278.913C224.925 279.175 240.999 274.045 255.177 269.524C267.716 265.522 279.557 261.749 291.006 262.214C305.521 262.809 319.164 256.688 321.829 252.379C321.967 252.156 322.274 251.602 322.116 251.319C321.829 250.804 320.175 249.923 315.777 249.893C314.881 249.888 314.158 249.155 314.163 248.254C314.168 247.363 314.896 246.64 315.787 246.64C315.787 246.64 315.797 246.64 315.802 246.64C320.833 246.674 323.829 247.69 324.963 249.745C325.374 250.483 325.87 252.033 324.597 254.088C321.536 259.045 308.284 265.503 293.057 265.503C292.334 265.503 291.61 265.488 290.883 265.458C280.003 265.012 268.424 268.707 256.173 272.614C242.119 277.1 226.227 282.167 208.018 282.167L208.013 282.176Z" fill="var(--fill-0, #232323)" style="fill:#232323;fill:color(display-p3 0.1375 0.1375 0.1375);fill-opacity:1;"/>
<path id="Vector_77" d="M25.0672 242.694L19.3946 242.579L19.379 244.449C19.3736 245.219 18.7565 245.846 17.984 245.867C17.1489 245.887 16.4751 245.187 16.5236 244.356L17.1045 234.494C17.1494 233.701 17.8366 233.099 18.6283 233.155L18.6767 233.16C19.4512 233.211 20.0411 233.876 20.0059 234.651L19.9126 236.685L25.6345 236.645L25.4855 242.375" fill="var(--fill-0, #232323)" style="fill:#232323;fill:color(display-p3 0.1375 0.1375 0.1375);fill-opacity:1;"/>
<path id="Vector_78" d="M77.983 207.324C72.6693 212.786 73.1843 218.184 85.0695 220.541C96.9548 222.898 86.9167 220.095 86.9167 220.095L77.983 207.324Z" fill="var(--fill-0, #232323)" style="fill:#232323;fill:color(display-p3 0.1375 0.1375 0.1375);fill-opacity:1;"/>
<path id="Vector_79" d="M260.045 207.218L258.109 214.706L265.938 211.442L260.045 207.218Z" fill="var(--fill-0, #232323)" style="fill:#232323;fill:color(display-p3 0.1375 0.1375 0.1375);fill-opacity:1;"/>
<path id="Vector_80" d="M6.51966 255.352C4.03367 258.174 0.636483 261.819 2.29546 265.776C4.8904 271.164 14.4283 273.868 19.8856 275.665C20.2768 275.779 20.1579 276.403 19.737 276.344C16.8648 275.968 14.0222 275.339 11.249 274.398C5.9155 272.655 -1.81484 268.43 0.383922 261.69C0.908852 260.17 1.82005 258.907 2.83525 257.818C3.8653 256.738 5.01916 255.822 6.23244 255.02C6.44043 254.881 6.68804 255.173 6.51471 255.352H6.51966Z" fill="var(--fill-0, #969696)" style="fill:#969696;fill:color(display-p3 0.5882 0.5882 0.5882);fill-opacity:1;"/>
<path id="Vector_81" d="M34.6382 287.025C49.1926 287.065 64.0343 287.832 78.5837 288.57C87.0866 289.041 96.4611 289.526 104.919 290.1C105.073 290.11 105.192 290.244 105.182 290.402C105.172 290.546 105.053 290.66 104.909 290.665C99.0412 290.833 93.1679 290.804 87.3045 290.69C75.756 290.457 63.6629 289.863 52.1491 289.135C46.2956 288.763 40.4471 288.352 34.6035 287.832C34.3807 287.812 34.2172 287.619 34.237 287.396C34.2569 287.189 34.4302 287.03 34.6382 287.03V287.025Z" fill="var(--fill-0, #969696)" style="fill:#969696;fill:color(display-p3 0.5882 0.5882 0.5882);fill-opacity:1;"/>
<path id="Vector_82" d="M275.011 276.822C296.717 271.989 318.704 267.25 339.206 258.469C341.841 257.231 348.982 253.973 349.041 250.828C348.66 247.436 338.84 245.277 335.849 244.371C335.428 244.267 335.547 243.613 335.977 243.667C336.998 243.776 338.013 243.91 339.023 244.078C342.891 244.737 352.458 246.599 350.809 252.2C347.07 261.837 309.711 270.523 299.163 273.068C291.22 274.881 283.222 276.481 275.155 277.659C274.922 277.694 274.709 277.53 274.674 277.303C274.64 277.08 274.788 276.872 275.006 276.827L275.011 276.822Z" fill="var(--fill-0, #969696)" style="fill:#969696;fill:color(display-p3 0.5882 0.5882 0.5882);fill-opacity:1;"/>
<path id="Vector_83" d="M234.067 289.329C241.341 288.195 248.849 287.398 256.173 286.689C258.634 286.462 261.106 286.259 263.587 286.145C264.003 286.12 264.121 286.749 263.7 286.858C256.465 288.715 249.017 289.606 241.564 289.938C239.078 290.037 236.582 290.037 234.091 289.874C233.779 289.854 233.745 289.378 234.067 289.329Z" fill="var(--fill-0, #969696)" style="fill:#969696;fill:color(display-p3 0.5882 0.5882 0.5882);fill-opacity:1;"/>
<path id="Vector_84" d="M25.2731 252.358C25.1245 252.382 24.9759 252.402 24.8274 252.427C11.615 254.551 11.5853 260.222 15.3836 263.797C19.1819 267.373 31.0374 272.508 31.0374 272.508L26.6795 258.483" fill="var(--fill-0, #232323)" style="fill:#232323;fill:color(display-p3 0.1375 0.1375 0.1375);fill-opacity:1;"/>
<path id="Vector_85" d="M315.264 248.906C315.264 248.906 313.526 258.206 313.526 258.538C313.526 258.869 319.448 257.874 320.944 255.492C322.44 253.11 323.272 251.451 323.272 251.451L321.885 249.183L315.259 248.906H315.264Z" fill="var(--fill-0, #232323)" style="fill:#232323;fill:color(display-p3 0.1375 0.1375 0.1375);fill-opacity:1;"/>
<path id="Vector_86" d="M158.007 198.64C183.991 192.563 192.553 187.25 192.553 187.25C195.653 189.538 202.373 190.573 209.311 187.25C216.249 183.927 223.058 181.565 228.209 184.075C233.359 186.586 220.681 179.277 220.681 179.277L203.408 187.25L198.169 184.897L193.727 179.643L192.925 178.014L174.616 191.87L158.007 198.635V198.64Z" fill="var(--fill-0, #232323)" style="fill:#232323;fill:color(display-p3 0.1375 0.1375 0.1375);fill-opacity:1;"/>
<path id="Vector_87" d="M193.694 72.7216C196.957 73.2861 196.625 75.4799 195.472 76.6684C194.318 77.857 196.903 77.1934 196.903 77.1934L198.156 75.3462L198.413 73.5733C198.413 73.5733 196.328 72.0778 196.274 72.058C196.219 72.0382 194.189 71.7064 194.189 71.7064L193.694 72.7117V72.7216Z" fill="var(--fill-0, #232323)" style="fill:#232323;fill:color(display-p3 0.1375 0.1375 0.1375);fill-opacity:1;"/>
<g id="Group 1597881577">
<g id="Ellipse 17170">
<circle cx="298.47" cy="63.2256" r="18.6702" transform="rotate(17.3848 298.47 63.2256)" fill="var(--fill-0, black)" style="fill:black;fill-opacity:1;"/>
<circle cx="298.47" cy="63.2256" r="18.6702" transform="rotate(17.3848 298.47 63.2256)" stroke="var(--stroke-0, black)" style="stroke:black;stroke-opacity:1;"/>
</g>
<path id="Vector_88" fill-rule="evenodd" clip-rule="evenodd" d="M288.052 67.3399C291.589 57.4114 300.705 58.9194 302.821 59.4179L303.456 57.3959C303.486 57.3063 303.547 57.2267 303.641 57.1737C303.851 57.0558 304.138 57.1219 304.281 57.3213L309.572 64.6878C309.588 64.71 309.602 64.7331 309.614 64.7584C309.72 64.9749 309.617 65.2178 309.386 65.3L300.874 68.322C300.77 68.3704 300.642 68.3811 300.518 68.3422C300.272 68.2651 300.128 68.0247 300.197 67.8047L300.908 65.5339C292.891 62.2577 289.066 67.4834 288.892 67.7265C288.787 67.8859 288.566 67.9565 288.356 67.8842C288.114 67.8008 287.978 67.5576 288.054 67.3406L288.052 67.3399Z" fill="var(--fill-0, white)" style="fill:white;fill-opacity:1;"/>
</g>
<g id="Group 1597881578">
<circle id="Ellipse 17170_2" cx="114.511" cy="23.6489" r="18.6702" fill="var(--fill-0, black)" style="fill:black;fill-opacity:1;"/>
<path id="Vector_89" fill-rule="evenodd" clip-rule="evenodd" d="M105.798 30.6881C106.207 20.1564 115.356 18.8719 117.525 18.7152L117.527 16.596C117.528 16.5016 117.563 16.4073 117.637 16.3286C117.802 16.1534 118.096 16.1307 118.292 16.2782L125.542 21.7275C125.564 21.7438 125.585 21.7615 125.604 21.7821C125.769 21.9573 125.744 22.2197 125.548 22.3672L118.327 27.7945C118.242 27.8718 118.124 27.9201 117.994 27.9201C117.736 27.9201 117.527 27.7335 117.527 27.503V25.1235C108.897 24.3923 106.808 30.5223 106.715 30.8061C106.662 30.9898 106.472 31.1232 106.251 31.1168C105.994 31.1097 105.792 30.9182 105.8 30.6884L105.798 30.6881Z" fill="var(--fill-0, white)" style="fill:white;fill-opacity:1;"/>
</g>
<g id="Group 1597881579">
<circle id="Ellipse 17170_3" cx="19.9149" cy="206.617" r="18.6702" fill="var(--fill-0, #272727)" style="fill:#272727;fill:color(display-p3 0.1542 0.1542 0.1542);fill-opacity:1;"/>
<path id="Vector_90" fill-rule="evenodd" clip-rule="evenodd" d="M11.2022 213.656C11.611 203.125 20.7605 201.84 22.9294 201.683L22.931 199.564C22.9326 199.47 22.9676 199.376 23.0414 199.297C23.2065 199.122 23.5003 199.099 23.6964 199.246L30.9461 204.696C30.9684 204.712 30.989 204.73 31.0081 204.75C31.1732 204.925 31.1478 205.188 30.9517 205.335L23.7314 210.763C23.6464 210.84 23.5281 210.888 23.398 210.888C23.1399 210.888 22.9311 210.702 22.9311 210.471V208.092C14.3016 207.361 12.2121 213.491 12.1192 213.774C12.0661 213.958 11.8763 214.091 11.6548 214.085C11.3984 214.078 11.1959 213.886 11.2039 213.657L11.2022 213.656Z" fill="var(--fill-0, white)" style="fill:white;fill-opacity:1;"/>
</g>
</g>
<path id="Vector_91" d="M133.245 73.5558L122.894 78.6241C124.396 80.3422 126.388 80.6184 128.817 79.4097C129.907 78.8854 130.689 78.1723 131.157 77.3079C131.553 76.5797 132.322 76.1395 133.149 76.189C134.673 76.2876 135.603 77.9373 134.87 79.2799C133.988 80.897 132.557 82.1856 130.57 83.1546C127.957 84.4342 125.453 84.6867 123.078 83.8759C120.701 83.0601 118.936 81.4436 117.762 79.0291C116.607 76.6642 116.406 74.2938 117.181 71.8988C117.942 69.543 119.549 67.7535 122.033 66.5237C124.398 65.3686 126.674 65.2329 128.961 66.1117C131.273 66.981 132.999 68.5843 134.188 70.9644C134.188 70.9644 134.192 70.9743 134.194 70.9793C134.627 71.9502 134.198 73.0901 133.245 73.5558ZM122.213 75.028L128.422 71.9797C128.909 71.7396 128.999 71.0731 128.58 70.7284C128.034 70.2738 127.44 69.9745 126.784 69.8244C125.81 69.6323 124.814 69.7505 123.864 70.2379C122.761 70.7848 121.992 71.504 121.54 72.4248C121.242 73.0357 121.106 73.6859 121.12 74.3811C121.132 74.9284 121.72 75.27 122.208 75.0299L122.213 75.028Z" fill="var(--fill-0, white)" style="fill:white;fill-opacity:1;"/>
</g>
<defs>
<clipPath id="clip0_0_121">
<rect width="351" height="305.182" fill="white" style="fill:white;fill-opacity:1;"/>
</clipPath>
</defs>
</svg>
